<svg width="644" height="444" viewBox="0 0 644 444" fill="none" xmlns="http://www.w3.org/2000/svg">
<mask id="path-1-inside-1_3:62" fill="white">
<path fill-rule="evenodd" clip-rule="evenodd" d="M121 222C169.049 222 208 183.049 208 135C208 86.9512 169.049 48 121 48C72.9512 48 34 86.9512 34 135C34 183.049 72.9512 222 121 222ZM120.5 199C155.57 199 184 170.57 184 135.5C184 100.43 155.57 72 120.5 72C85.4299 72 57 100.43 57 135.5C57 170.57 85.4299 199 120.5 199Z"/>
</mask>
<path fill-rule="evenodd" clip-rule="evenodd" d="M121 222C169.049 222 208 183.049 208 135C208 86.9512 169.049 48 121 48C72.9512 48 34 86.9512 34 135C34 183.049 72.9512 222 121 222ZM120.5 199C155.57 199 184 170.57 184 135.5C184 100.43 155.57 72 120.5 72C85.4299 72 57 100.43 57 135.5C57 170.57 85.4299 199 120.5 199Z" fill="#484848"/>
<path d="M205 135C205 181.392 167.392 219 121 219V225C170.706 225 211 184.706 211 135H205ZM121 51C167.392 51 205 88.6081 205 135H211C211 85.2944 170.706 45 121 45V51ZM37 135C37 88.6081 74.6081 51 121 51V45C71.2944 45 31 85.2944 31 135H37ZM121 219C74.6081 219 37 181.392 37 135H31C31 184.706 71.2944 225 121 225V219ZM181 135.5C181 168.913 153.913 196 120.5 196V202C157.227 202 187 172.227 187 135.5H181ZM120.5 75C153.913 75 181 102.087 181 135.5H187C187 98.7731 157.227 69 120.5 69V75ZM60 135.5C60 102.087 87.0868 75 120.5 75V69C83.7731 69 54 98.7731 54 135.5H60ZM120.5 196C87.0868 196 60 168.913 60 135.5H54C54 172.227 83.7731 202 120.5 202V196Z" fill="black" mask="url(#path-1-inside-1_3:62)"/>
<path d="M31.8125 43.4414C31.8125 43.5703 31.7773 43.6992 31.707 43.8281C31.6484 43.957 31.5664 44.0742 31.4609 44.1797C31.3672 44.2734 31.2559 44.3555 31.127 44.4258C30.998 44.4844 30.8633 44.5137 30.7227 44.5137C30.4297 44.5137 30.1719 44.3906 29.9492 44.1445C29.7266 43.8984 29.498 43.6289 29.2637 43.3359C29.0293 43.0312 28.7656 42.7559 28.4727 42.5098C28.1914 42.2637 27.8398 42.1406 27.418 42.1406C26.9844 42.1406 26.6445 42.2637 26.3984 42.5098C26.1523 42.7559 25.9648 43.084 25.8359 43.4941C25.7188 43.8926 25.6426 44.3613 25.6074 44.9004C25.584 45.4395 25.5723 45.9961 25.5723 46.5703V47.8711H28.7188V48.8379H25.5723V56.8008C25.5723 57.4102 25.6016 57.8965 25.6602 58.2598C25.7305 58.6113 25.8652 58.8809 26.0645 59.0684C26.2637 59.2441 26.5449 59.3613 26.9082 59.4199C27.2832 59.4668 27.7754 59.4902 28.3848 59.4902V60H21.0723V59.4902C21.5996 59.4902 22.0156 59.4434 22.3203 59.3496C22.625 59.2441 22.8535 59.0859 23.0059 58.875C23.1699 58.6523 23.2754 58.3711 23.3223 58.0312C23.3691 57.6914 23.3926 57.2812 23.3926 56.8008V48.8379H21.002V47.8711H23.3926V47.0449C23.3926 46.2715 23.498 45.5332 23.709 44.8301C23.9199 44.1152 24.2363 43.4883 24.6582 42.9492C25.0801 42.4102 25.6074 41.9824 26.2402 41.666C26.873 41.3379 27.6113 41.1738 28.4551 41.1738C28.748 41.1738 29.0879 41.2266 29.4746 41.332C29.873 41.4258 30.2422 41.5723 30.582 41.7715C30.9219 41.959 31.209 42.1934 31.4434 42.4746C31.6895 42.7559 31.8125 43.0781 31.8125 43.4414ZM31.2676 64.5703H30.1953L36.3477 38.1152H37.4551L31.2676 64.5703ZM42.0957 60V59.4902C42.6699 59.4902 43.1152 59.4551 43.4316 59.3848C43.748 59.3027 43.9766 59.1621 44.1172 58.9629C44.2695 58.7637 44.3574 58.4941 44.3809 58.1543C44.416 57.8027 44.4336 57.3633 44.4336 56.8359V46.7109C44.4336 46.3008 44.4219 45.9199 44.3984 45.5684C44.3867 45.2168 44.3457 44.9121 44.2754 44.6543C44.2051 44.3848 44.0938 44.1738 43.9414 44.0215C43.8008 43.8691 43.6016 43.793 43.3438 43.793C43.1094 43.793 42.875 43.8398 42.6406 43.9336C42.4062 44.0156 42.1895 44.1035 41.9902 44.1973L41.7617 43.793L46.1562 41.6484H46.6309V56.8359C46.6309 57.3516 46.6426 57.7793 46.666 58.1191C46.6895 58.459 46.7715 58.7344 46.9121 58.9453C47.0527 59.1445 47.2695 59.2852 47.5625 59.3672C47.8672 59.4492 48.3008 59.4902 48.8633 59.4902V60H42.0957ZM59.6387 58.8398C59.6387 59.2852 59.4863 59.6602 59.1816 59.9648C58.8887 60.2578 58.5195 60.4043 58.0742 60.4043C57.8633 60.4043 57.6641 60.3633 57.4766 60.2812C57.3008 60.1992 57.1426 60.0879 57.002 59.9473C56.873 59.8066 56.7676 59.6426 56.6855 59.4551C56.6035 59.2676 56.5625 59.0625 56.5625 58.8398C56.5625 58.6289 56.6035 58.4355 56.6855 58.2598C56.7676 58.0723 56.873 57.9141 57.002 57.7852C57.1426 57.6445 57.3008 57.5332 57.4766 57.4512C57.6641 57.3691 57.8633 57.3281 58.0742 57.3281C58.2969 57.3281 58.502 57.3691 58.6895 57.4512C58.877 57.5332 59.041 57.6445 59.1816 57.7852C59.3223 57.9141 59.4336 58.0723 59.5156 58.2598C59.5977 58.4355 59.6387 58.6289 59.6387 58.8398ZM73.6836 55.2539V60H71.4863V55.2539H63.8926V53.584L72.2422 41.6484H73.6836V53.373H76.0566V55.2539H73.6836ZM71.4863 44.4434L65.1758 53.373H71.4863V44.4434Z" fill="black"/>
<path d="M238.812 43.4414C238.812 43.5703 238.777 43.6992 238.707 43.8281C238.648 43.957 238.566 44.0742 238.461 44.1797C238.367 44.2734 238.256 44.3555 238.127 44.4258C237.998 44.4844 237.863 44.5137 237.723 44.5137C237.43 44.5137 237.172 44.3906 236.949 44.1445C236.727 43.8984 236.498 43.6289 236.264 43.3359C236.029 43.0312 235.766 42.7559 235.473 42.5098C235.191 42.2637 234.84 42.1406 234.418 42.1406C233.984 42.1406 233.645 42.2637 233.398 42.5098C233.152 42.7559 232.965 43.084 232.836 43.4941C232.719 43.8926 232.643 44.3613 232.607 44.9004C232.584 45.4395 232.572 45.9961 232.572 46.5703V47.8711H235.719V48.8379H232.572V56.8008C232.572 57.4102 232.602 57.8965 232.66 58.2598C232.73 58.6113 232.865 58.8809 233.064 59.0684C233.264 59.2441 233.545 59.3613 233.908 59.4199C234.283 59.4668 234.775 59.4902 235.385 59.4902V60H228.072V59.4902C228.6 59.4902 229.016 59.4434 229.32 59.3496C229.625 59.2441 229.854 59.0859 230.006 58.875C230.17 58.6523 230.275 58.3711 230.322 58.0312C230.369 57.6914 230.393 57.2812 230.393 56.8008V48.8379H228.002V47.8711H230.393V47.0449C230.393 46.2715 230.498 45.5332 230.709 44.8301C230.92 44.1152 231.236 43.4883 231.658 42.9492C232.08 42.4102 232.607 41.9824 233.24 41.666C233.873 41.3379 234.611 41.1738 235.455 41.1738C235.748 41.1738 236.088 41.2266 236.475 41.332C236.873 41.4258 237.242 41.5723 237.582 41.7715C237.922 41.959 238.209 42.1934 238.443 42.4746C238.689 42.7559 238.812 43.0781 238.812 43.4414ZM238.268 64.5703H237.195L243.348 38.1152H244.455L238.268 64.5703ZM256.76 60H246.213V59.4902C246.764 58.9863 247.355 58.4355 247.988 57.8379C248.621 57.2402 249.248 56.6191 249.869 55.9746C250.502 55.3184 251.105 54.6445 251.68 53.9531C252.266 53.25 252.775 52.5469 253.209 51.8438C253.654 51.1289 254.006 50.4199 254.264 49.7168C254.533 49.002 254.668 48.2988 254.668 47.6074C254.668 47.0918 254.586 46.5996 254.422 46.1309C254.258 45.6504 254.023 45.2344 253.719 44.8828C253.414 44.5195 253.045 44.2324 252.611 44.0215C252.178 43.7988 251.686 43.6875 251.135 43.6875C250.104 43.6875 249.266 43.957 248.621 44.4961C247.988 45.0352 247.508 45.7734 247.18 46.7109H246.705C246.799 45.9961 246.969 45.3281 247.215 44.707C247.473 44.0859 247.812 43.5527 248.234 43.1074C248.656 42.6504 249.166 42.293 249.764 42.0352C250.361 41.7773 251.047 41.6484 251.82 41.6484C252.5 41.6484 253.145 41.7656 253.754 42C254.375 42.2227 254.92 42.5449 255.389 42.9668C255.857 43.377 256.232 43.875 256.514 44.4609C256.795 45.0352 256.936 45.6797 256.936 46.3945C256.936 47.0625 256.818 47.7305 256.584 48.3984C256.35 49.0547 256.045 49.6992 255.67 50.332C255.307 50.9531 254.896 51.5449 254.439 52.1074C253.982 52.6699 253.537 53.1855 253.104 53.6543C252.436 54.3809 251.768 55.1191 251.1 55.8691C250.432 56.6074 249.74 57.3105 249.025 57.9785H253.701C254.205 57.9785 254.645 57.9668 255.02 57.9434C255.395 57.9199 255.729 57.8613 256.021 57.7676C256.314 57.6738 256.584 57.5332 256.83 57.3457C257.076 57.1465 257.316 56.877 257.551 56.5371H258.061L256.76 60ZM266.639 58.8398C266.639 59.2852 266.486 59.6602 266.182 59.9648C265.889 60.2578 265.52 60.4043 265.074 60.4043C264.863 60.4043 264.664 60.3633 264.477 60.2812C264.301 60.1992 264.143 60.0879 264.002 59.9473C263.873 59.8066 263.768 59.6426 263.686 59.4551C263.604 59.2676 263.562 59.0625 263.562 58.8398C263.562 58.6289 263.604 58.4355 263.686 58.2598C263.768 58.0723 263.873 57.9141 264.002 57.7852C264.143 57.6445 264.301 57.5332 264.477 57.4512C264.664 57.3691 264.863 57.3281 265.074 57.3281C265.297 57.3281 265.502 57.3691 265.689 57.4512C265.877 57.5332 266.041 57.6445 266.182 57.7852C266.322 57.9141 266.434 58.0723 266.516 58.2598C266.598 58.4355 266.639 58.6289 266.639 58.8398ZM283.057 50.8594C283.057 51.457 283.016 52.1074 282.934 52.8105C282.852 53.502 282.717 54.1992 282.529 54.9023C282.342 55.5938 282.096 56.2676 281.791 56.9238C281.498 57.5801 281.129 58.1602 280.684 58.6641C280.25 59.1562 279.74 59.5547 279.154 59.8594C278.568 60.1641 277.9 60.3164 277.15 60.3164C276.447 60.3164 275.814 60.1699 275.252 59.877C274.689 59.5723 274.197 59.1738 273.775 58.6816C273.354 58.1895 272.99 57.627 272.686 56.9941C272.393 56.3496 272.152 55.6875 271.965 55.0078C271.777 54.3164 271.637 53.6367 271.543 52.9688C271.461 52.2891 271.42 51.668 271.42 51.1055C271.42 50.5312 271.461 49.8984 271.543 49.207C271.637 48.5156 271.777 47.8242 271.965 47.1328C272.152 46.4297 272.398 45.75 272.703 45.0938C273.008 44.4258 273.377 43.8398 273.811 43.3359C274.244 42.8203 274.748 42.4102 275.322 42.1055C275.896 41.8008 276.553 41.6484 277.291 41.6484C278.018 41.6484 278.662 41.8008 279.225 42.1055C279.799 42.3984 280.297 42.791 280.719 43.2832C281.152 43.7637 281.516 44.3262 281.809 44.9707C282.102 45.6035 282.342 46.2656 282.529 46.957C282.717 47.6367 282.852 48.3164 282.934 48.9961C283.016 49.6641 283.057 50.2852 283.057 50.8594ZM280.455 50.4199C280.455 50.0801 280.443 49.6465 280.42 49.1191C280.408 48.5918 280.367 48.0352 280.297 47.4492C280.227 46.8633 280.121 46.2773 279.98 45.6914C279.852 45.1055 279.67 44.5781 279.436 44.1094C279.201 43.6289 278.902 43.2422 278.539 42.9492C278.188 42.6562 277.76 42.5098 277.256 42.5098C276.74 42.5098 276.301 42.6855 275.938 43.0371C275.586 43.377 275.287 43.8223 275.041 44.373C274.807 44.9238 274.619 45.5391 274.479 46.2188C274.338 46.8984 274.232 47.5723 274.162 48.2402C274.104 48.8965 274.062 49.5117 274.039 50.0859C274.027 50.6484 274.021 51.0996 274.021 51.4395C274.021 51.7793 274.027 52.2129 274.039 52.7402C274.062 53.2676 274.109 53.8301 274.18 54.4277C274.25 55.0137 274.35 55.6113 274.479 56.2207C274.619 56.8184 274.807 57.3574 275.041 57.8379C275.287 58.3184 275.586 58.7109 275.938 59.0156C276.289 59.3086 276.717 59.4551 277.221 59.4551C277.748 59.4551 278.193 59.2852 278.557 58.9453C278.932 58.5938 279.236 58.1484 279.471 57.6094C279.717 57.0586 279.904 56.4434 280.033 55.7637C280.162 55.084 280.256 54.4102 280.314 53.7422C280.385 53.0742 280.426 52.4473 280.438 51.8613C280.449 51.2754 280.455 50.7949 280.455 50.4199Z" fill="black"/>
<path d="M445.812 39.4414C445.812 39.5703 445.777 39.6992 445.707 39.8281C445.648 39.957 445.566 40.0742 445.461 40.1797C445.367 40.2734 445.256 40.3555 445.127 40.4258C444.998 40.4844 444.863 40.5137 444.723 40.5137C444.43 40.5137 444.172 40.3906 443.949 40.1445C443.727 39.8984 443.498 39.6289 443.264 39.3359C443.029 39.0312 442.766 38.7559 442.473 38.5098C442.191 38.2637 441.84 38.1406 441.418 38.1406C440.984 38.1406 440.645 38.2637 440.398 38.5098C440.152 38.7559 439.965 39.084 439.836 39.4941C439.719 39.8926 439.643 40.3613 439.607 40.9004C439.584 41.4395 439.572 41.9961 439.572 42.5703V43.8711H442.719V44.8379H439.572V52.8008C439.572 53.4102 439.602 53.8965 439.66 54.2598C439.73 54.6113 439.865 54.8809 440.064 55.0684C440.264 55.2441 440.545 55.3613 440.908 55.4199C441.283 55.4668 441.775 55.4902 442.385 55.4902V56H435.072V55.4902C435.6 55.4902 436.016 55.4434 436.32 55.3496C436.625 55.2441 436.854 55.0859 437.006 54.875C437.17 54.6523 437.275 54.3711 437.322 54.0312C437.369 53.6914 437.393 53.2812 437.393 52.8008V44.8379H435.002V43.8711H437.393V43.0449C437.393 42.2715 437.498 41.5332 437.709 40.8301C437.92 40.1152 438.236 39.4883 438.658 38.9492C439.08 38.4102 439.607 37.9824 440.24 37.666C440.873 37.3379 441.611 37.1738 442.455 37.1738C442.748 37.1738 443.088 37.2266 443.475 37.332C443.873 37.4258 444.242 37.5723 444.582 37.7715C444.922 37.959 445.209 38.1934 445.443 38.4746C445.689 38.7559 445.812 39.0781 445.812 39.4414ZM445.268 60.5703H444.195L450.348 34.1152H451.455L445.268 60.5703ZM463.76 56H453.213V55.4902C453.764 54.9863 454.355 54.4355 454.988 53.8379C455.621 53.2402 456.248 52.6191 456.869 51.9746C457.502 51.3184 458.105 50.6445 458.68 49.9531C459.266 49.25 459.775 48.5469 460.209 47.8438C460.654 47.1289 461.006 46.4199 461.264 45.7168C461.533 45.002 461.668 44.2988 461.668 43.6074C461.668 43.0918 461.586 42.5996 461.422 42.1309C461.258 41.6504 461.023 41.2344 460.719 40.8828C460.414 40.5195 460.045 40.2324 459.611 40.0215C459.178 39.7988 458.686 39.6875 458.135 39.6875C457.104 39.6875 456.266 39.957 455.621 40.4961C454.988 41.0352 454.508 41.7734 454.18 42.7109H453.705C453.799 41.9961 453.969 41.3281 454.215 40.707C454.473 40.0859 454.812 39.5527 455.234 39.1074C455.656 38.6504 456.166 38.293 456.764 38.0352C457.361 37.7773 458.047 37.6484 458.82 37.6484C459.5 37.6484 460.145 37.7656 460.754 38C461.375 38.2227 461.92 38.5449 462.389 38.9668C462.857 39.377 463.232 39.875 463.514 40.4609C463.795 41.0352 463.936 41.6797 463.936 42.3945C463.936 43.0625 463.818 43.7305 463.584 44.3984C463.35 45.0547 463.045 45.6992 462.67 46.332C462.307 46.9531 461.896 47.5449 461.439 48.1074C460.982 48.6699 460.537 49.1855 460.104 49.6543C459.436 50.3809 458.768 51.1191 458.1 51.8691C457.432 52.6074 456.74 53.3105 456.025 53.9785H460.701C461.205 53.9785 461.645 53.9668 462.02 53.9434C462.395 53.9199 462.729 53.8613 463.021 53.7676C463.314 53.6738 463.584 53.5332 463.83 53.3457C464.076 53.1465 464.316 52.877 464.551 52.5371H465.061L463.76 56ZM473.639 54.8398C473.639 55.2852 473.486 55.6602 473.182 55.9648C472.889 56.2578 472.52 56.4043 472.074 56.4043C471.863 56.4043 471.664 56.3633 471.477 56.2812C471.301 56.1992 471.143 56.0879 471.002 55.9473C470.873 55.8066 470.768 55.6426 470.686 55.4551C470.604 55.2676 470.562 55.0625 470.562 54.8398C470.562 54.6289 470.604 54.4355 470.686 54.2598C470.768 54.0723 470.873 53.9141 471.002 53.7852C471.143 53.6445 471.301 53.5332 471.477 53.4512C471.664 53.3691 471.863 53.3281 472.074 53.3281C472.297 53.3281 472.502 53.3691 472.689 53.4512C472.877 53.5332 473.041 53.6445 473.182 53.7852C473.322 53.9141 473.434 54.0723 473.516 54.2598C473.598 54.4355 473.639 54.6289 473.639 54.8398ZM489.477 51.7461C489.477 52.5078 489.336 53.1758 489.055 53.75C488.773 54.3125 488.393 54.7871 487.912 55.1738C487.432 55.5488 486.875 55.8301 486.242 56.0176C485.609 56.2168 484.947 56.3164 484.256 56.3164C483.623 56.3164 482.996 56.2168 482.375 56.0176C481.754 55.8184 481.197 55.5312 480.705 55.1562C480.213 54.7695 479.814 54.3066 479.51 53.7676C479.217 53.2168 479.07 52.5957 479.07 51.9043C479.07 51.377 479.182 50.873 479.404 50.3926C479.639 49.9121 479.932 49.4668 480.283 49.0566C480.635 48.6348 481.021 48.2539 481.443 47.9141C481.865 47.5625 482.275 47.2461 482.674 46.9648C482.17 46.543 481.707 46.1445 481.285 45.7695C480.875 45.3828 480.518 44.9961 480.213 44.6094C479.92 44.2227 479.691 43.8125 479.527 43.3789C479.363 42.9453 479.281 42.459 479.281 41.9199C479.281 41.2402 479.422 40.6367 479.703 40.1094C479.984 39.5703 480.354 39.1191 480.811 38.7559C481.279 38.3926 481.812 38.1172 482.41 37.9297C483.008 37.7422 483.623 37.6484 484.256 37.6484C484.818 37.6484 485.387 37.7305 485.961 37.8945C486.535 38.0469 487.051 38.2871 487.508 38.6152C487.977 38.9434 488.357 39.3535 488.65 39.8457C488.943 40.3262 489.09 40.8887 489.09 41.5332C489.09 42.0605 488.967 42.5469 488.721 42.9922C488.486 43.4375 488.188 43.8477 487.824 44.2227C487.461 44.5859 487.062 44.9199 486.629 45.2246C486.195 45.5176 485.779 45.7871 485.381 46.0332C485.908 46.4434 486.418 46.8594 486.91 47.2812C487.402 47.7031 487.836 48.1426 488.211 48.5996C488.598 49.0566 488.902 49.5488 489.125 50.0762C489.359 50.5918 489.477 51.1484 489.477 51.7461ZM487.174 41.3926C487.174 39.4238 486.201 38.4395 484.256 38.4395C483.857 38.4395 483.477 38.498 483.113 38.6152C482.75 38.7207 482.428 38.8848 482.146 39.1074C481.865 39.3301 481.643 39.6055 481.479 39.9336C481.314 40.25 481.232 40.625 481.232 41.0586C481.232 41.5156 481.332 41.9434 481.531 42.3418C481.742 42.7402 482.012 43.1211 482.34 43.4844C482.68 43.8477 483.061 44.1992 483.482 44.5391C483.904 44.8789 484.332 45.207 484.766 45.5234C485.129 45.1836 485.457 44.8613 485.75 44.5566C486.055 44.252 486.312 43.9414 486.523 43.625C486.734 43.3086 486.893 42.9688 486.998 42.6055C487.115 42.2422 487.174 41.8379 487.174 41.3926ZM487.561 52.8359C487.561 52.3438 487.455 51.8809 487.244 51.4473C487.033 51.002 486.734 50.5625 486.348 50.1289C485.973 49.6953 485.521 49.2617 484.994 48.8281C484.479 48.3828 483.91 47.9199 483.289 47.4395C482.621 48.0137 482.094 48.6699 481.707 49.4082C481.32 50.1348 481.127 50.9492 481.127 51.8516C481.127 52.3555 481.197 52.8359 481.338 53.293C481.479 53.7383 481.684 54.1309 481.953 54.4707C482.234 54.7988 482.58 55.0625 482.99 55.2617C483.4 55.4609 483.881 55.5605 484.432 55.5605C484.854 55.5605 485.252 55.502 485.627 55.3848C486.002 55.2676 486.33 55.0977 486.611 54.875C486.904 54.6406 487.133 54.3535 487.297 54.0137C487.473 53.6738 487.561 53.2812 487.561 52.8359Z" fill="black"/>
<path d="M31.8125 235.441C31.8125 235.57 31.7773 235.699 31.707 235.828C31.6484 235.957 31.5664 236.074 31.4609 236.18C31.3672 236.273 31.2559 236.355 31.127 236.426C30.998 236.484 30.8633 236.514 30.7227 236.514C30.4297 236.514 30.1719 236.391 29.9492 236.145C29.7266 235.898 29.498 235.629 29.2637 235.336C29.0293 235.031 28.7656 234.756 28.4727 234.51C28.1914 234.264 27.8398 234.141 27.418 234.141C26.9844 234.141 26.6445 234.264 26.3984 234.51C26.1523 234.756 25.9648 235.084 25.8359 235.494C25.7188 235.893 25.6426 236.361 25.6074 236.9C25.584 237.439 25.5723 237.996 25.5723 238.57V239.871H28.7188V240.838H25.5723V248.801C25.5723 249.41 25.6016 249.896 25.6602 250.26C25.7305 250.611 25.8652 250.881 26.0645 251.068C26.2637 251.244 26.5449 251.361 26.9082 251.42C27.2832 251.467 27.7754 251.49 28.3848 251.49V252H21.0723V251.49C21.5996 251.49 22.0156 251.443 22.3203 251.35C22.625 251.244 22.8535 251.086 23.0059 250.875C23.1699 250.652 23.2754 250.371 23.3223 250.031C23.3691 249.691 23.3926 249.281 23.3926 248.801V240.838H21.002V239.871H23.3926V239.045C23.3926 238.271 23.498 237.533 23.709 236.83C23.9199 236.115 24.2363 235.488 24.6582 234.949C25.0801 234.41 25.6074 233.982 26.2402 233.666C26.873 233.338 27.6113 233.174 28.4551 233.174C28.748 233.174 29.0879 233.227 29.4746 233.332C29.873 233.426 30.2422 233.572 30.582 233.771C30.9219 233.959 31.209 234.193 31.4434 234.475C31.6895 234.756 31.8125 235.078 31.8125 235.441ZM31.2676 256.57H30.1953L36.3477 230.115H37.4551L31.2676 256.57ZM48.8281 247.254V252H46.6309V247.254H39.0371V245.584L47.3867 233.648H48.8281V245.373H51.2012V247.254H48.8281ZM46.6309 236.443L40.3203 245.373H46.6309V236.443ZM59.6387 250.84C59.6387 251.285 59.4863 251.66 59.1816 251.965C58.8887 252.258 58.5195 252.404 58.0742 252.404C57.8633 252.404 57.6641 252.363 57.4766 252.281C57.3008 252.199 57.1426 252.088 57.002 251.947C56.873 251.807 56.7676 251.643 56.6855 251.455C56.6035 251.268 56.5625 251.062 56.5625 250.84C56.5625 250.629 56.6035 250.436 56.6855 250.26C56.7676 250.072 56.873 249.914 57.002 249.785C57.1426 249.645 57.3008 249.533 57.4766 249.451C57.6641 249.369 57.8633 249.328 58.0742 249.328C58.2969 249.328 58.502 249.369 58.6895 249.451C58.877 249.533 59.041 249.645 59.1816 249.785C59.3223 249.914 59.4336 250.072 59.5156 250.26C59.5977 250.436 59.6387 250.629 59.6387 250.84ZM76.0566 242.859C76.0566 243.457 76.0156 244.107 75.9336 244.811C75.8516 245.502 75.7168 246.199 75.5293 246.902C75.3418 247.594 75.0957 248.268 74.791 248.924C74.498 249.58 74.1289 250.16 73.6836 250.664C73.25 251.156 72.7402 251.555 72.1543 251.859C71.5684 252.164 70.9004 252.316 70.1504 252.316C69.4473 252.316 68.8145 252.17 68.252 251.877C67.6895 251.572 67.1973 251.174 66.7754 250.682C66.3535 250.189 65.9902 249.627 65.6855 248.994C65.3926 248.35 65.1523 247.688 64.9648 247.008C64.7773 246.316 64.6367 245.637 64.543 244.969C64.4609 244.289 64.4199 243.668 64.4199 243.105C64.4199 242.531 64.4609 241.898 64.543 241.207C64.6367 240.516 64.7773 239.824 64.9648 239.133C65.1523 238.43 65.3984 237.75 65.7031 237.094C66.0078 236.426 66.377 235.84 66.8105 235.336C67.2441 234.82 67.748 234.41 68.3223 234.105C68.8965 233.801 69.5527 233.648 70.291 233.648C71.0176 233.648 71.6621 233.801 72.2246 234.105C72.7988 234.398 73.2969 234.791 73.7188 235.283C74.1523 235.764 74.5156 236.326 74.8086 236.971C75.1016 237.604 75.3418 238.266 75.5293 238.957C75.7168 239.637 75.8516 240.316 75.9336 240.996C76.0156 241.664 76.0566 242.285 76.0566 242.859ZM73.4551 242.42C73.4551 242.08 73.4434 241.646 73.4199 241.119C73.4082 240.592 73.3672 240.035 73.2969 239.449C73.2266 238.863 73.1211 238.277 72.9805 237.691C72.8516 237.105 72.6699 236.578 72.4355 236.109C72.2012 235.629 71.9023 235.242 71.5391 234.949C71.1875 234.656 70.7598 234.51 70.2559 234.51C69.7402 234.51 69.3008 234.686 68.9375 235.037C68.5859 235.377 68.2871 235.822 68.041 236.373C67.8066 236.924 67.6191 237.539 67.4785 238.219C67.3379 238.898 67.2324 239.572 67.1621 240.24C67.1035 240.896 67.0625 241.512 67.0391 242.086C67.0273 242.648 67.0215 243.1 67.0215 243.439C67.0215 243.779 67.0273 244.213 67.0391 244.74C67.0625 245.268 67.1094 245.83 67.1797 246.428C67.25 247.014 67.3496 247.611 67.4785 248.221C67.6191 248.818 67.8066 249.357 68.041 249.838C68.2871 250.318 68.5859 250.711 68.9375 251.016C69.2891 251.309 69.7168 251.455 70.2207 251.455C70.748 251.455 71.1934 251.285 71.5566 250.945C71.9316 250.594 72.2363 250.148 72.4707 249.609C72.7168 249.059 72.9043 248.443 73.0332 247.764C73.1621 247.084 73.2559 246.41 73.3145 245.742C73.3848 245.074 73.4258 244.447 73.4375 243.861C73.4492 243.275 73.4551 242.795 73.4551 242.42Z" fill="black"/>
<path d="M234.812 235.441C234.812 235.57 234.777 235.699 234.707 235.828C234.648 235.957 234.566 236.074 234.461 236.18C234.367 236.273 234.256 236.355 234.127 236.426C233.998 236.484 233.863 236.514 233.723 236.514C233.43 236.514 233.172 236.391 232.949 236.145C232.727 235.898 232.498 235.629 232.264 235.336C232.029 235.031 231.766 234.756 231.473 234.51C231.191 234.264 230.84 234.141 230.418 234.141C229.984 234.141 229.645 234.264 229.398 234.51C229.152 234.756 228.965 235.084 228.836 235.494C228.719 235.893 228.643 236.361 228.607 236.9C228.584 237.439 228.572 237.996 228.572 238.57V239.871H231.719V240.838H228.572V248.801C228.572 249.41 228.602 249.896 228.66 250.26C228.73 250.611 228.865 250.881 229.064 251.068C229.264 251.244 229.545 251.361 229.908 251.42C230.283 251.467 230.775 251.49 231.385 251.49V252H224.072V251.49C224.6 251.49 225.016 251.443 225.32 251.35C225.625 251.244 225.854 251.086 226.006 250.875C226.17 250.652 226.275 250.371 226.322 250.031C226.369 249.691 226.393 249.281 226.393 248.801V240.838H224.002V239.871H226.393V239.045C226.393 238.271 226.498 237.533 226.709 236.83C226.92 236.115 227.236 235.488 227.658 234.949C228.08 234.41 228.607 233.982 229.24 233.666C229.873 233.338 230.611 233.174 231.455 233.174C231.748 233.174 232.088 233.227 232.475 233.332C232.873 233.426 233.242 233.572 233.582 233.771C233.922 233.959 234.209 234.193 234.443 234.475C234.689 234.756 234.812 235.078 234.812 235.441ZM234.268 256.57H233.195L239.348 230.115H240.455L234.268 256.57ZM252.355 236.303H246.959L245.746 238.676C246.648 238.77 247.539 238.998 248.418 239.361C249.297 239.713 250.082 240.182 250.773 240.768C251.465 241.354 252.021 242.045 252.443 242.842C252.865 243.639 253.076 244.529 253.076 245.514C253.076 246.475 252.883 247.371 252.496 248.203C252.109 249.035 251.588 249.756 250.932 250.365C250.287 250.975 249.537 251.455 248.682 251.807C247.826 252.146 246.93 252.316 245.992 252.316C245.723 252.316 245.406 252.293 245.043 252.246C244.691 252.199 244.357 252.117 244.041 252C243.725 251.871 243.455 251.695 243.232 251.473C243.01 251.238 242.898 250.934 242.898 250.559C242.898 250.219 242.986 249.973 243.162 249.82C243.35 249.668 243.607 249.592 243.936 249.592C244.205 249.592 244.469 249.662 244.727 249.803C244.984 249.943 245.248 250.102 245.518 250.277C245.799 250.453 246.098 250.611 246.414 250.752C246.73 250.893 247.082 250.963 247.469 250.963C248.02 250.963 248.529 250.857 248.998 250.646C249.479 250.424 249.889 250.131 250.229 249.768C250.58 249.393 250.855 248.965 251.055 248.484C251.254 247.992 251.354 247.471 251.354 246.92C251.354 245.877 251.107 244.992 250.615 244.266C250.135 243.527 249.514 242.924 248.752 242.455C247.99 241.986 247.146 241.641 246.221 241.418C245.295 241.184 244.393 241.049 243.514 241.014L246.959 234.035H253.375L252.355 236.303ZM262.639 250.84C262.639 251.285 262.486 251.66 262.182 251.965C261.889 252.258 261.52 252.404 261.074 252.404C260.863 252.404 260.664 252.363 260.477 252.281C260.301 252.199 260.143 252.088 260.002 251.947C259.873 251.807 259.768 251.643 259.686 251.455C259.604 251.268 259.562 251.062 259.562 250.84C259.562 250.629 259.604 250.436 259.686 250.26C259.768 250.072 259.873 249.914 260.002 249.785C260.143 249.645 260.301 249.533 260.477 249.451C260.664 249.369 260.863 249.328 261.074 249.328C261.297 249.328 261.502 249.369 261.689 249.451C261.877 249.533 262.041 249.645 262.182 249.785C262.322 249.914 262.434 250.072 262.516 250.26C262.598 250.436 262.639 250.629 262.639 250.84ZM278.986 245.953C278.986 246.762 278.852 247.547 278.582 248.309C278.312 249.07 277.926 249.75 277.422 250.348C276.918 250.945 276.314 251.426 275.611 251.789C274.908 252.141 274.123 252.316 273.256 252.316C272.307 252.316 271.48 252.088 270.777 251.631C270.074 251.174 269.488 250.588 269.02 249.873C268.562 249.158 268.217 248.367 267.982 247.5C267.76 246.633 267.648 245.783 267.648 244.951C267.648 244.037 267.766 243.123 268 242.209C268.234 241.295 268.568 240.422 269.002 239.59C269.436 238.746 269.957 237.967 270.566 237.252C271.188 236.525 271.873 235.898 272.623 235.371C273.385 234.832 274.205 234.41 275.084 234.105C275.963 233.801 276.889 233.648 277.861 233.648H278.617V234.141C277.527 234.211 276.537 234.475 275.646 234.932C274.768 235.377 273.994 235.963 273.326 236.689C272.658 237.404 272.096 238.219 271.639 239.133C271.182 240.047 270.836 241.002 270.602 241.998C271.176 241.6 271.785 241.277 272.43 241.031C273.074 240.785 273.748 240.662 274.451 240.662C275.178 240.662 275.822 240.814 276.385 241.119C276.947 241.412 277.422 241.811 277.809 242.314C278.195 242.807 278.488 243.369 278.688 244.002C278.887 244.635 278.986 245.285 278.986 245.953ZM276.613 247.395C276.613 246.855 276.561 246.264 276.455 245.619C276.361 244.963 276.186 244.354 275.928 243.791C275.67 243.229 275.312 242.76 274.855 242.385C274.41 241.998 273.842 241.805 273.15 241.805C272.939 241.805 272.705 241.846 272.447 241.928C272.201 241.998 271.955 242.092 271.709 242.209C271.463 242.314 271.223 242.438 270.988 242.578C270.754 242.707 270.549 242.824 270.373 242.93C270.314 243.422 270.256 243.908 270.197 244.389C270.15 244.857 270.127 245.332 270.127 245.812C270.127 246.152 270.156 246.533 270.215 246.955C270.273 247.365 270.361 247.787 270.479 248.221C270.596 248.643 270.748 249.053 270.936 249.451C271.123 249.85 271.346 250.207 271.604 250.523C271.861 250.84 272.16 251.092 272.5 251.279C272.84 251.467 273.227 251.561 273.66 251.561C274.199 251.561 274.656 251.426 275.031 251.156C275.406 250.887 275.711 250.547 275.945 250.137C276.18 249.727 276.35 249.281 276.455 248.801C276.561 248.309 276.613 247.84 276.613 247.395Z" fill="black"/>
<path d="M437.812 235.441C437.812 235.57 437.777 235.699 437.707 235.828C437.648 235.957 437.566 236.074 437.461 236.18C437.367 236.273 437.256 236.355 437.127 236.426C436.998 236.484 436.863 236.514 436.723 236.514C436.43 236.514 436.172 236.391 435.949 236.145C435.727 235.898 435.498 235.629 435.264 235.336C435.029 235.031 434.766 234.756 434.473 234.51C434.191 234.264 433.84 234.141 433.418 234.141C432.984 234.141 432.645 234.264 432.398 234.51C432.152 234.756 431.965 235.084 431.836 235.494C431.719 235.893 431.643 236.361 431.607 236.9C431.584 237.439 431.572 237.996 431.572 238.57V239.871H434.719V240.838H431.572V248.801C431.572 249.41 431.602 249.896 431.66 250.26C431.73 250.611 431.865 250.881 432.064 251.068C432.264 251.244 432.545 251.361 432.908 251.42C433.283 251.467 433.775 251.49 434.385 251.49V252H427.072V251.49C427.6 251.49 428.016 251.443 428.32 251.35C428.625 251.244 428.854 251.086 429.006 250.875C429.17 250.652 429.275 250.371 429.322 250.031C429.369 249.691 429.393 249.281 429.393 248.801V240.838H427.002V239.871H429.393V239.045C429.393 238.271 429.498 237.533 429.709 236.83C429.92 236.115 430.236 235.488 430.658 234.949C431.08 234.41 431.607 233.982 432.24 233.666C432.873 233.338 433.611 233.174 434.455 233.174C434.748 233.174 435.088 233.227 435.475 233.332C435.873 233.426 436.242 233.572 436.582 233.771C436.922 233.959 437.209 234.193 437.443 234.475C437.689 234.756 437.812 235.078 437.812 235.441ZM437.268 256.57H436.195L442.348 230.115H443.455L437.268 256.57ZM456.621 247.746C456.621 248.508 456.48 249.176 456.199 249.75C455.918 250.312 455.537 250.787 455.057 251.174C454.576 251.549 454.02 251.83 453.387 252.018C452.754 252.217 452.092 252.316 451.4 252.316C450.768 252.316 450.141 252.217 449.52 252.018C448.898 251.818 448.342 251.531 447.85 251.156C447.357 250.77 446.959 250.307 446.654 249.768C446.361 249.217 446.215 248.596 446.215 247.904C446.215 247.377 446.326 246.873 446.549 246.393C446.783 245.912 447.076 245.467 447.428 245.057C447.779 244.635 448.166 244.254 448.588 243.914C449.01 243.562 449.42 243.246 449.818 242.965C449.314 242.543 448.852 242.145 448.43 241.77C448.02 241.383 447.662 240.996 447.357 240.609C447.064 240.223 446.836 239.812 446.672 239.379C446.508 238.945 446.426 238.459 446.426 237.92C446.426 237.24 446.566 236.637 446.848 236.109C447.129 235.57 447.498 235.119 447.955 234.756C448.424 234.393 448.957 234.117 449.555 233.93C450.152 233.742 450.768 233.648 451.4 233.648C451.963 233.648 452.531 233.73 453.105 233.895C453.68 234.047 454.195 234.287 454.652 234.615C455.121 234.943 455.502 235.354 455.795 235.846C456.088 236.326 456.234 236.889 456.234 237.533C456.234 238.061 456.111 238.547 455.865 238.992C455.631 239.438 455.332 239.848 454.969 240.223C454.605 240.586 454.207 240.92 453.773 241.225C453.34 241.518 452.924 241.787 452.525 242.033C453.053 242.443 453.562 242.859 454.055 243.281C454.547 243.703 454.98 244.143 455.355 244.6C455.742 245.057 456.047 245.549 456.27 246.076C456.504 246.592 456.621 247.148 456.621 247.746ZM454.318 237.393C454.318 235.424 453.346 234.439 451.4 234.439C451.002 234.439 450.621 234.498 450.258 234.615C449.895 234.721 449.572 234.885 449.291 235.107C449.01 235.33 448.787 235.605 448.623 235.934C448.459 236.25 448.377 236.625 448.377 237.059C448.377 237.516 448.477 237.943 448.676 238.342C448.887 238.74 449.156 239.121 449.484 239.484C449.824 239.848 450.205 240.199 450.627 240.539C451.049 240.879 451.477 241.207 451.91 241.523C452.273 241.184 452.602 240.861 452.895 240.557C453.199 240.252 453.457 239.941 453.668 239.625C453.879 239.309 454.037 238.969 454.143 238.605C454.26 238.242 454.318 237.838 454.318 237.393ZM454.705 248.836C454.705 248.344 454.6 247.881 454.389 247.447C454.178 247.002 453.879 246.562 453.492 246.129C453.117 245.695 452.666 245.262 452.139 244.828C451.623 244.383 451.055 243.92 450.434 243.439C449.766 244.014 449.238 244.67 448.852 245.408C448.465 246.135 448.271 246.949 448.271 247.852C448.271 248.355 448.342 248.836 448.482 249.293C448.623 249.738 448.828 250.131 449.098 250.471C449.379 250.799 449.725 251.062 450.135 251.262C450.545 251.461 451.025 251.561 451.576 251.561C451.998 251.561 452.396 251.502 452.771 251.385C453.146 251.268 453.475 251.098 453.756 250.875C454.049 250.641 454.277 250.354 454.441 250.014C454.617 249.674 454.705 249.281 454.705 248.836ZM465.639 250.84C465.639 251.285 465.486 251.66 465.182 251.965C464.889 252.258 464.52 252.404 464.074 252.404C463.863 252.404 463.664 252.363 463.477 252.281C463.301 252.199 463.143 252.088 463.002 251.947C462.873 251.807 462.768 251.643 462.686 251.455C462.604 251.268 462.562 251.062 462.562 250.84C462.562 250.629 462.604 250.436 462.686 250.26C462.768 250.072 462.873 249.914 463.002 249.785C463.143 249.645 463.301 249.533 463.477 249.451C463.664 249.369 463.863 249.328 464.074 249.328C464.297 249.328 464.502 249.369 464.689 249.451C464.877 249.533 465.041 249.645 465.182 249.785C465.322 249.914 465.434 250.072 465.516 250.26C465.598 250.436 465.639 250.629 465.639 250.84ZM482.057 242.859C482.057 243.457 482.016 244.107 481.934 244.811C481.852 245.502 481.717 246.199 481.529 246.902C481.342 247.594 481.096 248.268 480.791 248.924C480.498 249.58 480.129 250.16 479.684 250.664C479.25 251.156 478.74 251.555 478.154 251.859C477.568 252.164 476.9 252.316 476.15 252.316C475.447 252.316 474.814 252.17 474.252 251.877C473.689 251.572 473.197 251.174 472.775 250.682C472.354 250.189 471.99 249.627 471.686 248.994C471.393 248.35 471.152 247.688 470.965 247.008C470.777 246.316 470.637 245.637 470.543 244.969C470.461 244.289 470.42 243.668 470.42 243.105C470.42 242.531 470.461 241.898 470.543 241.207C470.637 240.516 470.777 239.824 470.965 239.133C471.152 238.43 471.398 237.75 471.703 237.094C472.008 236.426 472.377 235.84 472.811 235.336C473.244 234.82 473.748 234.41 474.322 234.105C474.896 233.801 475.553 233.648 476.291 233.648C477.018 233.648 477.662 233.801 478.225 234.105C478.799 234.398 479.297 234.791 479.719 235.283C480.152 235.764 480.516 236.326 480.809 236.971C481.102 237.604 481.342 238.266 481.529 238.957C481.717 239.637 481.852 240.316 481.934 240.996C482.016 241.664 482.057 242.285 482.057 242.859ZM479.455 242.42C479.455 242.08 479.443 241.646 479.42 241.119C479.408 240.592 479.367 240.035 479.297 239.449C479.227 238.863 479.121 238.277 478.98 237.691C478.852 237.105 478.67 236.578 478.436 236.109C478.201 235.629 477.902 235.242 477.539 234.949C477.188 234.656 476.76 234.51 476.256 234.51C475.74 234.51 475.301 234.686 474.938 235.037C474.586 235.377 474.287 235.822 474.041 236.373C473.807 236.924 473.619 237.539 473.479 238.219C473.338 238.898 473.232 239.572 473.162 240.24C473.104 240.896 473.062 241.512 473.039 242.086C473.027 242.648 473.021 243.1 473.021 243.439C473.021 243.779 473.027 244.213 473.039 244.74C473.062 245.268 473.109 245.83 473.18 246.428C473.25 247.014 473.35 247.611 473.479 248.221C473.619 248.818 473.807 249.357 474.041 249.838C474.287 250.318 474.586 250.711 474.938 251.016C475.289 251.309 475.717 251.455 476.221 251.455C476.748 251.455 477.193 251.285 477.557 250.945C477.932 250.594 478.236 250.148 478.471 249.609C478.717 249.059 478.904 248.443 479.033 247.764C479.162 247.084 479.256 246.41 479.314 245.742C479.385 245.074 479.426 244.447 479.438 243.861C479.449 243.275 479.455 242.795 479.455 242.42Z" fill="black"/>
<mask id="path-9-inside-2_3:62" fill="white">
<path fill-rule="evenodd" clip-rule="evenodd" d="M328 222C376.049 222 415 183.049 415 135C415 86.9512 376.049 48 328 48C279.951 48 241 86.9512 241 135C241 183.049 279.951 222 328 222ZM327.5 192C357.6 192 382 167.6 382 137.5C382 107.4 357.6 83 327.5 83C297.4 83 273 107.4 273 137.5C273 167.6 297.4 192 327.5 192Z"/>
</mask>
<path fill-rule="evenodd" clip-rule="evenodd" d="M328 222C376.049 222 415 183.049 415 135C415 86.9512 376.049 48 328 48C279.951 48 241 86.9512 241 135C241 183.049 279.951 222 328 222ZM327.5 192C357.6 192 382 167.6 382 137.5C382 107.4 357.6 83 327.5 83C297.4 83 273 107.4 273 137.5C273 167.6 297.4 192 327.5 192Z" fill="#484848"/>
<path d="M412 135C412 181.392 374.392 219 328 219V225C377.706 225 418 184.706 418 135H412ZM328 51C374.392 51 412 88.6081 412 135H418C418 85.2944 377.706 45 328 45V51ZM244 135C244 88.6081 281.608 51 328 51V45C278.294 45 238 85.2944 238 135H244ZM328 219C281.608 219 244 181.392 244 135H238C238 184.706 278.294 225 328 225V219ZM379 137.5C379 165.943 355.943 189 327.5 189V195C359.256 195 385 169.256 385 137.5H379ZM327.5 86C355.943 86 379 109.057 379 137.5H385C385 105.744 359.256 80 327.5 80V86ZM276 137.5C276 109.057 299.057 86 327.5 86V80C295.744 80 270 105.744 270 137.5H276ZM327.5 189C299.057 189 276 165.943 276 137.5H270C270 169.256 295.744 195 327.5 195V189Z" fill="black" mask="url(#path-9-inside-2_3:62)"/>
<mask id="path-11-inside-3_3:62" fill="white">
<path fill-rule="evenodd" clip-rule="evenodd" d="M535 222C583.049 222 622 183.049 622 135C622 86.9512 583.049 48 535 48C486.951 48 448 86.9512 448 135C448 183.049 486.951 222 535 222ZM535 178C558.748 178 578 158.748 578 135C578 111.252 558.748 92 535 92C511.252 92 492 111.252 492 135C492 158.748 511.252 178 535 178Z"/>
</mask>
<path fill-rule="evenodd" clip-rule="evenodd" d="M535 222C583.049 222 622 183.049 622 135C622 86.9512 583.049 48 535 48C486.951 48 448 86.9512 448 135C448 183.049 486.951 222 535 222ZM535 178C558.748 178 578 158.748 578 135C578 111.252 558.748 92 535 92C511.252 92 492 111.252 492 135C492 158.748 511.252 178 535 178Z" fill="#484848"/>
<path d="M619 135C619 181.392 581.392 219 535 219V225C584.706 225 625 184.706 625 135H619ZM535 51C581.392 51 619 88.6081 619 135H625C625 85.2944 584.706 45 535 45V51ZM451 135C451 88.6081 488.608 51 535 51V45C485.294 45 445 85.2944 445 135H451ZM535 219C488.608 219 451 181.392 451 135H445C445 184.706 485.294 225 535 225V219ZM575 135C575 157.091 557.091 175 535 175V181C560.405 181 581 160.405 581 135H575ZM535 95C557.091 95 575 112.909 575 135H581C581 109.595 560.405 89 535 89V95ZM495 135C495 112.909 512.909 95 535 95V89C509.595 89 489 109.595 489 135H495ZM535 175C512.909 175 495 157.091 495 135H489C489 160.405 509.595 181 535 181V175Z" fill="black" mask="url(#path-11-inside-3_3:62)"/>
<mask id="path-13-inside-4_3:62" fill="white">
<path fill-rule="evenodd" clip-rule="evenodd" d="M121 418C169.049 418 208 379.049 208 331C208 282.951 169.049 244 121 244C72.9512 244 34 282.951 34 331C34 379.049 72.9512 418 121 418ZM121 365C139.778 365 155 349.778 155 331C155 312.222 139.778 297 121 297C102.222 297 87 312.222 87 331C87 349.778 102.222 365 121 365Z"/>
</mask>
<path fill-rule="evenodd" clip-rule="evenodd" d="M121 418C169.049 418 208 379.049 208 331C208 282.951 169.049 244 121 244C72.9512 244 34 282.951 34 331C34 379.049 72.9512 418 121 418ZM121 365C139.778 365 155 349.778 155 331C155 312.222 139.778 297 121 297C102.222 297 87 312.222 87 331C87 349.778 102.222 365 121 365Z" fill="#484848"/>
<path d="M205 331C205 377.392 167.392 415 121 415V421C170.706 421 211 380.706 211 331H205ZM121 247C167.392 247 205 284.608 205 331H211C211 281.294 170.706 241 121 241V247ZM37 331C37 284.608 74.6081 247 121 247V241C71.2944 241 31 281.294 31 331H37ZM121 415C74.6081 415 37 377.392 37 331H31C31 380.706 71.2944 421 121 421V415ZM152 331C152 348.121 138.121 362 121 362V368C141.435 368 158 351.435 158 331H152ZM121 300C138.121 300 152 313.879 152 331H158C158 310.565 141.435 294 121 294V300ZM90 331C90 313.879 103.879 300 121 300V294C100.565 294 84 310.565 84 331H90ZM121 362C103.879 362 90 348.121 90 331H84C84 351.435 100.565 368 121 368V362Z" fill="black" mask="url(#path-13-inside-4_3:62)"/>
<mask id="path-15-inside-5_3:62" fill="white">
<path fill-rule="evenodd" clip-rule="evenodd" d="M328 418C376.049 418 415 379.049 415 331C415 282.951 376.049 244 328 244C279.951 244 241 282.951 241 331C241 379.049 279.951 418 328 418ZM327.5 357C341.583 357 353 345.583 353 331.5C353 317.417 341.583 306 327.5 306C313.417 306 302 317.417 302 331.5C302 345.583 313.417 357 327.5 357Z"/>
</mask>
<path fill-rule="evenodd" clip-rule="evenodd" d="M328 418C376.049 418 415 379.049 415 331C415 282.951 376.049 244 328 244C279.951 244 241 282.951 241 331C241 379.049 279.951 418 328 418ZM327.5 357C341.583 357 353 345.583 353 331.5C353 317.417 341.583 306 327.5 306C313.417 306 302 317.417 302 331.5C302 345.583 313.417 357 327.5 357Z" fill="#484848"/>
<path d="M412 331C412 377.392 374.392 415 328 415V421C377.706 421 418 380.706 418 331H412ZM328 247C374.392 247 412 284.608 412 331H418C418 281.294 377.706 241 328 241V247ZM244 331C244 284.608 281.608 247 328 247V241C278.294 241 238 281.294 238 331H244ZM328 415C281.608 415 244 377.392 244 331H238C238 380.706 278.294 421 328 421V415ZM350 331.5C350 343.926 339.926 354 327.5 354V360C343.24 360 356 347.24 356 331.5H350ZM327.5 309C339.926 309 350 319.074 350 331.5H356C356 315.76 343.24 303 327.5 303V309ZM305 331.5C305 319.074 315.074 309 327.5 309V303C311.76 303 299 315.76 299 331.5H305ZM327.5 354C315.074 354 305 343.926 305 331.5H299C299 347.24 311.76 360 327.5 360V354Z" fill="black" mask="url(#path-15-inside-5_3:62)"/>
<mask id="path-17-inside-6_3:62" fill="white">
<path fill-rule="evenodd" clip-rule="evenodd" d="M535 418C583.049 418 622 379.049 622 331C622 282.951 583.049 244 535 244C486.951 244 448 282.951 448 331C448 379.049 486.951 418 535 418ZM534.5 351C545.27 351 554 342.27 554 331.5C554 320.73 545.27 312 534.5 312C523.73 312 515 320.73 515 331.5C515 342.27 523.73 351 534.5 351Z"/>
</mask>
<path fill-rule="evenodd" clip-rule="evenodd" d="M535 418C583.049 418 622 379.049 622 331C622 282.951 583.049 244 535 244C486.951 244 448 282.951 448 331C448 379.049 486.951 418 535 418ZM534.5 351C545.27 351 554 342.27 554 331.5C554 320.73 545.27 312 534.5 312C523.73 312 515 320.73 515 331.5C515 342.27 523.73 351 534.5 351Z" fill="#484848"/>
<path d="M619 331C619 377.392 581.392 415 535 415V421C584.706 421 625 380.706 625 331H619ZM535 247C581.392 247 619 284.608 619 331H625C625 281.294 584.706 241 535 241V247ZM451 331C451 284.608 488.608 247 535 247V241C485.294 241 445 281.294 445 331H451ZM535 415C488.608 415 451 377.392 451 331H445C445 380.706 485.294 421 535 421V415ZM551 331.5C551 340.613 543.613 348 534.5 348V354C546.926 354 557 343.926 557 331.5H551ZM534.5 315C543.613 315 551 322.387 551 331.5H557C557 319.074 546.926 309 534.5 309V315ZM518 331.5C518 322.387 525.387 315 534.5 315V309C522.074 309 512 319.074 512 331.5H518ZM534.5 348C525.387 348 518 340.613 518 331.5H512C512 343.926 522.074 354 534.5 354V348Z" fill="black" mask="url(#path-17-inside-6_3:62)"/>
</svg>
