<svg width="1131" height="630" viewBox="0 0 1131 630" fill="none" xmlns="http://www.w3.org/2000/svg">
<circle cx="355" cy="87" r="85.5" fill="#727070" stroke="black" stroke-width="3"/>
<circle cx="555" cy="87" r="85.5" stroke="black" stroke-width="3"/>
<circle cx="755" cy="413" r="85.5" stroke="black" stroke-width="3"/>
<circle cx="755" cy="87" r="85.5" fill="#727070" stroke="black" stroke-width="3"/>
<path d="M1065.87 227.375V231.98H1069.42V234.494H1065.87V246.289C1065.87 247.051 1066.03 247.625 1066.35 248.012C1066.66 248.387 1067.2 248.574 1067.96 248.574C1068.34 248.574 1068.86 248.504 1069.51 248.363V251C1068.66 251.234 1067.82 251.352 1067.02 251.352C1065.56 251.352 1064.47 250.912 1063.73 250.033C1062.99 249.154 1062.62 247.906 1062.62 246.289V234.494H1059.16V231.98H1062.62V227.375H1065.87ZM1076.77 251H1073.52V231.98H1076.77V251ZM1073.26 226.936C1073.26 226.408 1073.41 225.963 1073.73 225.6C1074.06 225.236 1074.54 225.055 1075.17 225.055C1075.8 225.055 1076.29 225.236 1076.61 225.6C1076.94 225.963 1077.11 226.408 1077.11 226.936C1077.11 227.463 1076.94 227.902 1076.61 228.254C1076.29 228.605 1075.8 228.781 1075.17 228.781C1074.54 228.781 1074.06 228.605 1073.73 228.254C1073.41 227.902 1073.26 227.463 1073.26 226.936ZM1085.05 231.98L1085.14 234.09C1086.53 232.449 1088.41 231.629 1090.78 231.629C1093.44 231.629 1095.25 232.648 1096.21 234.688C1096.85 233.773 1097.67 233.035 1098.67 232.473C1099.69 231.91 1100.89 231.629 1102.28 231.629C1106.45 231.629 1108.57 233.838 1108.64 238.256V251H1105.39V238.449C1105.39 237.09 1105.08 236.076 1104.46 235.408C1103.84 234.729 1102.79 234.389 1101.33 234.389C1100.12 234.389 1099.12 234.752 1098.32 235.479C1097.53 236.193 1097.06 237.16 1096.93 238.379V251H1093.66V238.537C1093.66 235.771 1092.31 234.389 1089.6 234.389C1087.47 234.389 1086.01 235.297 1085.23 237.113V251H1081.97V231.98H1085.05ZM1121.46 251.352C1118.88 251.352 1116.78 250.508 1115.16 248.82C1113.54 247.121 1112.74 244.854 1112.74 242.018V241.42C1112.74 239.533 1113.09 237.852 1113.81 236.375C1114.54 234.887 1115.54 233.727 1116.83 232.895C1118.13 232.051 1119.54 231.629 1121.05 231.629C1123.52 231.629 1125.45 232.443 1126.82 234.072C1128.19 235.701 1128.87 238.033 1128.87 241.068V242.422H1115.99C1116.04 244.297 1116.58 245.814 1117.62 246.975C1118.68 248.123 1120.01 248.697 1121.63 248.697C1122.78 248.697 1123.75 248.463 1124.55 247.994C1125.35 247.525 1126.04 246.904 1126.64 246.131L1128.63 247.678C1127.03 250.127 1124.64 251.352 1121.46 251.352ZM1121.05 234.301C1119.74 234.301 1118.64 234.781 1117.75 235.742C1116.86 236.691 1116.3 238.027 1116.09 239.75H1125.62V239.504C1125.53 237.852 1125.08 236.574 1124.29 235.672C1123.49 234.758 1122.41 234.301 1121.05 234.301Z" fill="black"/>
<path d="M1096.06 205.061C1096.65 204.475 1096.65 203.525 1096.06 202.939L1086.51 193.393C1085.93 192.808 1084.98 192.808 1084.39 193.393C1083.81 193.979 1083.81 194.929 1084.39 195.515L1092.88 204L1084.39 212.485C1083.81 213.071 1083.81 214.021 1084.39 214.607C1084.98 215.192 1085.93 215.192 1086.51 214.607L1096.06 205.061ZM268 205.5H1095V202.5H268V205.5Z" fill="black"/>
<circle cx="355" cy="413" r="85.5" fill="#727070" stroke="black" stroke-width="3"/>
<circle cx="555" cy="413" r="85.5" stroke="black" stroke-width="3"/>
<circle cx="955" cy="413" r="85.5" fill="#727070" stroke="black" stroke-width="3"/>
<path d="M1065.87 553.375V557.98H1069.42V560.494H1065.87V572.289C1065.87 573.051 1066.03 573.625 1066.35 574.012C1066.66 574.387 1067.2 574.574 1067.96 574.574C1068.34 574.574 1068.86 574.504 1069.51 574.363V577C1068.66 577.234 1067.82 577.352 1067.02 577.352C1065.56 577.352 1064.47 576.912 1063.73 576.033C1062.99 575.154 1062.62 573.906 1062.62 572.289V560.494H1059.16V557.98H1062.62V553.375H1065.87ZM1076.77 577H1073.52V557.98H1076.77V577ZM1073.26 552.936C1073.26 552.408 1073.41 551.963 1073.73 551.6C1074.06 551.236 1074.54 551.055 1075.17 551.055C1075.8 551.055 1076.29 551.236 1076.61 551.6C1076.94 551.963 1077.11 552.408 1077.11 552.936C1077.11 553.463 1076.94 553.902 1076.61 554.254C1076.29 554.605 1075.8 554.781 1075.17 554.781C1074.54 554.781 1074.06 554.605 1073.73 554.254C1073.41 553.902 1073.26 553.463 1073.26 552.936ZM1085.05 557.98L1085.14 560.09C1086.53 558.449 1088.41 557.629 1090.78 557.629C1093.44 557.629 1095.25 558.648 1096.21 560.688C1096.85 559.773 1097.67 559.035 1098.67 558.473C1099.69 557.91 1100.89 557.629 1102.28 557.629C1106.45 557.629 1108.57 559.838 1108.64 564.256V577H1105.39V564.449C1105.39 563.09 1105.08 562.076 1104.46 561.408C1103.84 560.729 1102.79 560.389 1101.33 560.389C1100.12 560.389 1099.12 560.752 1098.32 561.479C1097.53 562.193 1097.06 563.16 1096.93 564.379V577H1093.66V564.537C1093.66 561.771 1092.31 560.389 1089.6 560.389C1087.47 560.389 1086.01 561.297 1085.23 563.113V577H1081.97V557.98H1085.05ZM1121.46 577.352C1118.88 577.352 1116.78 576.508 1115.16 574.82C1113.54 573.121 1112.74 570.854 1112.74 568.018V567.42C1112.74 565.533 1113.09 563.852 1113.81 562.375C1114.54 560.887 1115.54 559.727 1116.83 558.895C1118.13 558.051 1119.54 557.629 1121.05 557.629C1123.52 557.629 1125.45 558.443 1126.82 560.072C1128.19 561.701 1128.87 564.033 1128.87 567.068V568.422H1115.99C1116.04 570.297 1116.58 571.814 1117.62 572.975C1118.68 574.123 1120.01 574.697 1121.63 574.697C1122.78 574.697 1123.75 574.463 1124.55 573.994C1125.35 573.525 1126.04 572.904 1126.64 572.131L1128.63 573.678C1127.03 576.127 1124.64 577.352 1121.46 577.352ZM1121.05 560.301C1119.74 560.301 1118.64 560.781 1117.75 561.742C1116.86 562.691 1116.3 564.027 1116.09 565.75H1125.62V565.504C1125.53 563.852 1125.08 562.574 1124.29 561.672C1123.49 560.758 1122.41 560.301 1121.05 560.301Z" fill="black"/>
<path d="M1096.06 531.061C1096.65 530.475 1096.65 529.525 1096.06 528.939L1086.51 519.393C1085.93 518.808 1084.98 518.808 1084.39 519.393C1083.81 519.979 1083.81 520.929 1084.39 521.515L1092.88 530L1084.39 538.485C1083.81 539.071 1083.81 540.021 1084.39 540.607C1084.98 541.192 1085.93 541.192 1086.51 540.607L1096.06 531.061ZM268 531.5H1095V528.5H268V531.5Z" fill="black"/>
<path d="M278.512 239.592C275.617 238.76 273.508 237.74 272.184 236.533C270.871 235.314 270.215 233.814 270.215 232.033C270.215 230.018 271.018 228.354 272.623 227.041C274.24 225.717 276.338 225.055 278.916 225.055C280.674 225.055 282.238 225.395 283.609 226.074C284.992 226.754 286.059 227.691 286.809 228.887C287.57 230.082 287.951 231.389 287.951 232.807H284.559C284.559 231.26 284.066 230.047 283.082 229.168C282.098 228.277 280.709 227.832 278.916 227.832C277.252 227.832 275.951 228.201 275.014 228.939C274.088 229.666 273.625 230.68 273.625 231.98C273.625 233.023 274.064 233.908 274.943 234.635C275.834 235.35 277.34 236.006 279.461 236.604C281.594 237.201 283.258 237.863 284.453 238.59C285.66 239.305 286.551 240.143 287.125 241.104C287.711 242.064 288.004 243.195 288.004 244.496C288.004 246.57 287.195 248.234 285.578 249.488C283.961 250.73 281.799 251.352 279.092 251.352C277.334 251.352 275.693 251.018 274.17 250.35C272.646 249.67 271.469 248.744 270.637 247.572C269.816 246.4 269.406 245.07 269.406 243.582H272.799C272.799 245.129 273.367 246.354 274.504 247.256C275.652 248.146 277.182 248.592 279.092 248.592C280.873 248.592 282.238 248.229 283.188 247.502C284.137 246.775 284.611 245.785 284.611 244.531C284.611 243.277 284.172 242.311 283.293 241.631C282.414 240.939 280.82 240.26 278.512 239.592ZM295.088 234.283C296.529 232.514 298.404 231.629 300.713 231.629C304.732 231.629 306.76 233.896 306.795 238.432V251H303.543V238.414C303.531 237.043 303.215 236.029 302.594 235.373C301.984 234.717 301.029 234.389 299.729 234.389C298.674 234.389 297.748 234.67 296.951 235.232C296.154 235.795 295.533 236.533 295.088 237.447V251H291.836V224H295.088V234.283ZM323.406 249.119C322.141 250.607 320.283 251.352 317.834 251.352C315.807 251.352 314.26 250.766 313.193 249.594C312.139 248.41 311.605 246.664 311.594 244.355V231.98H314.846V244.268C314.846 247.15 316.018 248.592 318.361 248.592C320.846 248.592 322.498 247.666 323.318 245.814V231.98H326.57V251H323.477L323.406 249.119ZM335.939 227.375V231.98H339.49V234.494H335.939V246.289C335.939 247.051 336.098 247.625 336.414 248.012C336.73 248.387 337.27 248.574 338.031 248.574C338.406 248.574 338.922 248.504 339.578 248.363V251C338.723 251.234 337.891 251.352 337.082 251.352C335.629 251.352 334.533 250.912 333.795 250.033C333.057 249.154 332.688 247.906 332.688 246.289V234.494H329.225V231.98H332.688V227.375H335.939ZM347.717 227.375V231.98H351.268V234.494H347.717V246.289C347.717 247.051 347.875 247.625 348.191 248.012C348.508 248.387 349.047 248.574 349.809 248.574C350.184 248.574 350.699 248.504 351.355 248.363V251C350.5 251.234 349.668 251.352 348.859 251.352C347.406 251.352 346.311 250.912 345.572 250.033C344.834 249.154 344.465 247.906 344.465 246.289V234.494H341.002V231.98H344.465V227.375H347.717ZM362.975 251.352C360.396 251.352 358.299 250.508 356.682 248.82C355.064 247.121 354.256 244.854 354.256 242.018V241.42C354.256 239.533 354.613 237.852 355.328 236.375C356.055 234.887 357.062 233.727 358.352 232.895C359.652 232.051 361.059 231.629 362.57 231.629C365.043 231.629 366.965 232.443 368.336 234.072C369.707 235.701 370.393 238.033 370.393 241.068V242.422H357.508C357.555 244.297 358.1 245.814 359.143 246.975C360.197 248.123 361.533 248.697 363.15 248.697C364.299 248.697 365.271 248.463 366.068 247.994C366.865 247.525 367.562 246.904 368.16 246.131L370.146 247.678C368.553 250.127 366.162 251.352 362.975 251.352ZM362.57 234.301C361.258 234.301 360.156 234.781 359.266 235.742C358.375 236.691 357.824 238.027 357.613 239.75H367.141V239.504C367.047 237.852 366.602 236.574 365.805 235.672C365.008 234.758 363.93 234.301 362.57 234.301ZM383.365 234.898C382.873 234.816 382.34 234.775 381.766 234.775C379.633 234.775 378.186 235.684 377.424 237.5V251H374.172V231.98H377.336L377.389 234.178C378.455 232.479 379.967 231.629 381.924 231.629C382.557 231.629 383.037 231.711 383.365 231.875V234.898ZM406.375 245.955C406.375 245.076 406.041 244.396 405.373 243.916C404.717 243.424 403.562 243.002 401.91 242.65C400.27 242.299 398.963 241.877 397.99 241.385C397.029 240.893 396.314 240.307 395.846 239.627C395.389 238.947 395.16 238.139 395.16 237.201C395.16 235.643 395.816 234.324 397.129 233.246C398.453 232.168 400.141 231.629 402.191 231.629C404.348 231.629 406.094 232.186 407.43 233.299C408.777 234.412 409.451 235.836 409.451 237.57H406.182C406.182 236.68 405.801 235.912 405.039 235.268C404.289 234.623 403.34 234.301 402.191 234.301C401.008 234.301 400.082 234.559 399.414 235.074C398.746 235.59 398.412 236.264 398.412 237.096C398.412 237.881 398.723 238.473 399.344 238.871C399.965 239.27 401.084 239.65 402.701 240.014C404.33 240.377 405.648 240.811 406.656 241.314C407.664 241.818 408.408 242.428 408.889 243.143C409.381 243.846 409.627 244.707 409.627 245.727C409.627 247.426 408.947 248.791 407.588 249.822C406.229 250.842 404.465 251.352 402.297 251.352C400.773 251.352 399.426 251.082 398.254 250.543C397.082 250.004 396.162 249.254 395.494 248.293C394.838 247.32 394.51 246.271 394.51 245.146H397.762C397.82 246.236 398.254 247.104 399.062 247.748C399.883 248.381 400.961 248.697 402.297 248.697C403.527 248.697 404.512 248.451 405.25 247.959C406 247.455 406.375 246.787 406.375 245.955ZM429.93 241.701C429.93 244.596 429.268 246.928 427.943 248.697C426.619 250.467 424.826 251.352 422.564 251.352C420.256 251.352 418.439 250.619 417.115 249.154V258.312H413.863V231.98H416.834L416.992 234.09C418.316 232.449 420.156 231.629 422.512 231.629C424.797 231.629 426.602 232.49 427.926 234.213C429.262 235.936 429.93 238.332 429.93 241.402V241.701ZM426.678 241.332C426.678 239.188 426.221 237.494 425.307 236.252C424.393 235.01 423.139 234.389 421.545 234.389C419.576 234.389 418.1 235.262 417.115 237.008V246.096C418.088 247.83 419.576 248.697 421.58 248.697C423.139 248.697 424.375 248.082 425.289 246.852C426.215 245.609 426.678 243.77 426.678 241.332ZM441.971 251.352C439.393 251.352 437.295 250.508 435.678 248.82C434.061 247.121 433.252 244.854 433.252 242.018V241.42C433.252 239.533 433.609 237.852 434.324 236.375C435.051 234.887 436.059 233.727 437.348 232.895C438.648 232.051 440.055 231.629 441.566 231.629C444.039 231.629 445.961 232.443 447.332 234.072C448.703 235.701 449.389 238.033 449.389 241.068V242.422H436.504C436.551 244.297 437.096 245.814 438.139 246.975C439.193 248.123 440.529 248.697 442.146 248.697C443.295 248.697 444.268 248.463 445.064 247.994C445.861 247.525 446.559 246.904 447.156 246.131L449.143 247.678C447.549 250.127 445.158 251.352 441.971 251.352ZM441.566 234.301C440.254 234.301 439.152 234.781 438.262 235.742C437.371 236.691 436.82 238.027 436.609 239.75H446.137V239.504C446.043 237.852 445.598 236.574 444.801 235.672C444.004 234.758 442.926 234.301 441.566 234.301ZM461.061 251.352C458.482 251.352 456.385 250.508 454.768 248.82C453.15 247.121 452.342 244.854 452.342 242.018V241.42C452.342 239.533 452.699 237.852 453.414 236.375C454.141 234.887 455.148 233.727 456.438 232.895C457.738 232.051 459.145 231.629 460.656 231.629C463.129 231.629 465.051 232.443 466.422 234.072C467.793 235.701 468.479 238.033 468.479 241.068V242.422H455.594C455.641 244.297 456.186 245.814 457.229 246.975C458.283 248.123 459.619 248.697 461.236 248.697C462.385 248.697 463.357 248.463 464.154 247.994C464.951 247.525 465.648 246.904 466.246 246.131L468.232 247.678C466.639 250.127 464.248 251.352 461.061 251.352ZM460.656 234.301C459.344 234.301 458.242 234.781 457.352 235.742C456.461 236.691 455.91 238.027 455.699 239.75H465.227V239.504C465.133 237.852 464.688 236.574 463.891 235.672C463.094 234.758 462.016 234.301 460.656 234.301ZM471.467 241.332C471.467 238.414 472.158 236.07 473.541 234.301C474.924 232.52 476.734 231.629 478.973 231.629C481.199 231.629 482.963 232.391 484.264 233.914V224H487.516V251H484.527L484.369 248.961C483.068 250.555 481.258 251.352 478.938 251.352C476.734 251.352 474.936 250.449 473.541 248.645C472.158 246.84 471.467 244.484 471.467 241.578V241.332ZM474.719 241.701C474.719 243.857 475.164 245.545 476.055 246.764C476.945 247.982 478.176 248.592 479.746 248.592C481.809 248.592 483.314 247.666 484.264 245.814V237.078C483.291 235.285 481.797 234.389 479.781 234.389C478.188 234.389 476.945 235.004 476.055 236.234C475.164 237.465 474.719 239.287 474.719 241.701ZM492.473 249.295C492.473 248.732 492.637 248.264 492.965 247.889C493.305 247.514 493.809 247.326 494.477 247.326C495.145 247.326 495.648 247.514 495.988 247.889C496.34 248.264 496.516 248.732 496.516 249.295C496.516 249.834 496.34 250.285 495.988 250.648C495.648 251.012 495.145 251.193 494.477 251.193C493.809 251.193 493.305 251.012 492.965 250.648C492.637 250.285 492.473 249.834 492.473 249.295ZM492.49 233.773C492.49 233.211 492.654 232.742 492.982 232.367C493.322 231.992 493.826 231.805 494.494 231.805C495.162 231.805 495.666 231.992 496.006 232.367C496.357 232.742 496.533 233.211 496.533 233.773C496.533 234.312 496.357 234.764 496.006 235.127C495.666 235.49 495.162 235.672 494.494 235.672C493.826 235.672 493.322 235.49 492.982 235.127C492.654 234.764 492.49 234.312 492.49 233.773ZM529.51 251H526.24V229.326L519.684 231.734V228.781L529 225.283H529.51V251ZM540.021 253.197H537.227L547.914 225.406H550.691L540.021 253.197ZM571.029 251H553.486V247.52L561.766 238.695C562.902 237.453 563.74 236.369 564.279 235.443C564.83 234.518 565.105 233.639 565.105 232.807C565.105 231.67 564.818 230.779 564.244 230.135C563.67 229.479 562.85 229.15 561.783 229.15C560.635 229.15 559.727 229.549 559.059 230.346C558.402 231.131 558.074 232.168 558.074 233.457H552.977C552.977 231.898 553.346 230.475 554.084 229.186C554.834 227.896 555.889 226.889 557.248 226.162C558.607 225.424 560.148 225.055 561.871 225.055C564.508 225.055 566.553 225.688 568.006 226.953C569.471 228.219 570.203 230.006 570.203 232.314C570.203 233.58 569.875 234.869 569.219 236.182C568.562 237.494 567.438 239.023 565.844 240.77L560.025 246.904H571.029V251ZM574.914 238.414L576.391 225.406H590.734V229.643H580.557L579.924 235.145C581.131 234.5 582.414 234.178 583.773 234.178C586.211 234.178 588.121 234.934 589.504 236.445C590.887 237.957 591.578 240.072 591.578 242.791C591.578 244.443 591.227 245.926 590.523 247.238C589.832 248.539 588.836 249.553 587.535 250.279C586.234 250.994 584.699 251.352 582.93 251.352C581.383 251.352 579.947 251.041 578.623 250.42C577.299 249.787 576.25 248.902 575.477 247.766C574.715 246.629 574.311 245.334 574.264 243.881H579.291C579.396 244.947 579.766 245.779 580.398 246.377C581.043 246.963 581.881 247.256 582.912 247.256C584.061 247.256 584.945 246.846 585.566 246.025C586.188 245.193 586.498 244.021 586.498 242.51C586.498 241.057 586.141 239.943 585.426 239.17C584.711 238.396 583.697 238.01 582.385 238.01C581.178 238.01 580.199 238.326 579.449 238.959L578.957 239.416L574.914 238.414ZM612.057 240.418C612.057 243.957 611.324 246.664 609.859 248.539C608.395 250.414 606.25 251.352 603.426 251.352C600.637 251.352 598.504 250.432 597.027 248.592C595.551 246.752 594.795 244.115 594.76 240.682V235.971C594.76 232.396 595.498 229.684 596.975 227.832C598.463 225.98 600.602 225.055 603.391 225.055C606.18 225.055 608.312 225.975 609.789 227.814C611.266 229.643 612.021 232.273 612.057 235.707V240.418ZM606.977 235.25C606.977 233.129 606.684 231.588 606.098 230.627C605.523 229.654 604.621 229.168 603.391 229.168C602.195 229.168 601.311 229.631 600.736 230.557C600.174 231.471 599.875 232.906 599.84 234.863V241.086C599.84 243.172 600.121 244.725 600.684 245.744C601.258 246.752 602.172 247.256 603.426 247.256C604.668 247.256 605.564 246.77 606.115 245.797C606.666 244.824 606.953 243.336 606.977 241.332V235.25Z" fill="black"/>
<path d="M278.512 574.592C275.617 573.76 273.508 572.74 272.184 571.533C270.871 570.314 270.215 568.814 270.215 567.033C270.215 565.018 271.018 563.354 272.623 562.041C274.24 560.717 276.338 560.055 278.916 560.055C280.674 560.055 282.238 560.395 283.609 561.074C284.992 561.754 286.059 562.691 286.809 563.887C287.57 565.082 287.951 566.389 287.951 567.807H284.559C284.559 566.26 284.066 565.047 283.082 564.168C282.098 563.277 280.709 562.832 278.916 562.832C277.252 562.832 275.951 563.201 275.014 563.939C274.088 564.666 273.625 565.68 273.625 566.98C273.625 568.023 274.064 568.908 274.943 569.635C275.834 570.35 277.34 571.006 279.461 571.604C281.594 572.201 283.258 572.863 284.453 573.59C285.66 574.305 286.551 575.143 287.125 576.104C287.711 577.064 288.004 578.195 288.004 579.496C288.004 581.57 287.195 583.234 285.578 584.488C283.961 585.73 281.799 586.352 279.092 586.352C277.334 586.352 275.693 586.018 274.17 585.35C272.646 584.67 271.469 583.744 270.637 582.572C269.816 581.4 269.406 580.07 269.406 578.582H272.799C272.799 580.129 273.367 581.354 274.504 582.256C275.652 583.146 277.182 583.592 279.092 583.592C280.873 583.592 282.238 583.229 283.188 582.502C284.137 581.775 284.611 580.785 284.611 579.531C284.611 578.277 284.172 577.311 283.293 576.631C282.414 575.939 280.82 575.26 278.512 574.592ZM295.088 569.283C296.529 567.514 298.404 566.629 300.713 566.629C304.732 566.629 306.76 568.896 306.795 573.432V586H303.543V573.414C303.531 572.043 303.215 571.029 302.594 570.373C301.984 569.717 301.029 569.389 299.729 569.389C298.674 569.389 297.748 569.67 296.951 570.232C296.154 570.795 295.533 571.533 295.088 572.447V586H291.836V559H295.088V569.283ZM323.406 584.119C322.141 585.607 320.283 586.352 317.834 586.352C315.807 586.352 314.26 585.766 313.193 584.594C312.139 583.41 311.605 581.664 311.594 579.355V566.98H314.846V579.268C314.846 582.15 316.018 583.592 318.361 583.592C320.846 583.592 322.498 582.666 323.318 580.814V566.98H326.57V586H323.477L323.406 584.119ZM335.939 562.375V566.98H339.49V569.494H335.939V581.289C335.939 582.051 336.098 582.625 336.414 583.012C336.73 583.387 337.27 583.574 338.031 583.574C338.406 583.574 338.922 583.504 339.578 583.363V586C338.723 586.234 337.891 586.352 337.082 586.352C335.629 586.352 334.533 585.912 333.795 585.033C333.057 584.154 332.688 582.906 332.688 581.289V569.494H329.225V566.98H332.688V562.375H335.939ZM347.717 562.375V566.98H351.268V569.494H347.717V581.289C347.717 582.051 347.875 582.625 348.191 583.012C348.508 583.387 349.047 583.574 349.809 583.574C350.184 583.574 350.699 583.504 351.355 583.363V586C350.5 586.234 349.668 586.352 348.859 586.352C347.406 586.352 346.311 585.912 345.572 585.033C344.834 584.154 344.465 582.906 344.465 581.289V569.494H341.002V566.98H344.465V562.375H347.717ZM362.975 586.352C360.396 586.352 358.299 585.508 356.682 583.82C355.064 582.121 354.256 579.854 354.256 577.018V576.42C354.256 574.533 354.613 572.852 355.328 571.375C356.055 569.887 357.062 568.727 358.352 567.895C359.652 567.051 361.059 566.629 362.57 566.629C365.043 566.629 366.965 567.443 368.336 569.072C369.707 570.701 370.393 573.033 370.393 576.068V577.422H357.508C357.555 579.297 358.1 580.814 359.143 581.975C360.197 583.123 361.533 583.697 363.15 583.697C364.299 583.697 365.271 583.463 366.068 582.994C366.865 582.525 367.562 581.904 368.16 581.131L370.146 582.678C368.553 585.127 366.162 586.352 362.975 586.352ZM362.57 569.301C361.258 569.301 360.156 569.781 359.266 570.742C358.375 571.691 357.824 573.027 357.613 574.75H367.141V574.504C367.047 572.852 366.602 571.574 365.805 570.672C365.008 569.758 363.93 569.301 362.57 569.301ZM383.365 569.898C382.873 569.816 382.34 569.775 381.766 569.775C379.633 569.775 378.186 570.684 377.424 572.5V586H374.172V566.98H377.336L377.389 569.178C378.455 567.479 379.967 566.629 381.924 566.629C382.557 566.629 383.037 566.711 383.365 566.875V569.898ZM406.375 580.955C406.375 580.076 406.041 579.396 405.373 578.916C404.717 578.424 403.562 578.002 401.91 577.65C400.27 577.299 398.963 576.877 397.99 576.385C397.029 575.893 396.314 575.307 395.846 574.627C395.389 573.947 395.16 573.139 395.16 572.201C395.16 570.643 395.816 569.324 397.129 568.246C398.453 567.168 400.141 566.629 402.191 566.629C404.348 566.629 406.094 567.186 407.43 568.299C408.777 569.412 409.451 570.836 409.451 572.57H406.182C406.182 571.68 405.801 570.912 405.039 570.268C404.289 569.623 403.34 569.301 402.191 569.301C401.008 569.301 400.082 569.559 399.414 570.074C398.746 570.59 398.412 571.264 398.412 572.096C398.412 572.881 398.723 573.473 399.344 573.871C399.965 574.27 401.084 574.65 402.701 575.014C404.33 575.377 405.648 575.811 406.656 576.314C407.664 576.818 408.408 577.428 408.889 578.143C409.381 578.846 409.627 579.707 409.627 580.727C409.627 582.426 408.947 583.791 407.588 584.822C406.229 585.842 404.465 586.352 402.297 586.352C400.773 586.352 399.426 586.082 398.254 585.543C397.082 585.004 396.162 584.254 395.494 583.293C394.838 582.32 394.51 581.271 394.51 580.146H397.762C397.82 581.236 398.254 582.104 399.062 582.748C399.883 583.381 400.961 583.697 402.297 583.697C403.527 583.697 404.512 583.451 405.25 582.959C406 582.455 406.375 581.787 406.375 580.955ZM429.93 576.701C429.93 579.596 429.268 581.928 427.943 583.697C426.619 585.467 424.826 586.352 422.564 586.352C420.256 586.352 418.439 585.619 417.115 584.154V593.312H413.863V566.98H416.834L416.992 569.09C418.316 567.449 420.156 566.629 422.512 566.629C424.797 566.629 426.602 567.49 427.926 569.213C429.262 570.936 429.93 573.332 429.93 576.402V576.701ZM426.678 576.332C426.678 574.188 426.221 572.494 425.307 571.252C424.393 570.01 423.139 569.389 421.545 569.389C419.576 569.389 418.1 570.262 417.115 572.008V581.096C418.088 582.83 419.576 583.697 421.58 583.697C423.139 583.697 424.375 583.082 425.289 581.852C426.215 580.609 426.678 578.77 426.678 576.332ZM441.971 586.352C439.393 586.352 437.295 585.508 435.678 583.82C434.061 582.121 433.252 579.854 433.252 577.018V576.42C433.252 574.533 433.609 572.852 434.324 571.375C435.051 569.887 436.059 568.727 437.348 567.895C438.648 567.051 440.055 566.629 441.566 566.629C444.039 566.629 445.961 567.443 447.332 569.072C448.703 570.701 449.389 573.033 449.389 576.068V577.422H436.504C436.551 579.297 437.096 580.814 438.139 581.975C439.193 583.123 440.529 583.697 442.146 583.697C443.295 583.697 444.268 583.463 445.064 582.994C445.861 582.525 446.559 581.904 447.156 581.131L449.143 582.678C447.549 585.127 445.158 586.352 441.971 586.352ZM441.566 569.301C440.254 569.301 439.152 569.781 438.262 570.742C437.371 571.691 436.82 573.027 436.609 574.75H446.137V574.504C446.043 572.852 445.598 571.574 444.801 570.672C444.004 569.758 442.926 569.301 441.566 569.301ZM461.061 586.352C458.482 586.352 456.385 585.508 454.768 583.82C453.15 582.121 452.342 579.854 452.342 577.018V576.42C452.342 574.533 452.699 572.852 453.414 571.375C454.141 569.887 455.148 568.727 456.438 567.895C457.738 567.051 459.145 566.629 460.656 566.629C463.129 566.629 465.051 567.443 466.422 569.072C467.793 570.701 468.479 573.033 468.479 576.068V577.422H455.594C455.641 579.297 456.186 580.814 457.229 581.975C458.283 583.123 459.619 583.697 461.236 583.697C462.385 583.697 463.357 583.463 464.154 582.994C464.951 582.525 465.648 581.904 466.246 581.131L468.232 582.678C466.639 585.127 464.248 586.352 461.061 586.352ZM460.656 569.301C459.344 569.301 458.242 569.781 457.352 570.742C456.461 571.691 455.91 573.027 455.699 574.75H465.227V574.504C465.133 572.852 464.688 571.574 463.891 570.672C463.094 569.758 462.016 569.301 460.656 569.301ZM471.467 576.332C471.467 573.414 472.158 571.07 473.541 569.301C474.924 567.52 476.734 566.629 478.973 566.629C481.199 566.629 482.963 567.391 484.264 568.914V559H487.516V586H484.527L484.369 583.961C483.068 585.555 481.258 586.352 478.938 586.352C476.734 586.352 474.936 585.449 473.541 583.645C472.158 581.84 471.467 579.484 471.467 576.578V576.332ZM474.719 576.701C474.719 578.857 475.164 580.545 476.055 581.764C476.945 582.982 478.176 583.592 479.746 583.592C481.809 583.592 483.314 582.666 484.264 580.814V572.078C483.291 570.285 481.797 569.389 479.781 569.389C478.188 569.389 476.945 570.004 476.055 571.234C475.164 572.465 474.719 574.287 474.719 576.701ZM492.473 584.295C492.473 583.732 492.637 583.264 492.965 582.889C493.305 582.514 493.809 582.326 494.477 582.326C495.145 582.326 495.648 582.514 495.988 582.889C496.34 583.264 496.516 583.732 496.516 584.295C496.516 584.834 496.34 585.285 495.988 585.648C495.648 586.012 495.145 586.193 494.477 586.193C493.809 586.193 493.305 586.012 492.965 585.648C492.637 585.285 492.473 584.834 492.473 584.295ZM492.49 568.773C492.49 568.211 492.654 567.742 492.982 567.367C493.322 566.992 493.826 566.805 494.494 566.805C495.162 566.805 495.666 566.992 496.006 567.367C496.357 567.742 496.533 568.211 496.533 568.773C496.533 569.312 496.357 569.764 496.006 570.127C495.666 570.49 495.162 570.672 494.494 570.672C493.826 570.672 493.322 570.49 492.982 570.127C492.654 569.764 492.49 569.312 492.49 568.773ZM520.58 586H517.311V564.326L510.754 566.734V563.781L520.07 560.283H520.58V586ZM531.092 588.197H528.297L538.984 560.406H541.762L531.092 588.197ZM556.896 586H551.816V566.418L545.752 568.299V564.168L556.352 560.371H556.896V586ZM582.771 586H565.229V582.52L573.508 573.695C574.645 572.453 575.482 571.369 576.021 570.443C576.572 569.518 576.848 568.639 576.848 567.807C576.848 566.67 576.561 565.779 575.986 565.135C575.412 564.479 574.592 564.15 573.525 564.15C572.377 564.15 571.469 564.549 570.801 565.346C570.145 566.131 569.816 567.168 569.816 568.457H564.719C564.719 566.898 565.088 565.475 565.826 564.186C566.576 562.896 567.631 561.889 568.99 561.162C570.35 560.424 571.891 560.055 573.613 560.055C576.25 560.055 578.295 560.688 579.748 561.953C581.213 563.219 581.945 565.006 581.945 567.314C581.945 568.58 581.617 569.869 580.961 571.182C580.305 572.494 579.18 574.023 577.586 575.77L571.768 581.904H582.771V586ZM586.656 573.414L588.133 560.406H602.477V564.643H592.299L591.666 570.145C592.873 569.5 594.156 569.178 595.516 569.178C597.953 569.178 599.863 569.934 601.246 571.445C602.629 572.957 603.32 575.072 603.32 577.791C603.32 579.443 602.969 580.926 602.266 582.238C601.574 583.539 600.578 584.553 599.277 585.279C597.977 585.994 596.441 586.352 594.672 586.352C593.125 586.352 591.689 586.041 590.365 585.42C589.041 584.787 587.992 583.902 587.219 582.766C586.457 581.629 586.053 580.334 586.006 578.881H591.033C591.139 579.947 591.508 580.779 592.141 581.377C592.785 581.963 593.623 582.256 594.654 582.256C595.803 582.256 596.688 581.846 597.309 581.025C597.93 580.193 598.24 579.021 598.24 577.51C598.24 576.057 597.883 574.943 597.168 574.17C596.453 573.396 595.439 573.01 594.127 573.01C592.92 573.01 591.941 573.326 591.191 573.959L590.699 574.416L586.656 573.414Z" fill="black"/>
<path d="M26.6543 577.184H18.4277V600H15.0703V577.184H6.86133V574.406H26.6543V577.184ZM33.1934 583.283C34.6348 581.514 36.5098 580.629 38.8184 580.629C42.8379 580.629 44.8652 582.896 44.9004 587.432V600H41.6484V587.414C41.6367 586.043 41.3203 585.029 40.6992 584.373C40.0898 583.717 39.1348 583.389 37.834 583.389C36.7793 583.389 35.8535 583.67 35.0566 584.232C34.2598 584.795 33.6387 585.533 33.1934 586.447V600H29.9414V573H33.1934V583.283ZM53.3027 600H50.0508V580.98H53.3027V600ZM49.7871 575.936C49.7871 575.408 49.9453 574.963 50.2617 574.6C50.5898 574.236 51.0703 574.055 51.7031 574.055C52.3359 574.055 52.8164 574.236 53.1445 574.6C53.4727 574.963 53.6367 575.408 53.6367 575.936C53.6367 576.463 53.4727 576.902 53.1445 577.254C52.8164 577.605 52.3359 577.781 51.7031 577.781C51.0703 577.781 50.5898 577.605 50.2617 577.254C49.9453 576.902 49.7871 576.463 49.7871 575.936ZM69.5977 594.955C69.5977 594.076 69.2637 593.396 68.5957 592.916C67.9395 592.424 66.7852 592.002 65.1328 591.65C63.4922 591.299 62.1855 590.877 61.2129 590.385C60.252 589.893 59.5371 589.307 59.0684 588.627C58.6113 587.947 58.3828 587.139 58.3828 586.201C58.3828 584.643 59.0391 583.324 60.3516 582.246C61.6758 581.168 63.3633 580.629 65.4141 580.629C67.5703 580.629 69.3164 581.186 70.6523 582.299C72 583.412 72.6738 584.836 72.6738 586.57H69.4043C69.4043 585.68 69.0234 584.912 68.2617 584.268C67.5117 583.623 66.5625 583.301 65.4141 583.301C64.2305 583.301 63.3047 583.559 62.6367 584.074C61.9688 584.59 61.6348 585.264 61.6348 586.096C61.6348 586.881 61.9453 587.473 62.5664 587.871C63.1875 588.27 64.3066 588.65 65.9238 589.014C67.5527 589.377 68.8711 589.811 69.8789 590.314C70.8867 590.818 71.6309 591.428 72.1113 592.143C72.6035 592.846 72.8496 593.707 72.8496 594.727C72.8496 596.426 72.1699 597.791 70.8105 598.822C69.4512 599.842 67.6875 600.352 65.5195 600.352C63.9961 600.352 62.6484 600.082 61.4766 599.543C60.3047 599.004 59.3848 598.254 58.7168 597.293C58.0605 596.32 57.7324 595.271 57.7324 594.146H60.9844C61.043 595.236 61.4766 596.104 62.2852 596.748C63.1055 597.381 64.1836 597.697 65.5195 597.697C66.75 597.697 67.7344 597.451 68.4727 596.959C69.2227 596.455 69.5977 595.787 69.5977 594.955ZM89.5488 600H86.2969V580.98H89.5488V600ZM86.0332 575.936C86.0332 575.408 86.1914 574.963 86.5078 574.6C86.8359 574.236 87.3164 574.055 87.9492 574.055C88.582 574.055 89.0625 574.236 89.3906 574.6C89.7188 574.963 89.8828 575.408 89.8828 575.936C89.8828 576.463 89.7188 576.902 89.3906 577.254C89.0625 577.605 88.582 577.781 87.9492 577.781C87.3164 577.781 86.8359 577.605 86.5078 577.254C86.1914 576.902 86.0332 576.463 86.0332 575.936ZM105.844 594.955C105.844 594.076 105.51 593.396 104.842 592.916C104.186 592.424 103.031 592.002 101.379 591.65C99.7383 591.299 98.4316 590.877 97.459 590.385C96.498 589.893 95.7832 589.307 95.3145 588.627C94.8574 587.947 94.6289 587.139 94.6289 586.201C94.6289 584.643 95.2852 583.324 96.5977 582.246C97.9219 581.168 99.6094 580.629 101.66 580.629C103.816 580.629 105.562 581.186 106.898 582.299C108.246 583.412 108.92 584.836 108.92 586.57H105.65C105.65 585.68 105.27 584.912 104.508 584.268C103.758 583.623 102.809 583.301 101.66 583.301C100.477 583.301 99.5508 583.559 98.8828 584.074C98.2148 584.59 97.8809 585.264 97.8809 586.096C97.8809 586.881 98.1914 587.473 98.8125 587.871C99.4336 588.27 100.553 588.65 102.17 589.014C103.799 589.377 105.117 589.811 106.125 590.314C107.133 590.818 107.877 591.428 108.357 592.143C108.85 592.846 109.096 593.707 109.096 594.727C109.096 596.426 108.416 597.791 107.057 598.822C105.697 599.842 103.934 600.352 101.766 600.352C100.242 600.352 98.8945 600.082 97.7227 599.543C96.5508 599.004 95.6309 598.254 94.9629 597.293C94.3066 596.32 93.9785 595.271 93.9785 594.146H97.2305C97.2891 595.236 97.7227 596.104 98.5312 596.748C99.3516 597.381 100.43 597.697 101.766 597.697C102.996 597.697 103.98 597.451 104.719 596.959C105.469 596.455 105.844 595.787 105.844 594.955ZM125.795 600H122.543V573H125.795V600ZM130.154 590.314C130.154 588.451 130.518 586.775 131.244 585.287C131.982 583.799 133.002 582.65 134.303 581.842C135.615 581.033 137.109 580.629 138.785 580.629C141.375 580.629 143.467 581.525 145.061 583.318C146.666 585.111 147.469 587.496 147.469 590.473V590.701C147.469 592.553 147.111 594.217 146.396 595.693C145.693 597.158 144.68 598.301 143.355 599.121C142.043 599.941 140.531 600.352 138.82 600.352C136.242 600.352 134.15 599.455 132.545 597.662C130.951 595.869 130.154 593.496 130.154 590.543V590.314ZM133.424 590.701C133.424 592.811 133.91 594.504 134.883 595.781C135.867 597.059 137.18 597.697 138.82 597.697C140.473 597.697 141.785 597.053 142.758 595.764C143.73 594.463 144.217 592.646 144.217 590.314C144.217 588.229 143.719 586.541 142.723 585.252C141.738 583.951 140.426 583.301 138.785 583.301C137.18 583.301 135.885 583.939 134.9 585.217C133.916 586.494 133.424 588.322 133.424 590.701ZM168.387 595.518L172.043 580.98H175.295L169.758 600H167.121L162.498 585.586L157.998 600H155.361L149.842 580.98H153.076L156.82 595.219L161.25 580.98H163.869L168.387 595.518ZM186.51 600.352C183.932 600.352 181.834 599.508 180.217 597.82C178.6 596.121 177.791 593.854 177.791 591.018V590.42C177.791 588.533 178.148 586.852 178.863 585.375C179.59 583.887 180.598 582.727 181.887 581.895C183.188 581.051 184.594 580.629 186.105 580.629C188.578 580.629 190.5 581.443 191.871 583.072C193.242 584.701 193.928 587.033 193.928 590.068V591.422H181.043C181.09 593.297 181.635 594.814 182.678 595.975C183.732 597.123 185.068 597.697 186.686 597.697C187.834 597.697 188.807 597.463 189.604 596.994C190.4 596.525 191.098 595.904 191.695 595.131L193.682 596.678C192.088 599.127 189.697 600.352 186.51 600.352ZM186.105 583.301C184.793 583.301 183.691 583.781 182.801 584.742C181.91 585.691 181.359 587.027 181.148 588.75H190.676V588.504C190.582 586.852 190.137 585.574 189.34 584.672C188.543 583.758 187.465 583.301 186.105 583.301ZM206.9 583.898C206.408 583.816 205.875 583.775 205.301 583.775C203.168 583.775 201.721 584.684 200.959 586.5V600H197.707V580.98H200.871L200.924 583.178C201.99 581.479 203.502 580.629 205.459 580.629C206.092 580.629 206.572 580.711 206.9 580.875V583.898Z" fill="black"/>
<path d="M20.6543 249.184H12.4277V272H9.07031V249.184H0.861328V246.406H20.6543V249.184ZM27.1934 255.283C28.6348 253.514 30.5098 252.629 32.8184 252.629C36.8379 252.629 38.8652 254.896 38.9004 259.432V272H35.6484V259.414C35.6367 258.043 35.3203 257.029 34.6992 256.373C34.0898 255.717 33.1348 255.389 31.834 255.389C30.7793 255.389 29.8535 255.67 29.0566 256.232C28.2598 256.795 27.6387 257.533 27.1934 258.447V272H23.9414V245H27.1934V255.283ZM47.3027 272H44.0508V252.98H47.3027V272ZM43.7871 247.936C43.7871 247.408 43.9453 246.963 44.2617 246.6C44.5898 246.236 45.0703 246.055 45.7031 246.055C46.3359 246.055 46.8164 246.236 47.1445 246.6C47.4727 246.963 47.6367 247.408 47.6367 247.936C47.6367 248.463 47.4727 248.902 47.1445 249.254C46.8164 249.605 46.3359 249.781 45.7031 249.781C45.0703 249.781 44.5898 249.605 44.2617 249.254C43.9453 248.902 43.7871 248.463 43.7871 247.936ZM63.5977 266.955C63.5977 266.076 63.2637 265.396 62.5957 264.916C61.9395 264.424 60.7852 264.002 59.1328 263.65C57.4922 263.299 56.1855 262.877 55.2129 262.385C54.252 261.893 53.5371 261.307 53.0684 260.627C52.6113 259.947 52.3828 259.139 52.3828 258.201C52.3828 256.643 53.0391 255.324 54.3516 254.246C55.6758 253.168 57.3633 252.629 59.4141 252.629C61.5703 252.629 63.3164 253.186 64.6523 254.299C66 255.412 66.6738 256.836 66.6738 258.57H63.4043C63.4043 257.68 63.0234 256.912 62.2617 256.268C61.5117 255.623 60.5625 255.301 59.4141 255.301C58.2305 255.301 57.3047 255.559 56.6367 256.074C55.9688 256.59 55.6348 257.264 55.6348 258.096C55.6348 258.881 55.9453 259.473 56.5664 259.871C57.1875 260.27 58.3066 260.65 59.9238 261.014C61.5527 261.377 62.8711 261.811 63.8789 262.314C64.8867 262.818 65.6309 263.428 66.1113 264.143C66.6035 264.846 66.8496 265.707 66.8496 266.727C66.8496 268.426 66.1699 269.791 64.8105 270.822C63.4512 271.842 61.6875 272.352 59.5195 272.352C57.9961 272.352 56.6484 272.082 55.4766 271.543C54.3047 271.004 53.3848 270.254 52.7168 269.293C52.0605 268.32 51.7324 267.271 51.7324 266.146H54.9844C55.043 267.236 55.4766 268.104 56.2852 268.748C57.1055 269.381 58.1836 269.697 59.5195 269.697C60.75 269.697 61.7344 269.451 62.4727 268.959C63.2227 268.455 63.5977 267.787 63.5977 266.955ZM83.5488 272H80.2969V252.98H83.5488V272ZM80.0332 247.936C80.0332 247.408 80.1914 246.963 80.5078 246.6C80.8359 246.236 81.3164 246.055 81.9492 246.055C82.582 246.055 83.0625 246.236 83.3906 246.6C83.7188 246.963 83.8828 247.408 83.8828 247.936C83.8828 248.463 83.7188 248.902 83.3906 249.254C83.0625 249.605 82.582 249.781 81.9492 249.781C81.3164 249.781 80.8359 249.605 80.5078 249.254C80.1914 248.902 80.0332 248.463 80.0332 247.936ZM99.8438 266.955C99.8438 266.076 99.5098 265.396 98.8418 264.916C98.1855 264.424 97.0312 264.002 95.3789 263.65C93.7383 263.299 92.4316 262.877 91.459 262.385C90.498 261.893 89.7832 261.307 89.3145 260.627C88.8574 259.947 88.6289 259.139 88.6289 258.201C88.6289 256.643 89.2852 255.324 90.5977 254.246C91.9219 253.168 93.6094 252.629 95.6602 252.629C97.8164 252.629 99.5625 253.186 100.898 254.299C102.246 255.412 102.92 256.836 102.92 258.57H99.6504C99.6504 257.68 99.2695 256.912 98.5078 256.268C97.7578 255.623 96.8086 255.301 95.6602 255.301C94.4766 255.301 93.5508 255.559 92.8828 256.074C92.2148 256.59 91.8809 257.264 91.8809 258.096C91.8809 258.881 92.1914 259.473 92.8125 259.871C93.4336 260.27 94.5527 260.65 96.1699 261.014C97.7988 261.377 99.1172 261.811 100.125 262.314C101.133 262.818 101.877 263.428 102.357 264.143C102.85 264.846 103.096 265.707 103.096 266.727C103.096 268.426 102.416 269.791 101.057 270.822C99.6973 271.842 97.9336 272.352 95.7656 272.352C94.2422 272.352 92.8945 272.082 91.7227 271.543C90.5508 271.004 89.6309 270.254 88.9629 269.293C88.3066 268.32 87.9785 267.271 87.9785 266.146H91.2305C91.2891 267.236 91.7227 268.104 92.5312 268.748C93.3516 269.381 94.4297 269.697 95.7656 269.697C96.9961 269.697 97.9805 269.451 98.7188 268.959C99.4688 268.455 99.8438 267.787 99.8438 266.955ZM119.514 255.283C120.955 253.514 122.83 252.629 125.139 252.629C129.158 252.629 131.186 254.896 131.221 259.432V272H127.969V259.414C127.957 258.043 127.641 257.029 127.02 256.373C126.41 255.717 125.455 255.389 124.154 255.389C123.1 255.389 122.174 255.67 121.377 256.232C120.58 256.795 119.959 257.533 119.514 258.447V272H116.262V245H119.514V255.283ZM139.623 272H136.371V252.98H139.623V272ZM136.107 247.936C136.107 247.408 136.266 246.963 136.582 246.6C136.91 246.236 137.391 246.055 138.023 246.055C138.656 246.055 139.137 246.236 139.465 246.6C139.793 246.963 139.957 247.408 139.957 247.936C139.957 248.463 139.793 248.902 139.465 249.254C139.137 249.605 138.656 249.781 138.023 249.781C137.391 249.781 136.91 249.605 136.582 249.254C136.266 248.902 136.107 248.463 136.107 247.936ZM144.07 262.332C144.07 259.367 144.756 257.012 146.127 255.266C147.498 253.508 149.314 252.629 151.576 252.629C153.896 252.629 155.707 253.449 157.008 255.09L157.166 252.98H160.137V271.543C160.137 274.004 159.404 275.943 157.939 277.361C156.486 278.779 154.529 279.488 152.068 279.488C150.697 279.488 149.355 279.195 148.043 278.609C146.73 278.023 145.729 277.221 145.037 276.201L146.725 274.25C148.119 275.973 149.824 276.834 151.84 276.834C153.422 276.834 154.652 276.389 155.531 275.498C156.422 274.607 156.867 273.354 156.867 271.736V270.102C155.566 271.602 153.791 272.352 151.541 272.352C149.314 272.352 147.51 271.455 146.127 269.662C144.756 267.869 144.07 265.426 144.07 262.332ZM147.34 262.701C147.34 264.846 147.779 266.533 148.658 267.764C149.537 268.982 150.768 269.592 152.35 269.592C154.4 269.592 155.906 268.66 156.867 266.797V258.113C155.871 256.297 154.377 255.389 152.385 255.389C150.803 255.389 149.566 256.004 148.676 257.234C147.785 258.465 147.34 260.287 147.34 262.701ZM168.311 255.283C169.752 253.514 171.627 252.629 173.936 252.629C177.955 252.629 179.982 254.896 180.018 259.432V272H176.766V259.414C176.754 258.043 176.438 257.029 175.816 256.373C175.207 255.717 174.252 255.389 172.951 255.389C171.896 255.389 170.971 255.67 170.174 256.232C169.377 256.795 168.756 257.533 168.311 258.447V272H165.059V245H168.311V255.283ZM192.779 272.352C190.201 272.352 188.104 271.508 186.486 269.82C184.869 268.121 184.061 265.854 184.061 263.018V262.42C184.061 260.533 184.418 258.852 185.133 257.375C185.859 255.887 186.867 254.727 188.156 253.895C189.457 253.051 190.863 252.629 192.375 252.629C194.848 252.629 196.77 253.443 198.141 255.072C199.512 256.701 200.197 259.033 200.197 262.068V263.422H187.312C187.359 265.297 187.904 266.814 188.947 267.975C190.002 269.123 191.338 269.697 192.955 269.697C194.104 269.697 195.076 269.463 195.873 268.994C196.67 268.525 197.367 267.904 197.965 267.131L199.951 268.678C198.357 271.127 195.967 272.352 192.779 272.352ZM192.375 255.301C191.062 255.301 189.961 255.781 189.07 256.742C188.18 257.691 187.629 259.027 187.418 260.75H196.945V260.504C196.852 258.852 196.406 257.574 195.609 256.672C194.812 255.758 193.734 255.301 192.375 255.301ZM213.17 255.898C212.678 255.816 212.145 255.775 211.57 255.775C209.438 255.775 207.99 256.684 207.229 258.5V272H203.977V252.98H207.141L207.193 255.178C208.26 253.479 209.771 252.629 211.729 252.629C212.361 252.629 212.842 252.711 213.17 252.875V255.898Z" fill="black"/>
<path d="M311.09 96.6973C312.25 96.6973 313.264 96.3457 314.131 95.6426C314.998 94.9395 315.479 94.0605 315.572 93.0059H318.648C318.59 94.0957 318.215 95.1328 317.523 96.1172C316.832 97.1016 315.906 97.8867 314.746 98.4727C313.598 99.0586 312.379 99.3516 311.09 99.3516C308.5 99.3516 306.438 98.4902 304.902 96.7676C303.379 95.0332 302.617 92.666 302.617 89.666V89.1211C302.617 87.2695 302.957 85.623 303.637 84.1816C304.316 82.7402 305.289 81.6211 306.555 80.8242C307.832 80.0273 309.338 79.6289 311.072 79.6289C313.205 79.6289 314.975 80.2676 316.381 81.5449C317.799 82.8223 318.555 84.4805 318.648 86.5195H315.572C315.479 85.2891 315.01 84.2812 314.166 83.4961C313.334 82.6992 312.303 82.3008 311.072 82.3008C309.42 82.3008 308.137 82.8984 307.223 84.0938C306.32 85.2773 305.869 86.9941 305.869 89.2441V89.8594C305.869 92.0508 306.32 93.7383 307.223 94.9219C308.125 96.1055 309.414 96.6973 311.09 96.6973ZM325.838 99H322.586V72H325.838V99ZM330.197 89.3145C330.197 87.4512 330.561 85.7754 331.287 84.2871C332.025 82.7988 333.045 81.6504 334.346 80.8418C335.658 80.0332 337.152 79.6289 338.828 79.6289C341.418 79.6289 343.51 80.5254 345.104 82.3184C346.709 84.1113 347.512 86.4961 347.512 89.4727V89.7012C347.512 91.5527 347.154 93.2168 346.439 94.6934C345.736 96.1582 344.723 97.3008 343.398 98.1211C342.086 98.9414 340.574 99.3516 338.863 99.3516C336.285 99.3516 334.193 98.4551 332.588 96.6621C330.994 94.8691 330.197 92.4961 330.197 89.543V89.3145ZM333.467 89.7012C333.467 91.8105 333.953 93.5039 334.926 94.7812C335.91 96.0586 337.223 96.6973 338.863 96.6973C340.516 96.6973 341.828 96.0527 342.801 94.7637C343.773 93.4629 344.26 91.6465 344.26 89.3145C344.26 87.2285 343.762 85.541 342.766 84.252C341.781 82.9512 340.469 82.3008 338.828 82.3008C337.223 82.3008 335.928 82.9395 334.943 84.2168C333.959 85.4941 333.467 87.3223 333.467 89.7012ZM362.664 93.9551C362.664 93.0762 362.33 92.3965 361.662 91.916C361.006 91.4238 359.852 91.002 358.199 90.6504C356.559 90.2988 355.252 89.877 354.279 89.3848C353.318 88.8926 352.604 88.3066 352.135 87.627C351.678 86.9473 351.449 86.1387 351.449 85.2012C351.449 83.6426 352.105 82.3242 353.418 81.2461C354.742 80.168 356.43 79.6289 358.48 79.6289C360.637 79.6289 362.383 80.1855 363.719 81.2988C365.066 82.4121 365.74 83.8359 365.74 85.5703H362.471C362.471 84.6797 362.09 83.9121 361.328 83.2676C360.578 82.623 359.629 82.3008 358.48 82.3008C357.297 82.3008 356.371 82.5586 355.703 83.0742C355.035 83.5898 354.701 84.2637 354.701 85.0957C354.701 85.8809 355.012 86.4727 355.633 86.8711C356.254 87.2695 357.373 87.6504 358.99 88.0137C360.619 88.377 361.938 88.8105 362.945 89.3145C363.953 89.8184 364.697 90.4277 365.178 91.1426C365.67 91.8457 365.916 92.707 365.916 93.7266C365.916 95.4258 365.236 96.791 363.877 97.8223C362.518 98.8418 360.754 99.3516 358.586 99.3516C357.062 99.3516 355.715 99.082 354.543 98.543C353.371 98.0039 352.451 97.2539 351.783 96.293C351.127 95.3203 350.799 94.2715 350.799 93.1465H354.051C354.109 94.2363 354.543 95.1035 355.352 95.748C356.172 96.3809 357.25 96.6973 358.586 96.6973C359.816 96.6973 360.801 96.4512 361.539 95.959C362.289 95.4551 362.664 94.7871 362.664 93.9551ZM378.045 99.3516C375.467 99.3516 373.369 98.5078 371.752 96.8203C370.135 95.1211 369.326 92.8535 369.326 90.0176V89.4199C369.326 87.5332 369.684 85.8516 370.398 84.375C371.125 82.8867 372.133 81.7266 373.422 80.8945C374.723 80.0508 376.129 79.6289 377.641 79.6289C380.113 79.6289 382.035 80.4434 383.406 82.0723C384.777 83.7012 385.463 86.0332 385.463 89.0684V90.4219H372.578C372.625 92.2969 373.17 93.8145 374.213 94.9746C375.268 96.123 376.604 96.6973 378.221 96.6973C379.369 96.6973 380.342 96.4629 381.139 95.9941C381.936 95.5254 382.633 94.9043 383.23 94.1309L385.217 95.6777C383.623 98.127 381.232 99.3516 378.045 99.3516ZM377.641 82.3008C376.328 82.3008 375.227 82.7812 374.336 83.7422C373.445 84.6914 372.895 86.0273 372.684 87.75H382.211V87.5039C382.117 85.8516 381.672 84.5742 380.875 83.6719C380.078 82.7578 379 82.3008 377.641 82.3008ZM388.451 89.332C388.451 86.4141 389.143 84.0703 390.525 82.3008C391.908 80.5195 393.719 79.6289 395.957 79.6289C398.184 79.6289 399.947 80.3906 401.248 81.9141V72H404.5V99H401.512L401.354 96.9609C400.053 98.5547 398.242 99.3516 395.922 99.3516C393.719 99.3516 391.92 98.4492 390.525 96.6445C389.143 94.8398 388.451 92.4844 388.451 89.5781V89.332ZM391.703 89.7012C391.703 91.8574 392.148 93.5449 393.039 94.7637C393.93 95.9824 395.16 96.5918 396.73 96.5918C398.793 96.5918 400.299 95.666 401.248 93.8145V85.0781C400.275 83.2852 398.781 82.3887 396.766 82.3887C395.172 82.3887 393.93 83.0039 393.039 84.2344C392.148 85.4648 391.703 87.2871 391.703 89.7012Z" fill="black"/>
<path d="M311.09 422.697C312.25 422.697 313.264 422.346 314.131 421.643C314.998 420.939 315.479 420.061 315.572 419.006H318.648C318.59 420.096 318.215 421.133 317.523 422.117C316.832 423.102 315.906 423.887 314.746 424.473C313.598 425.059 312.379 425.352 311.09 425.352C308.5 425.352 306.438 424.49 304.902 422.768C303.379 421.033 302.617 418.666 302.617 415.666V415.121C302.617 413.27 302.957 411.623 303.637 410.182C304.316 408.74 305.289 407.621 306.555 406.824C307.832 406.027 309.338 405.629 311.072 405.629C313.205 405.629 314.975 406.268 316.381 407.545C317.799 408.822 318.555 410.48 318.648 412.52H315.572C315.479 411.289 315.01 410.281 314.166 409.496C313.334 408.699 312.303 408.301 311.072 408.301C309.42 408.301 308.137 408.898 307.223 410.094C306.32 411.277 305.869 412.994 305.869 415.244V415.859C305.869 418.051 306.32 419.738 307.223 420.922C308.125 422.105 309.414 422.697 311.09 422.697ZM325.838 425H322.586V398H325.838V425ZM330.197 415.314C330.197 413.451 330.561 411.775 331.287 410.287C332.025 408.799 333.045 407.65 334.346 406.842C335.658 406.033 337.152 405.629 338.828 405.629C341.418 405.629 343.51 406.525 345.104 408.318C346.709 410.111 347.512 412.496 347.512 415.473V415.701C347.512 417.553 347.154 419.217 346.439 420.693C345.736 422.158 344.723 423.301 343.398 424.121C342.086 424.941 340.574 425.352 338.863 425.352C336.285 425.352 334.193 424.455 332.588 422.662C330.994 420.869 330.197 418.496 330.197 415.543V415.314ZM333.467 415.701C333.467 417.811 333.953 419.504 334.926 420.781C335.91 422.059 337.223 422.697 338.863 422.697C340.516 422.697 341.828 422.053 342.801 420.764C343.773 419.463 344.26 417.646 344.26 415.314C344.26 413.229 343.762 411.541 342.766 410.252C341.781 408.951 340.469 408.301 338.828 408.301C337.223 408.301 335.928 408.939 334.943 410.217C333.959 411.494 333.467 413.322 333.467 415.701ZM362.664 419.955C362.664 419.076 362.33 418.396 361.662 417.916C361.006 417.424 359.852 417.002 358.199 416.65C356.559 416.299 355.252 415.877 354.279 415.385C353.318 414.893 352.604 414.307 352.135 413.627C351.678 412.947 351.449 412.139 351.449 411.201C351.449 409.643 352.105 408.324 353.418 407.246C354.742 406.168 356.43 405.629 358.48 405.629C360.637 405.629 362.383 406.186 363.719 407.299C365.066 408.412 365.74 409.836 365.74 411.57H362.471C362.471 410.68 362.09 409.912 361.328 409.268C360.578 408.623 359.629 408.301 358.48 408.301C357.297 408.301 356.371 408.559 355.703 409.074C355.035 409.59 354.701 410.264 354.701 411.096C354.701 411.881 355.012 412.473 355.633 412.871C356.254 413.27 357.373 413.65 358.99 414.014C360.619 414.377 361.938 414.811 362.945 415.314C363.953 415.818 364.697 416.428 365.178 417.143C365.67 417.846 365.916 418.707 365.916 419.727C365.916 421.426 365.236 422.791 363.877 423.822C362.518 424.842 360.754 425.352 358.586 425.352C357.062 425.352 355.715 425.082 354.543 424.543C353.371 424.004 352.451 423.254 351.783 422.293C351.127 421.32 350.799 420.271 350.799 419.146H354.051C354.109 420.236 354.543 421.104 355.352 421.748C356.172 422.381 357.25 422.697 358.586 422.697C359.816 422.697 360.801 422.451 361.539 421.959C362.289 421.455 362.664 420.787 362.664 419.955ZM378.045 425.352C375.467 425.352 373.369 424.508 371.752 422.82C370.135 421.121 369.326 418.854 369.326 416.018V415.42C369.326 413.533 369.684 411.852 370.398 410.375C371.125 408.887 372.133 407.727 373.422 406.895C374.723 406.051 376.129 405.629 377.641 405.629C380.113 405.629 382.035 406.443 383.406 408.072C384.777 409.701 385.463 412.033 385.463 415.068V416.422H372.578C372.625 418.297 373.17 419.814 374.213 420.975C375.268 422.123 376.604 422.697 378.221 422.697C379.369 422.697 380.342 422.463 381.139 421.994C381.936 421.525 382.633 420.904 383.23 420.131L385.217 421.678C383.623 424.127 381.232 425.352 378.045 425.352ZM377.641 408.301C376.328 408.301 375.227 408.781 374.336 409.742C373.445 410.691 372.895 412.027 372.684 413.75H382.211V413.504C382.117 411.852 381.672 410.574 380.875 409.672C380.078 408.758 379 408.301 377.641 408.301ZM388.451 415.332C388.451 412.414 389.143 410.07 390.525 408.301C391.908 406.52 393.719 405.629 395.957 405.629C398.184 405.629 399.947 406.391 401.248 407.914V398H404.5V425H401.512L401.354 422.961C400.053 424.555 398.242 425.352 395.922 425.352C393.719 425.352 391.92 424.449 390.525 422.645C389.143 420.84 388.451 418.484 388.451 415.578V415.332ZM391.703 415.701C391.703 417.857 392.148 419.545 393.039 420.764C393.93 421.982 395.16 422.592 396.73 422.592C398.793 422.592 400.299 421.666 401.248 419.814V411.078C400.275 409.285 398.781 408.389 396.766 408.389C395.172 408.389 393.93 409.004 393.039 410.234C392.148 411.465 391.703 413.287 391.703 415.701Z" fill="black"/>
<path d="M516.6 415.314C516.6 413.451 516.963 411.775 517.689 410.287C518.428 408.799 519.447 407.65 520.748 406.842C522.061 406.033 523.555 405.629 525.23 405.629C527.82 405.629 529.912 406.525 531.506 408.318C533.111 410.111 533.914 412.496 533.914 415.473V415.701C533.914 417.553 533.557 419.217 532.842 420.693C532.139 422.158 531.125 423.301 529.801 424.121C528.488 424.941 526.977 425.352 525.266 425.352C522.688 425.352 520.596 424.455 518.99 422.662C517.396 420.869 516.6 418.496 516.6 415.543V415.314ZM519.869 415.701C519.869 417.811 520.355 419.504 521.328 420.781C522.312 422.059 523.625 422.697 525.266 422.697C526.918 422.697 528.23 422.053 529.203 420.764C530.176 419.463 530.662 417.646 530.662 415.314C530.662 413.229 530.164 411.541 529.168 410.252C528.184 408.951 526.871 408.301 525.23 408.301C523.625 408.301 522.33 408.939 521.346 410.217C520.361 411.494 519.869 413.322 519.869 415.701ZM554.059 415.701C554.059 418.596 553.396 420.928 552.072 422.697C550.748 424.467 548.955 425.352 546.693 425.352C544.385 425.352 542.568 424.619 541.244 423.154V432.312H537.992V405.98H540.963L541.121 408.09C542.445 406.449 544.285 405.629 546.641 405.629C548.926 405.629 550.73 406.49 552.055 408.213C553.391 409.936 554.059 412.332 554.059 415.402V415.701ZM550.807 415.332C550.807 413.188 550.35 411.494 549.436 410.252C548.521 409.01 547.268 408.389 545.674 408.389C543.705 408.389 542.229 409.262 541.244 411.008V420.096C542.217 421.83 543.705 422.697 545.709 422.697C547.268 422.697 548.504 422.082 549.418 420.852C550.344 419.609 550.807 417.77 550.807 415.332ZM566.1 425.352C563.521 425.352 561.424 424.508 559.807 422.82C558.189 421.121 557.381 418.854 557.381 416.018V415.42C557.381 413.533 557.738 411.852 558.453 410.375C559.18 408.887 560.188 407.727 561.477 406.895C562.777 406.051 564.184 405.629 565.695 405.629C568.168 405.629 570.09 406.443 571.461 408.072C572.832 409.701 573.518 412.033 573.518 415.068V416.422H560.633C560.68 418.297 561.225 419.814 562.268 420.975C563.322 422.123 564.658 422.697 566.275 422.697C567.424 422.697 568.396 422.463 569.193 421.994C569.99 421.525 570.688 420.904 571.285 420.131L573.271 421.678C571.678 424.127 569.287 425.352 566.1 425.352ZM565.695 408.301C564.383 408.301 563.281 408.781 562.391 409.742C561.5 410.691 560.949 412.027 560.738 413.75H570.266V413.504C570.172 411.852 569.727 410.574 568.93 409.672C568.133 408.758 567.055 408.301 565.695 408.301ZM580.373 405.98L580.479 408.371C581.932 406.543 583.83 405.629 586.174 405.629C590.193 405.629 592.221 407.896 592.256 412.432V425H589.004V412.414C588.992 411.043 588.676 410.029 588.055 409.373C587.445 408.717 586.49 408.389 585.189 408.389C584.135 408.389 583.209 408.67 582.412 409.232C581.615 409.795 580.994 410.533 580.549 411.447V425H577.297V405.98H580.373Z" fill="black"/>
<path d="M516.6 89.3145C516.6 87.4512 516.963 85.7754 517.689 84.2871C518.428 82.7988 519.447 81.6504 520.748 80.8418C522.061 80.0332 523.555 79.6289 525.23 79.6289C527.82 79.6289 529.912 80.5254 531.506 82.3184C533.111 84.1113 533.914 86.4961 533.914 89.4727V89.7012C533.914 91.5527 533.557 93.2168 532.842 94.6934C532.139 96.1582 531.125 97.3008 529.801 98.1211C528.488 98.9414 526.977 99.3516 525.266 99.3516C522.688 99.3516 520.596 98.4551 518.99 96.6621C517.396 94.8691 516.6 92.4961 516.6 89.543V89.3145ZM519.869 89.7012C519.869 91.8105 520.355 93.5039 521.328 94.7812C522.312 96.0586 523.625 96.6973 525.266 96.6973C526.918 96.6973 528.23 96.0527 529.203 94.7637C530.176 93.4629 530.662 91.6465 530.662 89.3145C530.662 87.2285 530.164 85.541 529.168 84.252C528.184 82.9512 526.871 82.3008 525.23 82.3008C523.625 82.3008 522.33 82.9395 521.346 84.2168C520.361 85.4941 519.869 87.3223 519.869 89.7012ZM554.059 89.7012C554.059 92.5957 553.396 94.9277 552.072 96.6973C550.748 98.4668 548.955 99.3516 546.693 99.3516C544.385 99.3516 542.568 98.6191 541.244 97.1543V106.312H537.992V79.9805H540.963L541.121 82.0898C542.445 80.4492 544.285 79.6289 546.641 79.6289C548.926 79.6289 550.73 80.4902 552.055 82.2129C553.391 83.9355 554.059 86.332 554.059 89.4023V89.7012ZM550.807 89.332C550.807 87.1875 550.35 85.4941 549.436 84.252C548.521 83.0098 547.268 82.3887 545.674 82.3887C543.705 82.3887 542.229 83.2617 541.244 85.0078V94.0957C542.217 95.8301 543.705 96.6973 545.709 96.6973C547.268 96.6973 548.504 96.082 549.418 94.8516C550.344 93.6094 550.807 91.7695 550.807 89.332ZM566.1 99.3516C563.521 99.3516 561.424 98.5078 559.807 96.8203C558.189 95.1211 557.381 92.8535 557.381 90.0176V89.4199C557.381 87.5332 557.738 85.8516 558.453 84.375C559.18 82.8867 560.188 81.7266 561.477 80.8945C562.777 80.0508 564.184 79.6289 565.695 79.6289C568.168 79.6289 570.09 80.4434 571.461 82.0723C572.832 83.7012 573.518 86.0332 573.518 89.0684V90.4219H560.633C560.68 92.2969 561.225 93.8145 562.268 94.9746C563.322 96.123 564.658 96.6973 566.275 96.6973C567.424 96.6973 568.396 96.4629 569.193 95.9941C569.99 95.5254 570.688 94.9043 571.285 94.1309L573.271 95.6777C571.678 98.127 569.287 99.3516 566.1 99.3516ZM565.695 82.3008C564.383 82.3008 563.281 82.7812 562.391 83.7422C561.5 84.6914 560.949 86.0273 560.738 87.75H570.266V87.5039C570.172 85.8516 569.727 84.5742 568.93 83.6719C568.133 82.7578 567.055 82.3008 565.695 82.3008ZM580.373 79.9805L580.479 82.3711C581.932 80.543 583.83 79.6289 586.174 79.6289C590.193 79.6289 592.221 81.8965 592.256 86.4316V99H589.004V86.4141C588.992 85.043 588.676 84.0293 588.055 83.373C587.445 82.7168 586.49 82.3887 585.189 82.3887C584.135 82.3887 583.209 82.6699 582.412 83.2324C581.615 83.7949 580.994 84.5332 580.549 85.4473V99H577.297V79.9805H580.373Z" fill="black"/>
<path d="M716.6 415.314C716.6 413.451 716.963 411.775 717.689 410.287C718.428 408.799 719.447 407.65 720.748 406.842C722.061 406.033 723.555 405.629 725.23 405.629C727.82 405.629 729.912 406.525 731.506 408.318C733.111 410.111 733.914 412.496 733.914 415.473V415.701C733.914 417.553 733.557 419.217 732.842 420.693C732.139 422.158 731.125 423.301 729.801 424.121C728.488 424.941 726.977 425.352 725.266 425.352C722.688 425.352 720.596 424.455 718.99 422.662C717.396 420.869 716.6 418.496 716.6 415.543V415.314ZM719.869 415.701C719.869 417.811 720.355 419.504 721.328 420.781C722.312 422.059 723.625 422.697 725.266 422.697C726.918 422.697 728.23 422.053 729.203 420.764C730.176 419.463 730.662 417.646 730.662 415.314C730.662 413.229 730.164 411.541 729.168 410.252C728.184 408.951 726.871 408.301 725.23 408.301C723.625 408.301 722.33 408.939 721.346 410.217C720.361 411.494 719.869 413.322 719.869 415.701ZM754.059 415.701C754.059 418.596 753.396 420.928 752.072 422.697C750.748 424.467 748.955 425.352 746.693 425.352C744.385 425.352 742.568 424.619 741.244 423.154V432.312H737.992V405.98H740.963L741.121 408.09C742.445 406.449 744.285 405.629 746.641 405.629C748.926 405.629 750.73 406.49 752.055 408.213C753.391 409.936 754.059 412.332 754.059 415.402V415.701ZM750.807 415.332C750.807 413.188 750.35 411.494 749.436 410.252C748.521 409.01 747.268 408.389 745.674 408.389C743.705 408.389 742.229 409.262 741.244 411.008V420.096C742.217 421.83 743.705 422.697 745.709 422.697C747.268 422.697 748.504 422.082 749.418 420.852C750.344 419.609 750.807 417.77 750.807 415.332ZM766.1 425.352C763.521 425.352 761.424 424.508 759.807 422.82C758.189 421.121 757.381 418.854 757.381 416.018V415.42C757.381 413.533 757.738 411.852 758.453 410.375C759.18 408.887 760.188 407.727 761.477 406.895C762.777 406.051 764.184 405.629 765.695 405.629C768.168 405.629 770.09 406.443 771.461 408.072C772.832 409.701 773.518 412.033 773.518 415.068V416.422H760.633C760.68 418.297 761.225 419.814 762.268 420.975C763.322 422.123 764.658 422.697 766.275 422.697C767.424 422.697 768.396 422.463 769.193 421.994C769.99 421.525 770.688 420.904 771.285 420.131L773.271 421.678C771.678 424.127 769.287 425.352 766.1 425.352ZM765.695 408.301C764.383 408.301 763.281 408.781 762.391 409.742C761.5 410.691 760.949 412.027 760.738 413.75H770.266V413.504C770.172 411.852 769.727 410.574 768.93 409.672C768.133 408.758 767.055 408.301 765.695 408.301ZM780.373 405.98L780.479 408.371C781.932 406.543 783.83 405.629 786.174 405.629C790.193 405.629 792.221 407.896 792.256 412.432V425H789.004V412.414C788.992 411.043 788.676 410.029 788.055 409.373C787.445 408.717 786.49 408.389 785.189 408.389C784.135 408.389 783.209 408.67 782.412 409.232C781.615 409.795 780.994 410.533 780.549 411.447V425H777.297V405.98H780.373Z" fill="black"/>
<path d="M911.09 422.697C912.25 422.697 913.264 422.346 914.131 421.643C914.998 420.939 915.479 420.061 915.572 419.006H918.648C918.59 420.096 918.215 421.133 917.523 422.117C916.832 423.102 915.906 423.887 914.746 424.473C913.598 425.059 912.379 425.352 911.09 425.352C908.5 425.352 906.438 424.49 904.902 422.768C903.379 421.033 902.617 418.666 902.617 415.666V415.121C902.617 413.27 902.957 411.623 903.637 410.182C904.316 408.74 905.289 407.621 906.555 406.824C907.832 406.027 909.338 405.629 911.072 405.629C913.205 405.629 914.975 406.268 916.381 407.545C917.799 408.822 918.555 410.48 918.648 412.52H915.572C915.479 411.289 915.01 410.281 914.166 409.496C913.334 408.699 912.303 408.301 911.072 408.301C909.42 408.301 908.137 408.898 907.223 410.094C906.32 411.277 905.869 412.994 905.869 415.244V415.859C905.869 418.051 906.32 419.738 907.223 420.922C908.125 422.105 909.414 422.697 911.09 422.697ZM925.838 425H922.586V398H925.838V425ZM930.197 415.314C930.197 413.451 930.561 411.775 931.287 410.287C932.025 408.799 933.045 407.65 934.346 406.842C935.658 406.033 937.152 405.629 938.828 405.629C941.418 405.629 943.51 406.525 945.104 408.318C946.709 410.111 947.512 412.496 947.512 415.473V415.701C947.512 417.553 947.154 419.217 946.439 420.693C945.736 422.158 944.723 423.301 943.398 424.121C942.086 424.941 940.574 425.352 938.863 425.352C936.285 425.352 934.193 424.455 932.588 422.662C930.994 420.869 930.197 418.496 930.197 415.543V415.314ZM933.467 415.701C933.467 417.811 933.953 419.504 934.926 420.781C935.91 422.059 937.223 422.697 938.863 422.697C940.516 422.697 941.828 422.053 942.801 420.764C943.773 419.463 944.26 417.646 944.26 415.314C944.26 413.229 943.762 411.541 942.766 410.252C941.781 408.951 940.469 408.301 938.828 408.301C937.223 408.301 935.928 408.939 934.943 410.217C933.959 411.494 933.467 413.322 933.467 415.701ZM962.664 419.955C962.664 419.076 962.33 418.396 961.662 417.916C961.006 417.424 959.852 417.002 958.199 416.65C956.559 416.299 955.252 415.877 954.279 415.385C953.318 414.893 952.604 414.307 952.135 413.627C951.678 412.947 951.449 412.139 951.449 411.201C951.449 409.643 952.105 408.324 953.418 407.246C954.742 406.168 956.43 405.629 958.48 405.629C960.637 405.629 962.383 406.186 963.719 407.299C965.066 408.412 965.74 409.836 965.74 411.57H962.471C962.471 410.68 962.09 409.912 961.328 409.268C960.578 408.623 959.629 408.301 958.48 408.301C957.297 408.301 956.371 408.559 955.703 409.074C955.035 409.59 954.701 410.264 954.701 411.096C954.701 411.881 955.012 412.473 955.633 412.871C956.254 413.27 957.373 413.65 958.99 414.014C960.619 414.377 961.938 414.811 962.945 415.314C963.953 415.818 964.697 416.428 965.178 417.143C965.67 417.846 965.916 418.707 965.916 419.727C965.916 421.426 965.236 422.791 963.877 423.822C962.518 424.842 960.754 425.352 958.586 425.352C957.062 425.352 955.715 425.082 954.543 424.543C953.371 424.004 952.451 423.254 951.783 422.293C951.127 421.32 950.799 420.271 950.799 419.146H954.051C954.109 420.236 954.543 421.104 955.352 421.748C956.172 422.381 957.25 422.697 958.586 422.697C959.816 422.697 960.801 422.451 961.539 421.959C962.289 421.455 962.664 420.787 962.664 419.955ZM978.045 425.352C975.467 425.352 973.369 424.508 971.752 422.82C970.135 421.121 969.326 418.854 969.326 416.018V415.42C969.326 413.533 969.684 411.852 970.398 410.375C971.125 408.887 972.133 407.727 973.422 406.895C974.723 406.051 976.129 405.629 977.641 405.629C980.113 405.629 982.035 406.443 983.406 408.072C984.777 409.701 985.463 412.033 985.463 415.068V416.422H972.578C972.625 418.297 973.17 419.814 974.213 420.975C975.268 422.123 976.604 422.697 978.221 422.697C979.369 422.697 980.342 422.463 981.139 421.994C981.936 421.525 982.633 420.904 983.23 420.131L985.217 421.678C983.623 424.127 981.232 425.352 978.045 425.352ZM977.641 408.301C976.328 408.301 975.227 408.781 974.336 409.742C973.445 410.691 972.895 412.027 972.684 413.75H982.211V413.504C982.117 411.852 981.672 410.574 980.875 409.672C980.078 408.758 979 408.301 977.641 408.301ZM988.451 415.332C988.451 412.414 989.143 410.07 990.525 408.301C991.908 406.52 993.719 405.629 995.957 405.629C998.184 405.629 999.947 406.391 1001.25 407.914V398H1004.5V425H1001.51L1001.35 422.961C1000.05 424.555 998.242 425.352 995.922 425.352C993.719 425.352 991.92 424.449 990.525 422.645C989.143 420.84 988.451 418.484 988.451 415.578V415.332ZM991.703 415.701C991.703 417.857 992.148 419.545 993.039 420.764C993.93 421.982 995.16 422.592 996.73 422.592C998.793 422.592 1000.3 421.666 1001.25 419.814V411.078C1000.28 409.285 998.781 408.389 996.766 408.389C995.172 408.389 993.93 409.004 993.039 410.234C992.148 411.465 991.703 413.287 991.703 415.701Z" fill="black"/>
<path d="M711.09 96.6973C712.25 96.6973 713.264 96.3457 714.131 95.6426C714.998 94.9395 715.479 94.0605 715.572 93.0059H718.648C718.59 94.0957 718.215 95.1328 717.523 96.1172C716.832 97.1016 715.906 97.8867 714.746 98.4727C713.598 99.0586 712.379 99.3516 711.09 99.3516C708.5 99.3516 706.438 98.4902 704.902 96.7676C703.379 95.0332 702.617 92.666 702.617 89.666V89.1211C702.617 87.2695 702.957 85.623 703.637 84.1816C704.316 82.7402 705.289 81.6211 706.555 80.8242C707.832 80.0273 709.338 79.6289 711.072 79.6289C713.205 79.6289 714.975 80.2676 716.381 81.5449C717.799 82.8223 718.555 84.4805 718.648 86.5195H715.572C715.479 85.2891 715.01 84.2812 714.166 83.4961C713.334 82.6992 712.303 82.3008 711.072 82.3008C709.42 82.3008 708.137 82.8984 707.223 84.0938C706.32 85.2773 705.869 86.9941 705.869 89.2441V89.8594C705.869 92.0508 706.32 93.7383 707.223 94.9219C708.125 96.1055 709.414 96.6973 711.09 96.6973ZM725.838 99H722.586V72H725.838V99ZM730.197 89.3145C730.197 87.4512 730.561 85.7754 731.287 84.2871C732.025 82.7988 733.045 81.6504 734.346 80.8418C735.658 80.0332 737.152 79.6289 738.828 79.6289C741.418 79.6289 743.51 80.5254 745.104 82.3184C746.709 84.1113 747.512 86.4961 747.512 89.4727V89.7012C747.512 91.5527 747.154 93.2168 746.439 94.6934C745.736 96.1582 744.723 97.3008 743.398 98.1211C742.086 98.9414 740.574 99.3516 738.863 99.3516C736.285 99.3516 734.193 98.4551 732.588 96.6621C730.994 94.8691 730.197 92.4961 730.197 89.543V89.3145ZM733.467 89.7012C733.467 91.8105 733.953 93.5039 734.926 94.7812C735.91 96.0586 737.223 96.6973 738.863 96.6973C740.516 96.6973 741.828 96.0527 742.801 94.7637C743.773 93.4629 744.26 91.6465 744.26 89.3145C744.26 87.2285 743.762 85.541 742.766 84.252C741.781 82.9512 740.469 82.3008 738.828 82.3008C737.223 82.3008 735.928 82.9395 734.943 84.2168C733.959 85.4941 733.467 87.3223 733.467 89.7012ZM762.664 93.9551C762.664 93.0762 762.33 92.3965 761.662 91.916C761.006 91.4238 759.852 91.002 758.199 90.6504C756.559 90.2988 755.252 89.877 754.279 89.3848C753.318 88.8926 752.604 88.3066 752.135 87.627C751.678 86.9473 751.449 86.1387 751.449 85.2012C751.449 83.6426 752.105 82.3242 753.418 81.2461C754.742 80.168 756.43 79.6289 758.48 79.6289C760.637 79.6289 762.383 80.1855 763.719 81.2988C765.066 82.4121 765.74 83.8359 765.74 85.5703H762.471C762.471 84.6797 762.09 83.9121 761.328 83.2676C760.578 82.623 759.629 82.3008 758.48 82.3008C757.297 82.3008 756.371 82.5586 755.703 83.0742C755.035 83.5898 754.701 84.2637 754.701 85.0957C754.701 85.8809 755.012 86.4727 755.633 86.8711C756.254 87.2695 757.373 87.6504 758.99 88.0137C760.619 88.377 761.938 88.8105 762.945 89.3145C763.953 89.8184 764.697 90.4277 765.178 91.1426C765.67 91.8457 765.916 92.707 765.916 93.7266C765.916 95.4258 765.236 96.791 763.877 97.8223C762.518 98.8418 760.754 99.3516 758.586 99.3516C757.062 99.3516 755.715 99.082 754.543 98.543C753.371 98.0039 752.451 97.2539 751.783 96.293C751.127 95.3203 750.799 94.2715 750.799 93.1465H754.051C754.109 94.2363 754.543 95.1035 755.352 95.748C756.172 96.3809 757.25 96.6973 758.586 96.6973C759.816 96.6973 760.801 96.4512 761.539 95.959C762.289 95.4551 762.664 94.7871 762.664 93.9551ZM778.045 99.3516C775.467 99.3516 773.369 98.5078 771.752 96.8203C770.135 95.1211 769.326 92.8535 769.326 90.0176V89.4199C769.326 87.5332 769.684 85.8516 770.398 84.375C771.125 82.8867 772.133 81.7266 773.422 80.8945C774.723 80.0508 776.129 79.6289 777.641 79.6289C780.113 79.6289 782.035 80.4434 783.406 82.0723C784.777 83.7012 785.463 86.0332 785.463 89.0684V90.4219H772.578C772.625 92.2969 773.17 93.8145 774.213 94.9746C775.268 96.123 776.604 96.6973 778.221 96.6973C779.369 96.6973 780.342 96.4629 781.139 95.9941C781.936 95.5254 782.633 94.9043 783.23 94.1309L785.217 95.6777C783.623 98.127 781.232 99.3516 778.045 99.3516ZM777.641 82.3008C776.328 82.3008 775.227 82.7812 774.336 83.7422C773.445 84.6914 772.895 86.0273 772.684 87.75H782.211V87.5039C782.117 85.8516 781.672 84.5742 780.875 83.6719C780.078 82.7578 779 82.3008 777.641 82.3008ZM788.451 89.332C788.451 86.4141 789.143 84.0703 790.525 82.3008C791.908 80.5195 793.719 79.6289 795.957 79.6289C798.184 79.6289 799.947 80.3906 801.248 81.9141V72H804.5V99H801.512L801.354 96.9609C800.053 98.5547 798.242 99.3516 795.922 99.3516C793.719 99.3516 791.92 98.4492 790.525 96.6445C789.143 94.8398 788.451 92.4844 788.451 89.5781V89.332ZM791.703 89.7012C791.703 91.8574 792.148 93.5449 793.039 94.7637C793.93 95.9824 795.16 96.5918 796.73 96.5918C798.793 96.5918 800.299 95.666 801.248 93.8145V85.0781C800.275 83.2852 798.781 82.3887 796.766 82.3887C795.172 82.3887 793.93 83.0039 793.039 84.2344C792.148 85.4648 791.703 87.2871 791.703 89.7012Z" fill="black"/>
<path d="M556.699 259.019C556.167 258.392 555.221 258.323 554.587 258.865L544.25 267.698C543.616 268.24 543.534 269.188 544.066 269.815C544.598 270.442 545.544 270.51 546.178 269.968L555.366 262.117L563.078 271.197C563.611 271.824 564.557 271.893 565.191 271.351C565.825 270.809 565.908 269.861 565.375 269.234L556.699 259.019ZM214.804 272.63C343.698 287.748 428.068 295.036 480.667 293.496C506.944 292.727 525.478 289.753 537.707 284.336C543.844 281.618 548.46 278.255 551.659 274.187C554.868 270.105 556.584 265.397 557.044 260.109L554.057 259.891C553.641 264.661 552.114 268.789 549.313 272.353C546.501 275.929 542.338 279.021 536.527 281.595C524.86 286.763 506.817 289.73 480.623 290.497C428.279 292.029 344.127 284.771 215.196 269.649L214.804 272.63Z" fill="black"/>
<path d="M554.699 588.019C554.167 587.392 553.221 587.323 552.587 587.865L542.25 596.698C541.616 597.24 541.534 598.188 542.066 598.815C542.598 599.442 543.544 599.51 544.178 598.968L553.366 591.117L561.078 600.197C561.611 600.824 562.557 600.893 563.191 600.351C563.825 599.809 563.908 598.861 563.375 598.234L554.699 588.019ZM212.804 601.63C341.698 616.748 426.068 624.036 478.667 622.496C504.944 621.727 523.478 618.753 535.707 613.336C541.844 610.618 546.46 607.255 549.659 603.187C552.868 599.105 554.584 594.397 555.044 589.109L552.057 588.891C551.641 593.661 550.114 597.789 547.313 601.353C544.501 604.929 540.338 608.021 534.527 610.595C522.86 615.763 504.817 618.73 478.623 619.497C426.279 621.029 342.127 613.771 213.196 598.649L212.804 601.63Z" fill="black"/>
</svg>
