<svg width="388" height="198" viewBox="0 0 388 198" fill="none" xmlns="http://www.w3.org/2000/svg">
<path d="M99.931 12.9C103.252 12.9 106.15 13.4653 108.623 14.596C111.096 15.7267 112.987 17.2637 114.294 19.207C115.601 21.1503 116.255 23.3233 116.255 25.726C116.255 29.6833 115.018 32.7927 112.545 35.054C110.072 37.28 105.867 38.393 99.931 38.393H92.935V48.569C92.935 48.9577 92.7937 49.2933 92.511 49.576C92.2283 49.8587 91.8927 50 91.504 50H80.109C79.7203 50 79.3847 49.8587 79.102 49.576C78.8193 49.2933 78.678 48.9577 78.678 48.569V14.331C78.678 13.9423 78.8193 13.6067 79.102 13.324C79.3847 13.0413 79.7203 12.9 80.109 12.9H99.931ZM99.719 28.588C100.567 28.588 101.238 28.3407 101.733 27.846C102.228 27.316 102.475 26.627 102.475 25.779C102.475 24.8957 102.228 24.1713 101.733 23.606C101.238 23.0407 100.567 22.758 99.719 22.758H92.988V28.588H99.719ZM156.832 39.135C157.221 39.135 157.557 39.2763 157.839 39.559C158.122 39.8417 158.263 40.1773 158.263 40.566V48.569C158.263 48.9577 158.122 49.2933 157.839 49.576C157.557 49.8587 157.221 50 156.832 50H125.88C125.492 50 125.156 49.8587 124.873 49.576C124.591 49.2933 124.449 48.9577 124.449 48.569V14.331C124.449 13.9423 124.591 13.6067 124.873 13.324C125.156 13.0413 125.492 12.9 125.88 12.9H137.328C137.717 12.9 138.053 13.0413 138.335 13.324C138.618 13.6067 138.759 13.9423 138.759 14.331V39.135H156.832ZM176.952 48.198C176.492 49.3993 175.697 50 174.567 50H164.55C164.232 50 163.949 49.894 163.702 49.682C163.49 49.4347 163.384 49.152 163.384 48.834L163.437 48.516L174.991 14.649C175.132 14.1897 175.397 13.7833 175.786 13.43C176.174 13.0767 176.704 12.9 177.376 12.9H192.11C192.781 12.9 193.311 13.0767 193.7 13.43C194.088 13.7833 194.353 14.1897 194.495 14.649L206.049 48.516L206.102 48.834C206.102 49.152 205.978 49.4347 205.731 49.682C205.519 49.894 205.254 50 204.936 50H194.919C193.788 50 192.993 49.3993 192.534 48.198L191.209 44.488H178.277L176.952 48.198ZM184.743 23.129L180.98 34.153H188.506L184.743 23.129ZM246.202 12.9C246.591 12.9 246.926 13.0413 247.209 13.324C247.492 13.6067 247.633 13.9423 247.633 14.331V48.569C247.633 48.9577 247.492 49.2933 247.209 49.576C246.926 49.8587 246.591 50 246.202 50H237.669C236.821 50 236.114 49.629 235.549 48.887L223.995 34.153V48.569C223.995 48.9577 223.854 49.2933 223.571 49.576C223.288 49.8587 222.953 50 222.564 50H212.706C212.317 50 211.982 49.8587 211.699 49.576C211.416 49.2933 211.275 48.9577 211.275 48.569V14.331C211.275 13.9423 211.416 13.6067 211.699 13.324C211.982 13.0413 212.317 12.9 212.706 12.9H221.292C222.14 12.9 222.829 13.2533 223.359 13.96L234.913 29.913V14.331C234.913 13.9423 235.054 13.6067 235.337 13.324C235.62 13.0413 235.955 12.9 236.344 12.9H246.202Z" fill="black"/>
<path d="M99.931 78.9C103.252 78.9 106.15 79.4653 108.623 80.596C111.096 81.7267 112.987 83.2637 114.294 85.207C115.601 87.1503 116.255 89.3233 116.255 91.726C116.255 95.6833 115.018 98.7927 112.545 101.054C110.072 103.28 105.867 104.393 99.931 104.393H92.935V114.569C92.935 114.958 92.7937 115.293 92.511 115.576C92.2283 115.859 91.8927 116 91.504 116H80.109C79.7203 116 79.3847 115.859 79.102 115.576C78.8193 115.293 78.678 114.958 78.678 114.569V80.331C78.678 79.9423 78.8193 79.6067 79.102 79.324C79.3847 79.0413 79.7203 78.9 80.109 78.9H99.931ZM99.719 94.588C100.567 94.588 101.238 94.3407 101.733 93.846C102.228 93.316 102.475 92.627 102.475 91.779C102.475 90.8957 102.228 90.1713 101.733 89.606C101.238 89.0407 100.567 88.758 99.719 88.758H92.988V94.588H99.719ZM160.595 114.357C160.666 114.498 160.701 114.657 160.701 114.834C160.701 115.152 160.578 115.435 160.33 115.682C160.118 115.894 159.853 116 159.535 116H147.504C147.01 116 146.55 115.876 146.126 115.629C145.738 115.382 145.455 115.064 145.278 114.675L140.614 104.181H136.162V114.569C136.162 114.958 136.021 115.293 135.738 115.576C135.456 115.859 135.12 116 134.731 116H123.283C122.895 116 122.559 115.859 122.276 115.576C121.994 115.293 121.852 114.958 121.852 114.569V80.331C121.852 79.9423 121.994 79.6067 122.276 79.324C122.559 79.0413 122.895 78.9 123.283 78.9H143.9C147.08 78.9 149.854 79.4123 152.221 80.437C154.624 81.4617 156.461 82.9457 157.733 84.889C159.005 86.8323 159.641 89.1113 159.641 91.726C159.641 96.5313 157.786 100.012 154.076 102.167L160.595 114.357ZM142.787 94.376C143.565 94.376 144.165 94.1287 144.589 93.634C145.013 93.104 145.225 92.4503 145.225 91.673C145.225 90.8957 145.013 90.2243 144.589 89.659C144.201 89.0583 143.6 88.758 142.787 88.758H136.162V94.376H142.787ZM201.756 105.665C202.144 105.665 202.48 105.806 202.763 106.089C203.045 106.372 203.187 106.707 203.187 107.096V114.569C203.187 114.958 203.045 115.293 202.763 115.576C202.48 115.859 202.144 116 201.756 116H168.26C167.871 116 167.535 115.859 167.253 115.576C166.97 115.293 166.829 114.958 166.829 114.569V80.331C166.829 79.9423 166.97 79.6067 167.253 79.324C167.535 79.0413 167.871 78.9 168.26 78.9H201.226C201.614 78.9 201.95 79.0413 202.233 79.324C202.515 79.6067 202.657 79.9423 202.657 80.331V87.804C202.657 88.1927 202.515 88.5283 202.233 88.811C201.95 89.0937 201.614 89.235 201.226 89.235H180.609V92.574H198.311C198.699 92.574 199.035 92.7153 199.318 92.998C199.6 93.2807 199.742 93.6163 199.742 94.005V100.895C199.742 101.284 199.6 101.619 199.318 101.902C199.035 102.185 198.699 102.326 198.311 102.326H180.609V105.665H201.756ZM235.019 78.9C238.34 78.9 241.238 79.4653 243.711 80.596C246.184 81.7267 248.075 83.2637 249.382 85.207C250.689 87.1503 251.343 89.3233 251.343 91.726C251.343 95.6833 250.106 98.7927 247.633 101.054C245.16 103.28 240.955 104.393 235.019 104.393H228.023V114.569C228.023 114.958 227.882 115.293 227.599 115.576C227.316 115.859 226.981 116 226.592 116H215.197C214.808 116 214.473 115.859 214.19 115.576C213.907 115.293 213.766 114.958 213.766 114.569V80.331C213.766 79.9423 213.907 79.6067 214.19 79.324C214.473 79.0413 214.808 78.9 215.197 78.9H235.019ZM234.807 94.588C235.655 94.588 236.326 94.3407 236.821 93.846C237.316 93.316 237.563 92.627 237.563 91.779C237.563 90.8957 237.316 90.1713 236.821 89.606C236.326 89.0407 235.655 88.758 234.807 88.758H228.076V94.588H234.807ZM267.01 114.198C266.551 115.399 265.756 116 264.625 116H254.608C254.29 116 254.008 115.894 253.76 115.682C253.548 115.435 253.442 115.152 253.442 114.834L253.495 114.516L265.049 80.649C265.191 80.1897 265.456 79.7833 265.844 79.43C266.233 79.0767 266.763 78.9 267.434 78.9H282.168C282.84 78.9 283.37 79.0767 283.758 79.43C284.147 79.7833 284.412 80.1897 284.553 80.649L296.107 114.516L296.16 114.834C296.16 115.152 296.037 115.435 295.789 115.682C295.577 115.894 295.312 116 294.994 116H284.977C283.847 116 283.052 115.399 282.592 114.198L281.267 110.488H268.335L267.01 114.198ZM274.801 89.129L271.038 100.153H278.564L274.801 89.129ZM340.712 114.357C340.783 114.498 340.818 114.657 340.818 114.834C340.818 115.152 340.695 115.435 340.447 115.682C340.235 115.894 339.97 116 339.652 116H327.621C327.127 116 326.667 115.876 326.243 115.629C325.855 115.382 325.572 115.064 325.395 114.675L320.731 104.181H316.279V114.569C316.279 114.958 316.138 115.293 315.855 115.576C315.573 115.859 315.237 116 314.848 116H303.4C303.012 116 302.676 115.859 302.393 115.576C302.111 115.293 301.969 114.958 301.969 114.569V80.331C301.969 79.9423 302.111 79.6067 302.393 79.324C302.676 79.0413 303.012 78.9 303.4 78.9H324.017C327.197 78.9 329.971 79.4123 332.338 80.437C334.741 81.4617 336.578 82.9457 337.85 84.889C339.122 86.8323 339.758 89.1113 339.758 91.726C339.758 96.5313 337.903 100.012 334.193 102.167L340.712 114.357ZM322.904 94.376C323.682 94.376 324.282 94.1287 324.706 93.634C325.13 93.104 325.342 92.4503 325.342 91.673C325.342 90.8957 325.13 90.2243 324.706 89.659C324.318 89.0583 323.717 88.758 322.904 88.758H316.279V94.376H322.904ZM381.873 105.665C382.261 105.665 382.597 105.806 382.88 106.089C383.162 106.372 383.304 106.707 383.304 107.096V114.569C383.304 114.958 383.162 115.293 382.88 115.576C382.597 115.859 382.261 116 381.873 116H348.377C347.988 116 347.652 115.859 347.37 115.576C347.087 115.293 346.946 114.958 346.946 114.569V80.331C346.946 79.9423 347.087 79.6067 347.37 79.324C347.652 79.0413 347.988 78.9 348.377 78.9H381.343C381.731 78.9 382.067 79.0413 382.35 79.324C382.632 79.6067 382.774 79.9423 382.774 80.331V87.804C382.774 88.1927 382.632 88.5283 382.35 88.811C382.067 89.0937 381.731 89.235 381.343 89.235H360.726V92.574H378.428C378.816 92.574 379.152 92.7153 379.435 92.998C379.717 93.2807 379.859 93.6163 379.859 94.005V100.895C379.859 101.284 379.717 101.619 379.435 101.902C379.152 102.185 378.816 102.326 378.428 102.326H360.726V105.665H381.873Z" fill="black"/>
<path d="M111.697 171.665C112.086 171.665 112.421 171.806 112.704 172.089C112.987 172.372 113.128 172.707 113.128 173.096V180.569C113.128 180.958 112.987 181.293 112.704 181.576C112.421 181.859 112.086 182 111.697 182H78.201C77.8123 182 77.4767 181.859 77.194 181.576C76.9113 181.293 76.77 180.958 76.77 180.569V146.331C76.77 145.942 76.9113 145.607 77.194 145.324C77.4767 145.041 77.8123 144.9 78.201 144.9H111.167C111.556 144.9 111.891 145.041 112.174 145.324C112.457 145.607 112.598 145.942 112.598 146.331V153.804C112.598 154.193 112.457 154.528 112.174 154.811C111.891 155.094 111.556 155.235 111.167 155.235H90.55V158.574H108.252C108.641 158.574 108.976 158.715 109.259 158.998C109.542 159.281 109.683 159.616 109.683 160.005V166.895C109.683 167.284 109.542 167.619 109.259 167.902C108.976 168.185 108.641 168.326 108.252 168.326H90.55V171.665H111.697ZM159.217 180.251C159.323 180.357 159.376 180.498 159.376 180.675C159.376 181.028 159.253 181.346 159.005 181.629C158.793 181.876 158.528 182 158.21 182H146.815C145.861 182 145.137 181.594 144.642 180.781L139.501 172.884L134.466 180.781C133.936 181.594 133.212 182 132.293 182H120.845C120.527 182 120.245 181.894 119.997 181.682C119.785 181.435 119.679 181.152 119.679 180.834V180.675C119.679 180.498 119.732 180.357 119.838 180.251L131.551 162.337L121.11 146.649C121.004 146.508 120.951 146.313 120.951 146.066C120.951 145.748 121.057 145.483 121.269 145.271C121.517 145.024 121.799 144.9 122.117 144.9H133.565C134.484 144.9 135.226 145.342 135.791 146.225L139.925 153.009L144.377 146.119C144.625 145.801 144.89 145.518 145.172 145.271C145.49 145.024 145.95 144.9 146.55 144.9H157.945C158.263 144.9 158.528 145.024 158.74 145.271C158.988 145.483 159.111 145.748 159.111 146.066V146.225C159.111 146.402 159.058 146.543 158.952 146.649L147.875 163.026L159.217 180.251ZM201.756 171.665C202.144 171.665 202.48 171.806 202.763 172.089C203.045 172.372 203.187 172.707 203.187 173.096V180.569C203.187 180.958 203.045 181.293 202.763 181.576C202.48 181.859 202.144 182 201.756 182H168.26C167.871 182 167.535 181.859 167.253 181.576C166.97 181.293 166.829 180.958 166.829 180.569V146.331C166.829 145.942 166.97 145.607 167.253 145.324C167.535 145.041 167.871 144.9 168.26 144.9H201.226C201.614 144.9 201.95 145.041 202.233 145.324C202.515 145.607 202.657 145.942 202.657 146.331V153.804C202.657 154.193 202.515 154.528 202.233 154.811C201.95 155.094 201.614 155.235 201.226 155.235H180.609V158.574H198.311C198.699 158.574 199.035 158.715 199.318 158.998C199.6 159.281 199.742 159.616 199.742 160.005V166.895C199.742 167.284 199.6 167.619 199.318 167.902C199.035 168.185 198.699 168.326 198.311 168.326H180.609V171.665H201.756ZM224.737 167.69C224.737 169.139 225.214 170.252 226.168 171.029C227.157 171.806 228.482 172.195 230.143 172.195C231.627 172.195 232.722 171.948 233.429 171.453C234.136 170.958 234.736 170.216 235.231 169.227C235.69 168.308 236.309 167.849 237.086 167.849H248.534C248.852 167.849 249.117 167.973 249.329 168.22C249.576 168.432 249.7 168.697 249.7 169.015C249.7 171.17 248.976 173.29 247.527 175.375C246.078 177.424 243.87 179.138 240.902 180.516C237.969 181.859 234.383 182.53 230.143 182.53C226.362 182.53 222.988 181.965 220.02 180.834C217.087 179.668 214.755 177.901 213.024 175.534C211.293 173.131 210.427 170.146 210.427 166.577V160.323C210.427 156.754 211.293 153.786 213.024 151.419C214.755 149.016 217.087 147.25 220.02 146.119C222.988 144.953 226.362 144.37 230.143 144.37C234.383 144.37 237.969 145.059 240.902 146.437C243.87 147.78 246.078 149.493 247.527 151.578C248.976 153.627 249.7 155.73 249.7 157.885C249.7 158.203 249.576 158.486 249.329 158.733C249.117 158.945 248.852 159.051 248.534 159.051H237.086C236.309 159.051 235.69 158.592 235.231 157.673C234.736 156.684 234.136 155.942 233.429 155.447C232.722 154.952 231.627 154.705 230.143 154.705C228.482 154.705 227.157 155.094 226.168 155.871C225.214 156.648 224.737 157.761 224.737 159.21V167.69ZM274.642 182.53C268.706 182.53 263.989 181.24 260.491 178.661C257.029 176.082 255.297 172.054 255.297 166.577V146.331C255.297 145.942 255.439 145.607 255.721 145.324C256.004 145.041 256.34 144.9 256.728 144.9H267.805C268.194 144.9 268.53 145.041 268.812 145.324C269.095 145.607 269.236 145.942 269.236 146.331V167.425C269.236 168.874 269.713 169.987 270.667 170.764C271.657 171.541 272.982 171.93 274.642 171.93C276.303 171.93 277.61 171.541 278.564 170.764C279.554 169.987 280.048 168.874 280.048 167.425V146.331C280.048 145.942 280.19 145.607 280.472 145.324C280.755 145.041 281.091 144.9 281.479 144.9H292.556C292.945 144.9 293.281 145.041 293.563 145.324C293.846 145.607 293.987 145.942 293.987 146.331V166.577C293.987 172.054 292.238 176.082 288.74 178.661C285.278 181.24 280.578 182.53 274.642 182.53ZM337.956 144.9C338.345 144.9 338.681 145.041 338.963 145.324C339.246 145.607 339.387 145.942 339.387 146.331V154.864C339.387 155.253 339.246 155.588 338.963 155.871C338.681 156.154 338.345 156.295 337.956 156.295H326.561V180.569C326.561 180.958 326.42 181.293 326.137 181.576C325.855 181.859 325.519 182 325.13 182H314.212C313.824 182 313.488 181.859 313.205 181.576C312.923 181.293 312.781 180.958 312.781 180.569V156.295H301.386C300.998 156.295 300.662 156.154 300.379 155.871C300.097 155.588 299.955 155.253 299.955 154.864V146.331C299.955 145.942 300.097 145.607 300.379 145.324C300.662 145.041 300.998 144.9 301.386 144.9H337.956ZM381.873 171.665C382.261 171.665 382.597 171.806 382.88 172.089C383.162 172.372 383.304 172.707 383.304 173.096V180.569C383.304 180.958 383.162 181.293 382.88 181.576C382.597 181.859 382.261 182 381.873 182H348.377C347.988 182 347.652 181.859 347.37 181.576C347.087 181.293 346.946 180.958 346.946 180.569V146.331C346.946 145.942 347.087 145.607 347.37 145.324C347.652 145.041 347.988 144.9 348.377 144.9H381.343C381.731 144.9 382.067 145.041 382.35 145.324C382.632 145.607 382.774 145.942 382.774 146.331V153.804C382.774 154.193 382.632 154.528 382.35 154.811C382.067 155.094 381.731 155.235 381.343 155.235H360.726V158.574H378.428C378.816 158.574 379.152 158.715 379.435 158.998C379.717 159.281 379.859 159.616 379.859 160.005V166.895C379.859 167.284 379.717 167.619 379.435 167.902C379.152 168.185 378.816 168.326 378.428 168.326H360.726V171.665H381.873Z" fill="black"/>
<rect x="7.5" y="14.5" width="36" height="36" stroke="black" stroke-width="9"/>
<rect x="7.5" y="80.5" width="36" height="36" stroke="black" stroke-width="9"/>
<rect x="7.5" y="146.5" width="36" height="36" stroke="black" stroke-width="9"/>
<line x1="4.74673" y1="21.5053" x2="28.7467" y2="45.5053" stroke="#CE2020" stroke-width="12"/>
<line x1="20.5229" y1="44.7439" x2="59.7708" y2="5.74394" stroke="#CE2020" stroke-width="12"/>
<line x1="5.24264" y1="90.5053" x2="29.2426" y2="114.505" stroke="#CE2020" stroke-width="12"/>
<line x1="21.0188" y1="113.744" x2="60.2667" y2="74.7439" stroke="#CE2020" stroke-width="12"/>
<line x1="5.24264" y1="156.505" x2="29.2426" y2="180.505" stroke="#CE2020" stroke-width="12"/>
<line x1="21.0188" y1="179.744" x2="60.2667" y2="140.744" stroke="#CE2020" stroke-width="12"/>
</svg>
