<svg width="2102" height="172" viewBox="0 0 2102 172" fill="none" xmlns="http://www.w3.org/2000/svg">
<path d="M31.3564 95.7539H11.6982L7.2832 108H0.902344L18.8203 61.0781H24.2344L42.1846 108H35.8359L31.3564 95.7539ZM13.5674 90.6621H29.5195L21.5273 68.7158L13.5674 90.6621ZM68.707 104.552C66.3867 107.28 62.9814 108.645 58.4912 108.645C54.7744 108.645 51.9385 107.57 49.9834 105.422C48.0498 103.252 47.0723 100.051 47.0508 95.8184V73.1309H53.0127V95.6572C53.0127 100.942 55.1611 103.585 59.458 103.585C64.0127 103.585 67.042 101.888 68.5459 98.4932V73.1309H74.5078V108H68.8359L68.707 104.552ZM82.1455 90.2754C82.1455 84.9258 83.4131 80.6289 85.9482 77.3848C88.4834 74.1191 91.8027 72.4863 95.9062 72.4863C99.9883 72.4863 103.222 73.8828 105.606 76.6758V58.5H111.568V108H106.09L105.8 104.262C103.415 107.184 100.096 108.645 95.8418 108.645C91.8027 108.645 88.5049 106.99 85.9482 103.682C83.4131 100.373 82.1455 96.0547 82.1455 90.7266V90.2754ZM88.1074 90.9521C88.1074 94.9053 88.9238 97.999 90.5566 100.233C92.1895 102.468 94.4453 103.585 97.3242 103.585C101.105 103.585 103.866 101.888 105.606 98.4932V82.4766C103.823 79.1895 101.084 77.5459 97.3887 77.5459C94.4668 77.5459 92.1895 78.6738 90.5566 80.9297C88.9238 83.1855 88.1074 86.5264 88.1074 90.9521ZM127.327 108H121.365V73.1309H127.327V108ZM120.882 63.8818C120.882 62.915 121.172 62.0986 121.752 61.4326C122.354 60.7666 123.234 60.4336 124.395 60.4336C125.555 60.4336 126.436 60.7666 127.037 61.4326C127.639 62.0986 127.939 62.915 127.939 63.8818C127.939 64.8486 127.639 65.6543 127.037 66.2988C126.436 66.9434 125.555 67.2656 124.395 67.2656C123.234 67.2656 122.354 66.9434 121.752 66.2988C121.172 65.6543 120.882 64.8486 120.882 63.8818ZM135.319 90.2432C135.319 86.8271 135.985 83.7549 137.317 81.0264C138.671 78.2979 140.54 76.1924 142.925 74.71C145.331 73.2275 148.07 72.4863 151.143 72.4863C155.891 72.4863 159.726 74.1299 162.647 77.417C165.591 80.7041 167.062 85.0762 167.062 90.5332V90.9521C167.062 94.3467 166.407 97.3975 165.097 100.104C163.808 102.79 161.949 104.885 159.521 106.389C157.115 107.893 154.344 108.645 151.207 108.645C146.48 108.645 142.646 107.001 139.702 103.714C136.78 100.427 135.319 96.0762 135.319 90.6621V90.2432ZM141.313 90.9521C141.313 94.8193 142.205 97.9238 143.988 100.266C145.793 102.607 148.199 103.778 151.207 103.778C154.236 103.778 156.643 102.597 158.426 100.233C160.209 97.8486 161.101 94.5186 161.101 90.2432C161.101 86.4189 160.188 83.3252 158.361 80.9619C156.557 78.5771 154.15 77.3848 151.143 77.3848C148.199 77.3848 145.825 78.5557 144.021 80.8975C142.216 83.2393 141.313 86.5908 141.313 90.9521ZM211.213 98.751C211.213 97.1396 210.601 95.8936 209.376 95.0127C208.173 94.1104 206.057 93.3369 203.027 92.6924C200.02 92.0479 197.624 91.2744 195.841 90.3721C194.079 89.4697 192.769 88.3955 191.909 87.1494C191.071 85.9033 190.652 84.4209 190.652 82.7021C190.652 79.8447 191.855 77.4277 194.262 75.4512C196.689 73.4746 199.783 72.4863 203.543 72.4863C207.496 72.4863 210.697 73.5068 213.146 75.5479C215.617 77.5889 216.853 80.1992 216.853 83.3789H210.858C210.858 81.7461 210.16 80.3389 208.764 79.1572C207.389 77.9756 205.648 77.3848 203.543 77.3848C201.373 77.3848 199.676 77.8574 198.451 78.8027C197.227 79.748 196.614 80.9834 196.614 82.5088C196.614 83.9482 197.184 85.0332 198.322 85.7637C199.461 86.4941 201.513 87.1924 204.478 87.8584C207.464 88.5244 209.881 89.3193 211.729 90.2432C213.576 91.167 214.94 92.2842 215.821 93.5947C216.724 94.8838 217.175 96.4629 217.175 98.332C217.175 101.447 215.929 103.95 213.437 105.841C210.944 107.71 207.711 108.645 203.736 108.645C200.943 108.645 198.473 108.15 196.324 107.162C194.176 106.174 192.489 104.799 191.265 103.037C190.062 101.254 189.46 99.3311 189.46 97.2686H195.422C195.529 99.2666 196.324 100.856 197.807 102.038C199.311 103.198 201.287 103.778 203.736 103.778C205.992 103.778 207.797 103.327 209.15 102.425C210.525 101.501 211.213 100.276 211.213 98.751ZM231.419 108H225.457V73.1309H231.419V108ZM224.974 63.8818C224.974 62.915 225.264 62.0986 225.844 61.4326C226.445 60.7666 227.326 60.4336 228.486 60.4336C229.646 60.4336 230.527 60.7666 231.129 61.4326C231.73 62.0986 232.031 62.915 232.031 63.8818C232.031 64.8486 231.73 65.6543 231.129 66.2988C230.527 66.9434 229.646 67.2656 228.486 67.2656C227.326 67.2656 226.445 66.9434 225.844 66.2988C225.264 65.6543 224.974 64.8486 224.974 63.8818ZM239.572 90.2754C239.572 84.8398 240.829 80.5215 243.343 77.3203C245.856 74.0977 249.187 72.4863 253.333 72.4863C257.587 72.4863 260.906 73.9902 263.291 76.998L263.581 73.1309H269.027V107.162C269.027 111.674 267.685 115.229 264.999 117.829C262.335 120.429 258.747 121.729 254.235 121.729C251.722 121.729 249.262 121.191 246.855 120.117C244.449 119.043 242.612 117.571 241.345 115.702L244.438 112.125C246.995 115.283 250.121 116.862 253.816 116.862C256.717 116.862 258.973 116.046 260.584 114.413C262.217 112.78 263.033 110.481 263.033 107.517V104.52C260.648 107.27 257.394 108.645 253.269 108.645C249.187 108.645 245.878 107.001 243.343 103.714C240.829 100.427 239.572 95.9473 239.572 90.2754ZM245.566 90.9521C245.566 94.8838 246.372 97.9775 247.983 100.233C249.595 102.468 251.851 103.585 254.751 103.585C258.511 103.585 261.271 101.877 263.033 98.4609V82.541C261.207 79.2109 258.468 77.5459 254.815 77.5459C251.915 77.5459 249.648 78.6738 248.016 80.9297C246.383 83.1855 245.566 86.5264 245.566 90.9521ZM283.69 73.1309L283.884 77.5137C286.548 74.1621 290.028 72.4863 294.325 72.4863C301.694 72.4863 305.411 76.6436 305.476 84.958V108H299.514V84.9258C299.492 82.4121 298.912 80.5537 297.773 79.3506C296.656 78.1475 294.905 77.5459 292.521 77.5459C290.587 77.5459 288.89 78.0615 287.429 79.0928C285.968 80.124 284.829 81.4775 284.013 83.1533V108H278.051V73.1309H283.69ZM335.994 108C335.65 107.312 335.371 106.088 335.156 104.326C332.385 107.205 329.076 108.645 325.23 108.645C321.793 108.645 318.968 107.678 316.755 105.744C314.563 103.789 313.468 101.318 313.468 98.332C313.468 94.7012 314.843 91.8867 317.593 89.8887C320.364 87.8691 324.253 86.8594 329.259 86.8594H335.06V84.1201C335.06 82.0361 334.437 80.3818 333.19 79.1572C331.944 77.9111 330.107 77.2881 327.68 77.2881C325.553 77.2881 323.77 77.8252 322.33 78.8994C320.891 79.9736 320.171 81.2734 320.171 82.7988H314.177C314.177 81.0586 314.789 79.3828 316.014 77.7715C317.26 76.1387 318.936 74.8496 321.041 73.9043C323.168 72.959 325.499 72.4863 328.034 72.4863C332.052 72.4863 335.199 73.4961 337.477 75.5156C339.754 77.5137 340.936 80.2744 341.021 83.7979V99.8467C341.021 103.048 341.43 105.594 342.246 107.484V108H335.994ZM326.101 103.456C327.97 103.456 329.742 102.973 331.418 102.006C333.094 101.039 334.308 99.7822 335.06 98.2354V91.0811H330.387C323.082 91.0811 319.43 93.2188 319.43 97.4941C319.43 99.3633 320.053 100.824 321.299 101.877C322.545 102.93 324.146 103.456 326.101 103.456ZM356.845 108H350.883V58.5H356.845V108Z" fill="black"/>
<path d="M787.271 87.085C781.965 85.5596 778.098 83.6904 775.67 81.4775C773.264 79.2432 772.061 76.4932 772.061 73.2275C772.061 69.5322 773.532 66.4814 776.476 64.0752C779.44 61.6475 783.286 60.4336 788.013 60.4336C791.235 60.4336 794.104 61.0566 796.617 62.3027C799.152 63.5488 801.107 65.2676 802.482 67.459C803.879 69.6504 804.577 72.0459 804.577 74.6455H798.357C798.357 71.8096 797.455 69.5859 795.65 67.9746C793.846 66.3418 791.3 65.5254 788.013 65.5254C784.962 65.5254 782.577 66.2021 780.858 67.5557C779.161 68.8877 778.312 70.7461 778.312 73.1309C778.312 75.043 779.118 76.665 780.729 77.9971C782.362 79.3076 785.123 80.5107 789.012 81.6064C792.922 82.7021 795.973 83.916 798.164 85.248C800.377 86.5586 802.01 88.0947 803.062 89.8564C804.137 91.6182 804.674 93.6914 804.674 96.0762C804.674 99.8789 803.191 102.93 800.227 105.229C797.262 107.506 793.298 108.645 788.335 108.645C785.112 108.645 782.104 108.032 779.312 106.808C776.519 105.562 774.359 103.864 772.834 101.716C771.33 99.5674 770.578 97.1289 770.578 94.4004H776.798C776.798 97.2363 777.84 99.4814 779.924 101.136C782.029 102.769 784.833 103.585 788.335 103.585C791.601 103.585 794.104 102.919 795.844 101.587C797.584 100.255 798.454 98.4395 798.454 96.1406C798.454 93.8418 797.648 92.0693 796.037 90.8232C794.426 89.5557 791.504 88.3096 787.271 87.085ZM823.107 99.2666L831.229 73.1309H837.609L823.591 113.382C821.421 119.183 817.973 122.083 813.246 122.083L812.118 121.986L809.895 121.567V116.733L811.506 116.862C813.525 116.862 815.094 116.454 816.211 115.638C817.35 114.821 818.284 113.328 819.015 111.158L820.336 107.613L807.896 73.1309H814.406L823.107 99.2666ZM863.262 98.751C863.262 97.1396 862.649 95.8936 861.425 95.0127C860.222 94.1104 858.105 93.3369 855.076 92.6924C852.068 92.0479 849.673 91.2744 847.89 90.3721C846.128 89.4697 844.817 88.3955 843.958 87.1494C843.12 85.9033 842.701 84.4209 842.701 82.7021C842.701 79.8447 843.904 77.4277 846.311 75.4512C848.738 73.4746 851.832 72.4863 855.592 72.4863C859.545 72.4863 862.746 73.5068 865.195 75.5479C867.666 77.5889 868.901 80.1992 868.901 83.3789H862.907C862.907 81.7461 862.209 80.3389 860.812 79.1572C859.438 77.9756 857.697 77.3848 855.592 77.3848C853.422 77.3848 851.725 77.8574 850.5 78.8027C849.275 79.748 848.663 80.9834 848.663 82.5088C848.663 83.9482 849.232 85.0332 850.371 85.7637C851.51 86.4941 853.562 87.1924 856.526 87.8584C859.513 88.5244 861.93 89.3193 863.777 90.2432C865.625 91.167 866.989 92.2842 867.87 93.5947C868.772 94.8838 869.224 96.4629 869.224 98.332C869.224 101.447 867.978 103.95 865.485 105.841C862.993 107.71 859.76 108.645 855.785 108.645C852.992 108.645 850.521 108.15 848.373 107.162C846.225 106.174 844.538 104.799 843.313 103.037C842.11 101.254 841.509 99.3311 841.509 97.2686H847.471C847.578 99.2666 848.373 100.856 849.855 102.038C851.359 103.198 853.336 103.778 855.785 103.778C858.041 103.778 859.846 103.327 861.199 102.425C862.574 101.501 863.262 100.276 863.262 98.751ZM885.079 64.6875V73.1309H891.589V77.7393H885.079V99.3633C885.079 100.76 885.369 101.812 885.949 102.521C886.529 103.209 887.518 103.553 888.914 103.553C889.602 103.553 890.547 103.424 891.75 103.166V108C890.182 108.43 888.656 108.645 887.174 108.645C884.51 108.645 882.501 107.839 881.147 106.228C879.794 104.616 879.117 102.328 879.117 99.3633V77.7393H872.769V73.1309H879.117V64.6875H885.079ZM913.052 108.645C908.325 108.645 904.479 107.098 901.515 104.004C898.55 100.889 897.067 96.7314 897.067 91.5322V90.4365C897.067 86.9775 897.723 83.8945 899.033 81.1875C900.365 78.459 902.213 76.332 904.576 74.8066C906.961 73.2598 909.539 72.4863 912.311 72.4863C916.844 72.4863 920.367 73.9795 922.881 76.9658C925.395 79.9521 926.651 84.2275 926.651 89.792V92.2734H903.029C903.115 95.7109 904.114 98.4932 906.026 100.62C907.96 102.726 910.409 103.778 913.374 103.778C915.479 103.778 917.263 103.349 918.724 102.489C920.185 101.63 921.463 100.491 922.559 99.0732L926.2 101.909C923.278 106.399 918.896 108.645 913.052 108.645ZM912.311 77.3848C909.904 77.3848 907.885 78.2656 906.252 80.0273C904.619 81.7676 903.609 84.2168 903.223 87.375H920.689V86.9238C920.518 83.8945 919.701 81.5527 918.24 79.8984C916.779 78.2227 914.803 77.3848 912.311 77.3848ZM939.188 73.1309L939.349 76.998C941.905 73.9902 945.354 72.4863 949.693 72.4863C954.57 72.4863 957.89 74.3555 959.651 78.0938C960.812 76.418 962.315 75.0645 964.163 74.0332C966.032 73.002 968.234 72.4863 970.77 72.4863C978.418 72.4863 982.307 76.5361 982.436 84.6357V108H976.474V84.9902C976.474 82.498 975.904 80.6396 974.766 79.415C973.627 78.1689 971.715 77.5459 969.029 77.5459C966.816 77.5459 964.979 78.2119 963.519 79.5439C962.058 80.8545 961.209 82.627 960.973 84.8613V108H954.979V85.1514C954.979 80.0811 952.497 77.5459 947.534 77.5459C943.624 77.5459 940.949 79.2109 939.51 82.541V108H933.548V73.1309H939.188Z" fill="black"/>
<path d="M1431.67 102.94H1453.9V108H1425.45V61.0781H1431.67V102.94ZM1474.5 108.645C1469.77 108.645 1465.92 107.098 1462.96 104.004C1459.99 100.889 1458.51 96.7314 1458.51 91.5322V90.4365C1458.51 86.9775 1459.17 83.8945 1460.48 81.1875C1461.81 78.459 1463.66 76.332 1466.02 74.8066C1468.4 73.2598 1470.98 72.4863 1473.75 72.4863C1478.29 72.4863 1481.81 73.9795 1484.32 76.9658C1486.84 79.9521 1488.09 84.2275 1488.09 89.792V92.2734H1464.47C1464.56 95.7109 1465.56 98.4932 1467.47 100.62C1469.4 102.726 1471.85 103.778 1474.82 103.778C1476.92 103.778 1478.71 103.349 1480.17 102.489C1481.63 101.63 1482.91 100.491 1484 99.0732L1487.64 101.909C1484.72 106.399 1480.34 108.645 1474.5 108.645ZM1473.75 77.3848C1471.35 77.3848 1469.33 78.2656 1467.7 80.0273C1466.06 81.7676 1465.05 84.2168 1464.67 87.375H1482.13V86.9238C1481.96 83.8945 1481.14 81.5527 1479.68 79.8984C1478.22 78.2227 1476.25 77.3848 1473.75 77.3848ZM1515.33 98.751C1515.33 97.1396 1514.71 95.8936 1513.49 95.0127C1512.29 94.1104 1510.17 93.3369 1507.14 92.6924C1504.13 92.0479 1501.74 91.2744 1499.95 90.3721C1498.19 89.4697 1496.88 88.3955 1496.02 87.1494C1495.18 85.9033 1494.77 84.4209 1494.77 82.7021C1494.77 79.8447 1495.97 77.4277 1498.38 75.4512C1500.8 73.4746 1503.9 72.4863 1507.66 72.4863C1511.61 72.4863 1514.81 73.5068 1517.26 75.5479C1519.73 77.5889 1520.97 80.1992 1520.97 83.3789H1514.97C1514.97 81.7461 1514.27 80.3389 1512.88 79.1572C1511.5 77.9756 1509.76 77.3848 1507.66 77.3848C1505.49 77.3848 1503.79 77.8574 1502.56 78.8027C1501.34 79.748 1500.73 80.9834 1500.73 82.5088C1500.73 83.9482 1501.3 85.0332 1502.44 85.7637C1503.57 86.4941 1505.63 87.1924 1508.59 87.8584C1511.58 88.5244 1513.99 89.3193 1515.84 90.2432C1517.69 91.167 1519.05 92.2842 1519.93 93.5947C1520.84 94.8838 1521.29 96.4629 1521.29 98.332C1521.29 101.447 1520.04 103.95 1517.55 105.841C1515.06 107.71 1511.82 108.645 1507.85 108.645C1505.06 108.645 1502.59 108.15 1500.44 107.162C1498.29 106.174 1496.6 104.799 1495.38 103.037C1494.17 101.254 1493.57 99.3311 1493.57 97.2686H1499.54C1499.64 99.2666 1500.44 100.856 1501.92 102.038C1503.42 103.198 1505.4 103.778 1507.85 103.778C1510.11 103.778 1511.91 103.327 1513.26 102.425C1514.64 101.501 1515.33 100.276 1515.33 98.751ZM1549.36 98.751C1549.36 97.1396 1548.75 95.8936 1547.52 95.0127C1546.32 94.1104 1544.2 93.3369 1541.17 92.6924C1538.16 92.0479 1535.77 91.2744 1533.99 90.3721C1532.22 89.4697 1530.91 88.3955 1530.05 87.1494C1529.22 85.9033 1528.8 84.4209 1528.8 82.7021C1528.8 79.8447 1530 77.4277 1532.41 75.4512C1534.83 73.4746 1537.93 72.4863 1541.69 72.4863C1545.64 72.4863 1548.84 73.5068 1551.29 75.5479C1553.76 77.5889 1555 80.1992 1555 83.3789H1549C1549 81.7461 1548.3 80.3389 1546.91 79.1572C1545.53 77.9756 1543.79 77.3848 1541.69 77.3848C1539.52 77.3848 1537.82 77.8574 1536.6 78.8027C1535.37 79.748 1534.76 80.9834 1534.76 82.5088C1534.76 83.9482 1535.33 85.0332 1536.47 85.7637C1537.61 86.4941 1539.66 87.1924 1542.62 87.8584C1545.61 88.5244 1548.03 89.3193 1549.87 90.2432C1551.72 91.167 1553.08 92.2842 1553.97 93.5947C1554.87 94.8838 1555.32 96.4629 1555.32 98.332C1555.32 101.447 1554.07 103.95 1551.58 105.841C1549.09 107.71 1545.86 108.645 1541.88 108.645C1539.09 108.645 1536.62 108.15 1534.47 107.162C1532.32 106.174 1530.63 104.799 1529.41 103.037C1528.21 101.254 1527.6 99.3311 1527.6 97.2686H1533.57C1533.67 99.2666 1534.47 100.856 1535.95 102.038C1537.46 103.198 1539.43 103.778 1541.88 103.778C1544.14 103.778 1545.94 103.327 1547.29 102.425C1548.67 101.501 1549.36 100.276 1549.36 98.751ZM1585.1 73.1309L1585.29 77.5137C1587.95 74.1621 1591.43 72.4863 1595.73 72.4863C1603.1 72.4863 1606.82 76.6436 1606.88 84.958V108H1600.92V84.9258C1600.9 82.4121 1600.32 80.5537 1599.18 79.3506C1598.06 78.1475 1596.31 77.5459 1593.93 77.5459C1591.99 77.5459 1590.3 78.0615 1588.83 79.0928C1587.37 80.124 1586.24 81.4775 1585.42 83.1533V108H1579.46V73.1309H1585.1ZM1614.29 90.2432C1614.29 86.8271 1614.96 83.7549 1616.29 81.0264C1617.65 78.2979 1619.51 76.1924 1621.9 74.71C1624.31 73.2275 1627.04 72.4863 1630.12 72.4863C1634.87 72.4863 1638.7 74.1299 1641.62 77.417C1644.57 80.7041 1646.04 85.0762 1646.04 90.5332V90.9521C1646.04 94.3467 1645.38 97.3975 1644.07 100.104C1642.78 102.79 1640.92 104.885 1638.5 106.389C1636.09 107.893 1633.32 108.645 1630.18 108.645C1625.46 108.645 1621.62 107.001 1618.68 103.714C1615.75 100.427 1614.29 96.0762 1614.29 90.6621V90.2432ZM1620.29 90.9521C1620.29 94.8193 1621.18 97.9238 1622.96 100.266C1624.77 102.607 1627.17 103.778 1630.18 103.778C1633.21 103.778 1635.62 102.597 1637.4 100.233C1639.18 97.8486 1640.08 94.5186 1640.08 90.2432C1640.08 86.4189 1639.16 83.3252 1637.34 80.9619C1635.53 78.5771 1633.12 77.3848 1630.12 77.3848C1627.17 77.3848 1624.8 78.5557 1623 80.8975C1621.19 83.2393 1620.29 86.5908 1620.29 90.9521ZM1659.99 108H1654.03V73.1309H1659.99V108ZM1653.55 63.8818C1653.55 62.915 1653.84 62.0986 1654.42 61.4326C1655.02 60.7666 1655.9 60.4336 1657.06 60.4336C1658.22 60.4336 1659.1 60.7666 1659.7 61.4326C1660.3 62.0986 1660.6 62.915 1660.6 63.8818C1660.6 64.8486 1660.3 65.6543 1659.7 66.2988C1659.1 66.9434 1658.22 67.2656 1657.06 67.2656C1655.9 67.2656 1655.02 66.9434 1654.42 66.2988C1653.84 65.6543 1653.55 64.8486 1653.55 63.8818ZM1689.87 98.751C1689.87 97.1396 1689.25 95.8936 1688.03 95.0127C1686.83 94.1104 1684.71 93.3369 1681.68 92.6924C1678.67 92.0479 1676.28 91.2744 1674.49 90.3721C1672.73 89.4697 1671.42 88.3955 1670.56 87.1494C1669.72 85.9033 1669.3 84.4209 1669.3 82.7021C1669.3 79.8447 1670.51 77.4277 1672.91 75.4512C1675.34 73.4746 1678.44 72.4863 1682.2 72.4863C1686.15 72.4863 1689.35 73.5068 1691.8 75.5479C1694.27 77.5889 1695.5 80.1992 1695.5 83.3789H1689.51C1689.51 81.7461 1688.81 80.3389 1687.42 79.1572C1686.04 77.9756 1684.3 77.3848 1682.2 77.3848C1680.03 77.3848 1678.33 77.8574 1677.1 78.8027C1675.88 79.748 1675.27 80.9834 1675.27 82.5088C1675.27 83.9482 1675.84 85.0332 1676.97 85.7637C1678.11 86.4941 1680.17 87.1924 1683.13 87.8584C1686.12 88.5244 1688.53 89.3193 1690.38 90.2432C1692.23 91.167 1693.59 92.2842 1694.47 93.5947C1695.38 94.8838 1695.83 96.4629 1695.83 98.332C1695.83 101.447 1694.58 103.95 1692.09 105.841C1689.6 107.71 1686.36 108.645 1682.39 108.645C1679.6 108.645 1677.12 108.15 1674.98 107.162C1672.83 106.174 1671.14 104.799 1669.92 103.037C1668.71 101.254 1668.11 99.3311 1668.11 97.2686H1674.07C1674.18 99.2666 1674.98 100.856 1676.46 102.038C1677.96 103.198 1679.94 103.778 1682.39 103.778C1684.64 103.778 1686.45 103.327 1687.8 102.425C1689.18 101.501 1689.87 100.276 1689.87 98.751ZM1715 99.2666L1723.12 73.1309H1729.5L1715.49 113.382C1713.32 119.183 1709.87 122.083 1705.14 122.083L1704.01 121.986L1701.79 121.567V116.733L1703.4 116.862C1705.42 116.862 1706.99 116.454 1708.11 115.638C1709.24 114.821 1710.18 113.328 1710.91 111.158L1712.23 107.613L1699.79 73.1309H1706.3L1715 99.2666ZM1772.75 108C1772.41 107.312 1772.13 106.088 1771.91 104.326C1769.14 107.205 1765.83 108.645 1761.99 108.645C1758.55 108.645 1755.73 107.678 1753.51 105.744C1751.32 103.789 1750.23 101.318 1750.23 98.332C1750.23 94.7012 1751.6 91.8867 1754.35 89.8887C1757.12 87.8691 1761.01 86.8594 1766.02 86.8594H1771.82V84.1201C1771.82 82.0361 1771.19 80.3818 1769.95 79.1572C1768.7 77.9111 1766.87 77.2881 1764.44 77.2881C1762.31 77.2881 1760.53 77.8252 1759.09 78.8994C1757.65 79.9736 1756.93 81.2734 1756.93 82.7988H1750.93C1750.93 81.0586 1751.55 79.3828 1752.77 77.7715C1754.02 76.1387 1755.69 74.8496 1757.8 73.9043C1759.93 72.959 1762.26 72.4863 1764.79 72.4863C1768.81 72.4863 1771.96 73.4961 1774.23 75.5156C1776.51 77.5137 1777.69 80.2744 1777.78 83.7979V99.8467C1777.78 103.048 1778.19 105.594 1779 107.484V108H1772.75ZM1762.86 103.456C1764.73 103.456 1766.5 102.973 1768.18 102.006C1769.85 101.039 1771.07 99.7822 1771.82 98.2354V91.0811H1767.14C1759.84 91.0811 1756.19 93.2188 1756.19 97.4941C1756.19 99.3633 1756.81 100.824 1758.06 101.877C1759.3 102.93 1760.9 103.456 1762.86 103.456ZM1808.65 104.552C1806.33 107.28 1802.93 108.645 1798.44 108.645C1794.72 108.645 1791.88 107.57 1789.93 105.422C1788 103.252 1787.02 100.051 1787 95.8184V73.1309H1792.96V95.6572C1792.96 100.942 1795.11 103.585 1799.4 103.585C1803.96 103.585 1806.99 101.888 1808.49 98.4932V73.1309H1814.45V108H1808.78L1808.65 104.552ZM1822.09 90.2754C1822.09 84.9258 1823.36 80.6289 1825.89 77.3848C1828.43 74.1191 1831.75 72.4863 1835.85 72.4863C1839.93 72.4863 1843.17 73.8828 1845.55 76.6758V58.5H1851.51V108H1846.04L1845.75 104.262C1843.36 107.184 1840.04 108.645 1835.79 108.645C1831.75 108.645 1828.45 106.99 1825.89 103.682C1823.36 100.373 1822.09 96.0547 1822.09 90.7266V90.2754ZM1828.05 90.9521C1828.05 94.9053 1828.87 97.999 1830.5 100.233C1832.13 102.468 1834.39 103.585 1837.27 103.585C1841.05 103.585 1843.81 101.888 1845.55 98.4932V82.4766C1843.77 79.1895 1841.03 77.5459 1837.33 77.5459C1834.41 77.5459 1832.13 78.6738 1830.5 80.9297C1828.87 83.1855 1828.05 86.5264 1828.05 90.9521ZM1867.27 108H1861.31V73.1309H1867.27V108ZM1860.83 63.8818C1860.83 62.915 1861.12 62.0986 1861.7 61.4326C1862.3 60.7666 1863.18 60.4336 1864.34 60.4336C1865.5 60.4336 1866.38 60.7666 1866.98 61.4326C1867.58 62.0986 1867.88 62.915 1867.88 63.8818C1867.88 64.8486 1867.58 65.6543 1866.98 66.2988C1866.38 66.9434 1865.5 67.2656 1864.34 67.2656C1863.18 67.2656 1862.3 66.9434 1861.7 66.2988C1861.12 65.6543 1860.83 64.8486 1860.83 63.8818ZM1875.26 90.2432C1875.26 86.8271 1875.93 83.7549 1877.26 81.0264C1878.62 78.2979 1880.49 76.1924 1882.87 74.71C1885.28 73.2275 1888.02 72.4863 1891.09 72.4863C1895.84 72.4863 1899.67 74.1299 1902.59 77.417C1905.54 80.7041 1907.01 85.0762 1907.01 90.5332V90.9521C1907.01 94.3467 1906.35 97.3975 1905.04 100.104C1903.75 102.79 1901.89 104.885 1899.47 106.389C1897.06 107.893 1894.29 108.645 1891.15 108.645C1886.43 108.645 1882.59 107.001 1879.65 103.714C1876.73 100.427 1875.26 96.0762 1875.26 90.6621V90.2432ZM1881.26 90.9521C1881.26 94.8193 1882.15 97.9238 1883.93 100.266C1885.74 102.607 1888.14 103.778 1891.15 103.778C1894.18 103.778 1896.59 102.597 1898.37 100.233C1900.15 97.8486 1901.05 94.5186 1901.05 90.2432C1901.05 86.4189 1900.13 83.3252 1898.31 80.9619C1896.5 78.5771 1894.1 77.3848 1891.09 77.3848C1888.14 77.3848 1885.77 78.5557 1883.97 80.8975C1882.16 83.2393 1881.26 86.5908 1881.26 90.9521ZM1951.16 98.751C1951.16 97.1396 1950.55 95.8936 1949.32 95.0127C1948.12 94.1104 1946 93.3369 1942.97 92.6924C1939.96 92.0479 1937.57 91.2744 1935.79 90.3721C1934.02 89.4697 1932.71 88.3955 1931.85 87.1494C1931.02 85.9033 1930.6 84.4209 1930.6 82.7021C1930.6 79.8447 1931.8 77.4277 1934.21 75.4512C1936.63 73.4746 1939.73 72.4863 1943.49 72.4863C1947.44 72.4863 1950.64 73.5068 1953.09 75.5479C1955.56 77.5889 1956.8 80.1992 1956.8 83.3789H1950.8C1950.8 81.7461 1950.11 80.3389 1948.71 79.1572C1947.33 77.9756 1945.59 77.3848 1943.49 77.3848C1941.32 77.3848 1939.62 77.8574 1938.4 78.8027C1937.17 79.748 1936.56 80.9834 1936.56 82.5088C1936.56 83.9482 1937.13 85.0332 1938.27 85.7637C1939.41 86.4941 1941.46 87.1924 1944.42 87.8584C1947.41 88.5244 1949.83 89.3193 1951.67 90.2432C1953.52 91.167 1954.89 92.2842 1955.77 93.5947C1956.67 94.8838 1957.12 96.4629 1957.12 98.332C1957.12 101.447 1955.87 103.95 1953.38 105.841C1950.89 107.71 1947.66 108.645 1943.68 108.645C1940.89 108.645 1938.42 108.15 1936.27 107.162C1934.12 106.174 1932.43 104.799 1931.21 103.037C1930.01 101.254 1929.41 99.3311 1929.41 97.2686H1935.37C1935.47 99.2666 1936.27 100.856 1937.75 102.038C1939.26 103.198 1941.23 103.778 1943.68 103.778C1945.94 103.778 1947.74 103.327 1949.1 102.425C1950.47 101.501 1951.16 100.276 1951.16 98.751ZM1971.36 108H1965.4V73.1309H1971.36V108ZM1964.92 63.8818C1964.92 62.915 1965.21 62.0986 1965.79 61.4326C1966.39 60.7666 1967.27 60.4336 1968.43 60.4336C1969.59 60.4336 1970.47 60.7666 1971.07 61.4326C1971.68 62.0986 1971.98 62.915 1971.98 63.8818C1971.98 64.8486 1971.68 65.6543 1971.07 66.2988C1970.47 66.9434 1969.59 67.2656 1968.43 67.2656C1967.27 67.2656 1966.39 66.9434 1965.79 66.2988C1965.21 65.6543 1964.92 64.8486 1964.92 63.8818ZM1979.52 90.2754C1979.52 84.8398 1980.77 80.5215 1983.29 77.3203C1985.8 74.0977 1989.13 72.4863 1993.28 72.4863C1997.53 72.4863 2000.85 73.9902 2003.24 76.998L2003.53 73.1309H2008.97V107.162C2008.97 111.674 2007.63 115.229 2004.94 117.829C2002.28 120.429 1998.69 121.729 1994.18 121.729C1991.67 121.729 1989.21 121.191 1986.8 120.117C1984.39 119.043 1982.56 117.571 1981.29 115.702L1984.38 112.125C1986.94 115.283 1990.07 116.862 1993.76 116.862C1996.66 116.862 1998.92 116.046 2000.53 114.413C2002.16 112.78 2002.98 110.481 2002.98 107.517V104.52C2000.59 107.27 1997.34 108.645 1993.21 108.645C1989.13 108.645 1985.82 107.001 1983.29 103.714C1980.77 100.427 1979.52 95.9473 1979.52 90.2754ZM1985.51 90.9521C1985.51 94.8838 1986.32 97.9775 1987.93 100.233C1989.54 102.468 1991.8 103.585 1994.7 103.585C1998.46 103.585 2001.22 101.877 2002.98 98.4609V82.541C2001.15 79.2109 1998.41 77.5459 1994.76 77.5459C1991.86 77.5459 1989.59 78.6738 1987.96 80.9297C1986.33 83.1855 1985.51 86.5264 1985.51 90.9521ZM2023.64 73.1309L2023.83 77.5137C2026.49 74.1621 2029.97 72.4863 2034.27 72.4863C2041.64 72.4863 2045.36 76.6436 2045.42 84.958V108H2039.46V84.9258C2039.44 82.4121 2038.86 80.5537 2037.72 79.3506C2036.6 78.1475 2034.85 77.5459 2032.47 77.5459C2030.53 77.5459 2028.83 78.0615 2027.37 79.0928C2025.91 80.124 2024.77 81.4775 2023.96 83.1533V108H2018V73.1309H2023.64ZM2075.94 108C2075.6 107.312 2075.32 106.088 2075.1 104.326C2072.33 107.205 2069.02 108.645 2065.18 108.645C2061.74 108.645 2058.91 107.678 2056.7 105.744C2054.51 103.789 2053.41 101.318 2053.41 98.332C2053.41 94.7012 2054.79 91.8867 2057.54 89.8887C2060.31 87.8691 2064.2 86.8594 2069.2 86.8594H2075V84.1201C2075 82.0361 2074.38 80.3818 2073.14 79.1572C2071.89 77.9111 2070.05 77.2881 2067.62 77.2881C2065.5 77.2881 2063.71 77.8252 2062.28 78.8994C2060.84 79.9736 2060.12 81.2734 2060.12 82.7988H2054.12C2054.12 81.0586 2054.73 79.3828 2055.96 77.7715C2057.21 76.1387 2058.88 74.8496 2060.99 73.9043C2063.11 72.959 2065.44 72.4863 2067.98 72.4863C2072 72.4863 2075.14 73.4961 2077.42 75.5156C2079.7 77.5137 2080.88 80.2744 2080.97 83.7979V99.8467C2080.97 103.048 2081.38 105.594 2082.19 107.484V108H2075.94ZM2066.05 103.456C2067.92 103.456 2069.69 102.973 2071.36 102.006C2073.04 101.039 2074.25 99.7822 2075 98.2354V91.0811H2070.33C2063.03 91.0811 2059.38 93.2188 2059.38 97.4941C2059.38 99.3633 2060 100.824 2061.24 101.877C2062.49 102.93 2064.09 103.456 2066.05 103.456ZM2096.79 108H2090.83V58.5H2096.79V108Z" fill="black"/>
<rect x="681.5" y="2.5" width="399" height="167" rx="29.5" stroke="black" stroke-width="5"/>
<path d="M648.061 87.0607C648.646 86.4749 648.646 85.5251 648.061 84.9393L638.515 75.3934C637.929 74.8076 636.979 74.8076 636.393 75.3934C635.808 75.9792 635.808 76.9289 636.393 77.5147L644.879 86L636.393 94.4853C635.808 95.0711 635.808 96.0208 636.393 96.6066C636.979 97.1924 637.929 97.1924 638.515 96.6066L648.061 87.0607ZM386 87.5H647V84.5H386V87.5Z" fill="black"/>
<path d="M1370.06 87.0607C1370.65 86.4749 1370.65 85.5251 1370.06 84.9393L1360.51 75.3934C1359.93 74.8076 1358.98 74.8076 1358.39 75.3934C1357.81 75.9792 1357.81 76.9289 1358.39 77.5147L1366.88 86L1358.39 94.4853C1357.81 95.0711 1357.81 96.0208 1358.39 96.6066C1358.98 97.1924 1359.93 97.1924 1360.51 96.6066L1370.06 87.0607ZM1108 87.5H1369V84.5H1108V87.5Z" fill="black"/>
</svg>
