<svg width="1274" height="172" viewBox="0 0 1274 172" fill="none" xmlns="http://www.w3.org/2000/svg">
<path d="M16.21 85.8604L23.9443 73.1309H30.9053L19.4971 90.3721L31.2598 108H24.3633L16.3066 94.9482L8.25 108H1.32129L13.084 90.3721L1.67578 73.1309H8.57227L16.21 85.8604ZM49.5967 59.2734H43.4414V113.156H49.5967V118.055H37.4473V54.375H49.5967V59.2734ZM60.4248 73.1309L60.6182 77.5137C63.2822 74.1621 66.7627 72.4863 71.0596 72.4863C78.4287 72.4863 82.1455 76.6436 82.21 84.958V108H76.248V84.9258C76.2266 82.4121 75.6465 80.5537 74.5078 79.3506C73.3906 78.1475 71.6396 77.5459 69.2549 77.5459C67.3213 77.5459 65.624 78.0615 64.1631 79.0928C62.7021 80.124 61.5635 81.4775 60.7471 83.1533V108H54.7852V73.1309H60.4248ZM86.9795 54.375H99.1611V118.055H86.9795V113.156H93.1992V59.2734H86.9795V54.375Z" fill="black"/>
<path d="M588.474 77.3525C591.116 74.1084 594.554 72.4863 598.786 72.4863C606.155 72.4863 609.872 76.6436 609.937 84.958V108H603.975V84.9258C603.953 82.4121 603.373 80.5537 602.234 79.3506C601.117 78.1475 599.366 77.5459 596.981 77.5459C595.048 77.5459 593.351 78.0615 591.89 79.0928C590.429 80.124 589.29 81.4775 588.474 83.1533V108H582.512V58.5H588.474V77.3525ZM631.206 59.2734H625.051V113.156H631.206V118.055H619.057V54.375H631.206V59.2734ZM642.034 73.1309L642.228 77.5137C644.892 74.1621 648.372 72.4863 652.669 72.4863C660.038 72.4863 663.755 76.6436 663.819 84.958V108H657.857V84.9258C657.836 82.4121 657.256 80.5537 656.117 79.3506C655 78.1475 653.249 77.5459 650.864 77.5459C648.931 77.5459 647.233 78.0615 645.772 79.0928C644.312 80.124 643.173 81.4775 642.356 83.1533V108H636.395V73.1309H642.034ZM668.589 54.375H680.771V118.055H668.589V113.156H674.809V59.2734H668.589V54.375Z" fill="black"/>
<path d="M1186.92 99.2666L1195.04 73.1309H1201.42L1187.4 113.382C1185.23 119.183 1181.79 122.083 1177.06 122.083L1175.93 121.986L1173.71 121.567V116.733L1175.32 116.862C1177.34 116.862 1178.91 116.454 1180.02 115.638C1181.16 114.821 1182.1 113.328 1182.83 111.158L1184.15 107.613L1171.71 73.1309H1178.22L1186.92 99.2666ZM1219.11 59.2734H1212.96V113.156H1219.11V118.055H1206.96V54.375H1219.11V59.2734ZM1229.94 73.1309L1230.14 77.5137C1232.8 74.1621 1236.28 72.4863 1240.58 72.4863C1247.95 72.4863 1251.66 76.6436 1251.73 84.958V108H1245.77V84.9258C1245.74 82.4121 1245.16 80.5537 1244.03 79.3506C1242.91 78.1475 1241.16 77.5459 1238.77 77.5459C1236.84 77.5459 1235.14 78.0615 1233.68 79.0928C1232.22 80.124 1231.08 81.4775 1230.26 83.1533V108H1224.3V73.1309H1229.94ZM1256.5 54.375H1268.68V118.055H1256.5V113.156H1262.72V59.2734H1256.5V54.375Z" fill="black"/>
<rect x="432.5" y="2.5" width="399" height="167" rx="29.5" stroke="black" stroke-width="5"/>
<path d="M399.061 87.0607C399.646 86.4749 399.646 85.5251 399.061 84.9393L389.515 75.3934C388.929 74.8076 387.979 74.8076 387.393 75.3934C386.808 75.9792 386.808 76.9289 387.393 77.5147L395.879 86L387.393 94.4853C386.808 95.0711 386.808 96.0208 387.393 96.6066C387.979 97.1924 388.929 97.1924 389.515 96.6066L399.061 87.0607ZM137 87.5H398V84.5H137V87.5Z" fill="black"/>
<path d="M1121.06 87.0607C1121.65 86.4749 1121.65 85.5251 1121.06 84.9393L1111.51 75.3934C1110.93 74.8076 1109.98 74.8076 1109.39 75.3934C1108.81 75.9792 1108.81 76.9289 1109.39 77.5147L1117.88 86L1109.39 94.4853C1108.81 95.0711 1108.81 96.0208 1109.39 96.6066C1109.98 97.1924 1110.93 97.1924 1111.51 96.6066L1121.06 87.0607ZM859 87.5H1120V84.5H859V87.5Z" fill="black"/>
</svg>
