<svg width="1753" height="801" viewBox="0 0 1753 801" fill="none" xmlns="http://www.w3.org/2000/svg">
<path d="M16.21 291.86L23.9443 279.131H30.9053L19.4971 296.372L31.2598 314H24.3633L16.3066 300.948L8.25 314H1.32129L13.084 296.372L1.67578 279.131H8.57227L16.21 291.86ZM67.3857 314H36.6416V309.714L52.8838 291.667C55.29 288.938 56.9443 286.726 57.8467 285.028C58.7705 283.31 59.2324 281.537 59.2324 279.711C59.2324 277.262 58.4912 275.253 57.0088 273.685C55.5264 272.116 53.5498 271.332 51.0791 271.332C48.1143 271.332 45.8047 272.181 44.1504 273.878C42.5176 275.554 41.7012 277.896 41.7012 280.903H35.7393C35.7393 276.585 37.125 273.094 39.8965 270.43C42.6895 267.766 46.417 266.434 51.0791 266.434C55.4404 266.434 58.8887 267.583 61.4238 269.882C63.959 272.159 65.2266 275.199 65.2266 279.002C65.2266 283.621 62.2832 289.121 56.3965 295.502L43.8281 309.134H67.3857V314ZM86.6572 265.273H80.502V319.156H86.6572V324.055H74.5078V260.375H86.6572V265.273ZM97.4854 279.131L97.6787 283.514C100.343 280.162 103.823 278.486 108.12 278.486C115.489 278.486 119.206 282.644 119.271 290.958V314H113.309V290.926C113.287 288.412 112.707 286.554 111.568 285.351C110.451 284.147 108.7 283.546 106.315 283.546C104.382 283.546 102.685 284.062 101.224 285.093C99.7627 286.124 98.624 287.478 97.8076 289.153V314H91.8457V279.131H97.4854ZM124.04 260.375H136.222V324.055H124.04V319.156H130.26V265.273H124.04V260.375Z" fill="black"/>
<path d="M1665.92 181.267L1674.04 155.131H1680.42L1666.4 195.382C1664.23 201.183 1660.79 204.083 1656.06 204.083L1654.93 203.986L1652.71 203.567V198.733L1654.32 198.862C1656.34 198.862 1657.91 198.454 1659.02 197.638C1660.16 196.821 1661.1 195.328 1661.83 193.158L1663.15 189.613L1650.71 155.131H1657.22L1665.92 181.267ZM1698.11 141.273H1691.96V195.156H1698.11V200.055H1685.96V136.375H1698.11V141.273ZM1708.94 155.131L1709.14 159.514C1711.8 156.162 1715.28 154.486 1719.58 154.486C1726.95 154.486 1730.66 158.644 1730.73 166.958V190H1724.77V166.926C1724.74 164.412 1724.16 162.554 1723.03 161.351C1721.91 160.147 1720.16 159.546 1717.77 159.546C1715.84 159.546 1714.14 160.062 1712.68 161.093C1711.22 162.124 1710.08 163.478 1709.26 165.153V190H1703.3V155.131H1708.94ZM1735.5 136.375H1747.68V200.055H1735.5V195.156H1741.72V141.273H1735.5V136.375Z" fill="black"/>
<path d="M451.474 283.353C454.116 280.108 457.554 278.486 461.786 278.486C469.155 278.486 472.872 282.644 472.937 290.958V314H466.975V290.926C466.953 288.412 466.373 286.554 465.234 285.351C464.117 284.147 462.366 283.546 459.981 283.546C458.048 283.546 456.351 284.062 454.89 285.093C453.429 286.124 452.29 287.478 451.474 289.153V314H445.512V264.5H451.474V283.353ZM494.206 265.273H488.051V319.156H494.206V324.055H482.057V260.375H494.206V265.273ZM505.034 279.131L505.228 283.514C507.892 280.162 511.372 278.486 515.669 278.486C523.038 278.486 526.755 282.644 526.819 290.958V314H520.857V290.926C520.836 288.412 520.256 286.554 519.117 285.351C518 284.147 516.249 283.546 513.864 283.546C511.931 283.546 510.233 284.062 508.772 285.093C507.312 286.124 506.173 287.478 505.356 289.153V314H499.395V279.131H505.034ZM531.589 260.375H543.771V324.055H531.589V319.156H537.809V265.273H531.589V260.375Z" fill="black"/>
<path d="M879.92 297.267L888.041 271.131H894.422L880.403 311.382C878.233 317.183 874.785 320.083 870.059 320.083L868.931 319.986L866.707 319.567V314.733L868.318 314.862C870.338 314.862 871.906 314.454 873.023 313.638C874.162 312.821 875.097 311.328 875.827 309.158L877.148 305.613L864.709 271.131H871.219L879.92 297.267ZM929.903 306H899.159V301.714L915.401 283.667C917.808 280.938 919.462 278.726 920.364 277.028C921.288 275.31 921.75 273.537 921.75 271.711C921.75 269.262 921.009 267.253 919.526 265.685C918.044 264.116 916.067 263.332 913.597 263.332C910.632 263.332 908.322 264.181 906.668 265.878C905.035 267.554 904.219 269.896 904.219 272.903H898.257C898.257 268.585 899.643 265.094 902.414 262.43C905.207 259.766 908.935 258.434 913.597 258.434C917.958 258.434 921.406 259.583 923.941 261.882C926.477 264.159 927.744 267.199 927.744 271.002C927.744 275.621 924.801 281.121 918.914 287.502L906.346 301.134H929.903V306ZM949.175 257.273H943.02V311.156H949.175V316.055H937.025V252.375H949.175V257.273ZM960.003 271.131L960.196 275.514C962.86 272.162 966.341 270.486 970.638 270.486C978.007 270.486 981.724 274.644 981.788 282.958V306H975.826V282.926C975.805 280.412 975.225 278.554 974.086 277.351C972.969 276.147 971.218 275.546 968.833 275.546C966.899 275.546 965.202 276.062 963.741 277.093C962.28 278.124 961.142 279.478 960.325 281.153V306H954.363V271.131H960.003ZM986.558 252.375H998.739V316.055H986.558V311.156H992.777V257.273H986.558V252.375Z" fill="black"/>
<rect x="295.5" y="208.5" width="399" height="167" rx="29.5" stroke="black" stroke-width="5"/>
<path d="M263.061 293.061C263.646 292.475 263.646 291.525 263.061 290.939L253.515 281.393C252.929 280.808 251.979 280.808 251.393 281.393C250.808 281.979 250.808 282.929 251.393 283.515L259.879 292L251.393 300.485C250.808 301.071 250.808 302.021 251.393 302.607C251.979 303.192 252.929 303.192 253.515 302.607L263.061 293.061ZM137 293.5H262V290.5H137V293.5Z" fill="black"/>
<path d="M814.061 285.061C814.646 284.475 814.646 283.525 814.061 282.939L804.515 273.393C803.929 272.808 802.979 272.808 802.393 273.393C801.808 273.979 801.808 274.929 802.393 275.515L810.879 284L802.393 292.485C801.808 293.071 801.808 294.021 802.393 294.607C802.979 295.192 803.929 295.192 804.515 294.607L814.061 285.061ZM714 285.5H813V282.5H714V285.5Z" fill="black"/>
<path d="M1617.06 179.061C1617.65 178.475 1617.65 177.525 1617.06 176.939L1607.51 167.393C1606.93 166.808 1605.98 166.808 1605.39 167.393C1604.81 167.979 1604.81 168.929 1605.39 169.515L1613.88 178L1605.39 186.485C1604.81 187.071 1604.81 188.021 1605.39 188.607C1605.98 189.192 1606.93 189.192 1607.51 188.607L1617.06 179.061ZM1517 179.5H1616V176.5H1517V179.5Z" fill="black"/>
<path d="M16.21 95.8604L23.9443 83.1309H30.9053L19.4971 100.372L31.2598 118H24.3633L16.3066 104.948L8.25 118H1.32129L13.084 100.372L1.67578 83.1309H8.57227L16.21 95.8604ZM56.2354 118H50.2412V78.2646L38.2207 82.6797V77.2656L55.3008 70.8525H56.2354V118ZM86.6572 69.2734H80.502V123.156H86.6572V128.055H74.5078V64.375H86.6572V69.2734ZM97.4854 83.1309L97.6787 87.5137C100.343 84.1621 103.823 82.4863 108.12 82.4863C115.489 82.4863 119.206 86.6436 119.271 94.958V118H113.309V94.9258C113.287 92.4121 112.707 90.5537 111.568 89.3506C110.451 88.1475 108.7 87.5459 106.315 87.5459C104.382 87.5459 102.685 88.0615 101.224 89.0928C99.7627 90.124 98.624 91.4775 97.8076 93.1533V118H91.8457V83.1309H97.4854ZM124.04 64.375H136.222V128.055H124.04V123.156H130.26V69.2734H124.04V64.375Z" fill="black"/>
<path d="M451.474 87.3525C454.116 84.1084 457.554 82.4863 461.786 82.4863C469.155 82.4863 472.872 86.6436 472.937 94.958V118H466.975V94.9258C466.953 92.4121 466.373 90.5537 465.234 89.3506C464.117 88.1475 462.366 87.5459 459.981 87.5459C458.048 87.5459 456.351 88.0615 454.89 89.0928C453.429 90.124 452.29 91.4775 451.474 93.1533V118H445.512V68.5H451.474V87.3525ZM494.206 69.2734H488.051V123.156H494.206V128.055H482.057V64.375H494.206V69.2734ZM505.034 83.1309L505.228 87.5137C507.892 84.1621 511.372 82.4863 515.669 82.4863C523.038 82.4863 526.755 86.6436 526.819 94.958V118H520.857V94.9258C520.836 92.4121 520.256 90.5537 519.117 89.3506C518 88.1475 516.249 87.5459 513.864 87.5459C511.931 87.5459 510.233 88.0615 508.772 89.0928C507.312 90.124 506.173 91.4775 505.356 93.1533V118H499.395V83.1309H505.034ZM531.589 64.375H543.771V128.055H531.589V123.156H537.809V69.2734H531.589V64.375Z" fill="black"/>
<path d="M879.92 101.267L888.041 75.1309H894.422L880.403 115.382C878.233 121.183 874.785 124.083 870.059 124.083L868.931 123.986L866.707 123.567V118.733L868.318 118.862C870.338 118.862 871.906 118.454 873.023 117.638C874.162 116.821 875.097 115.328 875.827 113.158L877.148 109.613L864.709 75.1309H871.219L879.92 101.267ZM918.753 110H912.759V70.2646L900.738 74.6797V69.2656L917.818 62.8525H918.753V110ZM949.175 61.2734H943.02V115.156H949.175V120.055H937.025V56.375H949.175V61.2734ZM960.003 75.1309L960.196 79.5137C962.86 76.1621 966.341 74.4863 970.638 74.4863C978.007 74.4863 981.724 78.6436 981.788 86.958V110H975.826V86.9258C975.805 84.4121 975.225 82.5537 974.086 81.3506C972.969 80.1475 971.218 79.5459 968.833 79.5459C966.899 79.5459 965.202 80.0615 963.741 81.0928C962.28 82.124 961.142 83.4775 960.325 85.1533V110H954.363V75.1309H960.003ZM986.558 56.375H998.739V120.055H986.558V115.156H992.777V61.2734H986.558V56.375Z" fill="black"/>
<rect x="295.5" y="12.5" width="399" height="167" rx="29.5" stroke="black" stroke-width="5"/>
<path d="M263.061 96.0607C263.646 95.4749 263.646 94.5251 263.061 93.9393L253.515 84.3934C252.929 83.8076 251.979 83.8076 251.393 84.3934C250.808 84.9792 250.808 85.9289 251.393 86.5147L259.879 95L251.393 103.485C250.808 104.071 250.808 105.021 251.393 105.607C251.979 106.192 252.929 106.192 253.515 105.607L263.061 96.0607ZM137 96.5H262V93.5H137V96.5Z" fill="black"/>
<path d="M814.061 91.0607C814.646 90.4749 814.646 89.5251 814.061 88.9393L804.515 79.3934C803.929 78.8076 802.979 78.8076 802.393 79.3934C801.808 79.9792 801.808 80.9289 802.393 81.5147L810.879 90L802.393 98.4853C801.808 99.0711 801.808 100.021 802.393 100.607C802.979 101.192 803.929 101.192 804.515 100.607L814.061 91.0607ZM714 91.5H813V88.5H714V91.5Z" fill="black"/>
<path d="M1187.07 88.1844C1187.65 87.5948 1187.64 86.6451 1187.05 86.0631L1177.45 76.5798C1176.86 75.9979 1175.91 76.0041 1175.33 76.5937C1174.74 77.1833 1174.75 78.133 1175.34 78.7149L1183.88 87.1446L1175.45 95.6851C1174.87 96.2747 1174.87 97.2245 1175.46 97.8064C1176.05 98.3884 1177 98.3821 1177.59 97.7925L1187.07 88.1844ZM1053.01 89.5L1186.01 88.6307L1185.99 85.6307L1052.99 86.5L1053.01 89.5Z" fill="black"/>
<path d="M1380.49 141.418C1381.27 141.148 1381.69 140.294 1381.42 139.51L1377.01 126.75C1376.74 125.967 1375.89 125.551 1375.1 125.821C1374.32 126.092 1373.91 126.946 1374.18 127.729L1378.09 139.072L1366.75 142.988C1365.97 143.258 1365.55 144.112 1365.82 144.895C1366.09 145.678 1366.95 146.094 1367.73 145.824L1380.49 141.418ZM1276.34 91.218L1379.34 141.349L1380.66 138.651L1277.66 88.5205L1276.34 91.218Z" fill="black"/>
<path d="M1381.47 213.281C1381.63 212.467 1381.09 211.682 1380.28 211.527L1367.02 208.997C1366.21 208.842 1365.42 209.376 1365.27 210.189C1365.11 211.003 1365.64 211.789 1366.46 211.944L1378.25 214.192L1376 225.98C1375.84 226.794 1376.38 227.579 1377.19 227.734C1378 227.89 1378.79 227.356 1378.94 226.542L1381.47 213.281ZM1277.84 284.241L1380.84 214.241L1379.16 211.759L1276.16 281.759L1277.84 284.241Z" fill="black"/>
<line x1="1205.47" y1="49.5251" x2="1279.33" y2="123.382" stroke="black" stroke-width="7"/>
<line x1="1200.53" y1="123.382" x2="1274.38" y2="49.5251" stroke="black" stroke-width="7"/>
<path d="M1187.07 284.184C1187.65 283.595 1187.64 282.645 1187.05 282.063L1177.45 272.58C1176.86 271.998 1175.91 272.004 1175.33 272.594C1174.74 273.183 1174.75 274.133 1175.34 274.715L1183.88 283.145L1175.45 291.685C1174.87 292.275 1174.87 293.224 1175.46 293.806C1176.05 294.388 1177 294.382 1177.59 293.793L1187.07 284.184ZM1053.01 285.5L1186.01 284.631L1185.99 281.631L1052.99 282.5L1053.01 285.5Z" fill="black"/>
<line x1="1205.47" y1="245.525" x2="1279.33" y2="319.382" stroke="black" stroke-width="7"/>
<line x1="1200.53" y1="319.382" x2="1274.38" y2="245.525" stroke="black" stroke-width="7"/>
<line x1="475" y1="650.725" x2="579.45" y2="650.725" stroke="black" stroke-width="7"/>
<line x1="523.725" y1="706.45" x2="523.725" y2="602" stroke="black" stroke-width="7"/>
<line x1="1379" y1="174.725" x2="1483.45" y2="174.725" stroke="black" stroke-width="7"/>
<line x1="1427.72" y1="230.45" x2="1427.72" y2="126" stroke="black" stroke-width="7"/>
<path d="M16.21 762.86L23.9443 750.131H30.9053L19.4971 767.372L31.2598 785H24.3633L16.3066 771.948L8.25 785H1.32129L13.084 767.372L1.67578 750.131H8.57227L16.21 762.86ZM67.3857 785H36.6416V780.714L52.8838 762.667C55.29 759.938 56.9443 757.726 57.8467 756.028C58.7705 754.31 59.2324 752.537 59.2324 750.711C59.2324 748.262 58.4912 746.253 57.0088 744.685C55.5264 743.116 53.5498 742.332 51.0791 742.332C48.1143 742.332 45.8047 743.181 44.1504 744.878C42.5176 746.554 41.7012 748.896 41.7012 751.903H35.7393C35.7393 747.585 37.125 744.094 39.8965 741.43C42.6895 738.766 46.417 737.434 51.0791 737.434C55.4404 737.434 58.8887 738.583 61.4238 740.882C63.959 743.159 65.2266 746.199 65.2266 750.002C65.2266 754.621 62.2832 760.121 56.3965 766.502L43.8281 780.134H67.3857V785ZM86.6572 736.273H80.502V790.156H86.6572V795.055H74.5078V731.375H86.6572V736.273ZM97.4854 750.131L97.6787 754.514C100.343 751.162 103.823 749.486 108.12 749.486C115.489 749.486 119.206 753.644 119.271 761.958V785H113.309V761.926C113.287 759.412 112.707 757.554 111.568 756.351C110.451 755.147 108.7 754.546 106.315 754.546C104.382 754.546 102.685 755.062 101.224 756.093C99.7627 757.124 98.624 758.478 97.8076 760.153V785H91.8457V750.131H97.4854ZM124.04 731.375H136.222V795.055H124.04V790.156H130.26V736.273H124.04V731.375Z" fill="black"/>
<path d="M1292.92 657.267L1301.04 631.131H1307.42L1293.4 671.382C1291.23 677.183 1287.79 680.083 1283.06 680.083L1281.93 679.986L1279.71 679.567V674.733L1281.32 674.862C1283.34 674.862 1284.91 674.454 1286.02 673.638C1287.16 672.821 1288.1 671.328 1288.83 669.158L1290.15 665.613L1277.71 631.131H1284.22L1292.92 657.267ZM1325.11 617.273H1318.96V671.156H1325.11V676.055H1312.96V612.375H1325.11V617.273ZM1335.94 631.131L1336.14 635.514C1338.8 632.162 1342.28 630.486 1346.58 630.486C1353.95 630.486 1357.66 634.644 1357.73 642.958V666H1351.77V642.926C1351.74 640.412 1351.16 638.554 1350.03 637.351C1348.91 636.147 1347.16 635.546 1344.77 635.546C1342.84 635.546 1341.14 636.062 1339.68 637.093C1338.22 638.124 1337.08 639.478 1336.26 641.153V666H1330.3V631.131H1335.94ZM1362.5 612.375H1374.68V676.055H1362.5V671.156H1368.72V617.273H1362.5V612.375Z" fill="black"/>
<path d="M495.57 579C495.352 578.562 495.174 577.783 495.037 576.662C493.273 578.494 491.168 579.41 488.721 579.41C486.533 579.41 484.735 578.795 483.327 577.564C481.933 576.32 481.235 574.748 481.235 572.848C481.235 570.537 482.11 568.746 483.86 567.475C485.624 566.189 488.099 565.547 491.284 565.547H494.976V563.804C494.976 562.478 494.579 561.425 493.786 560.646C492.993 559.853 491.824 559.456 490.279 559.456C488.926 559.456 487.791 559.798 486.875 560.481C485.959 561.165 485.501 561.992 485.501 562.963H481.687C481.687 561.855 482.076 560.789 482.855 559.764C483.648 558.725 484.715 557.904 486.055 557.303C487.408 556.701 488.892 556.4 490.505 556.4C493.062 556.4 495.064 557.043 496.514 558.328C497.963 559.6 498.715 561.356 498.77 563.599V573.812C498.77 575.849 499.029 577.469 499.549 578.672V579H495.57ZM489.274 576.108C490.464 576.108 491.592 575.801 492.658 575.186C493.725 574.57 494.497 573.771 494.976 572.786V568.233H492.002C487.354 568.233 485.029 569.594 485.029 572.314C485.029 573.504 485.426 574.434 486.219 575.104C487.012 575.773 488.03 576.108 489.274 576.108ZM503.794 567.721C503.794 564.316 504.601 561.582 506.214 559.518C507.827 557.439 509.939 556.4 512.551 556.4C515.148 556.4 517.206 557.289 518.724 559.066V547.5H522.518V579H519.031L518.847 576.621C517.329 578.48 515.217 579.41 512.51 579.41C509.939 579.41 507.841 578.357 506.214 576.252C504.601 574.146 503.794 571.398 503.794 568.008V567.721ZM507.588 568.151C507.588 570.667 508.107 572.636 509.146 574.058C510.186 575.479 511.621 576.19 513.453 576.19C515.859 576.19 517.616 575.11 518.724 572.95V562.758C517.589 560.666 515.846 559.62 513.494 559.62C511.635 559.62 510.186 560.338 509.146 561.773C508.107 563.209 507.588 565.335 507.588 568.151ZM527.501 567.721C527.501 564.316 528.308 561.582 529.921 559.518C531.534 557.439 533.646 556.4 536.258 556.4C538.855 556.4 540.913 557.289 542.431 559.066V547.5H546.225V579H542.738L542.554 576.621C541.036 578.48 538.924 579.41 536.217 579.41C533.646 579.41 531.548 578.357 529.921 576.252C528.308 574.146 527.501 571.398 527.501 568.008V567.721ZM531.295 568.151C531.295 570.667 531.814 572.636 532.854 574.058C533.893 575.479 535.328 576.19 537.16 576.19C539.566 576.19 541.323 575.11 542.431 572.95V562.758C541.296 560.666 539.553 559.62 537.201 559.62C535.342 559.62 533.893 560.338 532.854 561.773C531.814 563.209 531.295 565.335 531.295 568.151Z" fill="black"/>
<path d="M1411.57 116C1411.35 115.562 1411.17 114.783 1411.04 113.662C1409.27 115.494 1407.17 116.41 1404.72 116.41C1402.53 116.41 1400.74 115.795 1399.33 114.564C1397.93 113.32 1397.24 111.748 1397.24 109.848C1397.24 107.537 1398.11 105.746 1399.86 104.475C1401.62 103.189 1404.1 102.547 1407.28 102.547H1410.98V100.804C1410.98 99.4775 1410.58 98.4248 1409.79 97.6455C1408.99 96.8525 1407.82 96.4561 1406.28 96.4561C1404.93 96.4561 1403.79 96.7979 1402.88 97.4814C1401.96 98.165 1401.5 98.9922 1401.5 99.9629H1397.69C1397.69 98.8555 1398.08 97.7891 1398.86 96.7637C1399.65 95.7246 1400.71 94.9043 1402.05 94.3027C1403.41 93.7012 1404.89 93.4004 1406.5 93.4004C1409.06 93.4004 1411.06 94.043 1412.51 95.3281C1413.96 96.5996 1414.71 98.3564 1414.77 100.599V110.812C1414.77 112.849 1415.03 114.469 1415.55 115.672V116H1411.57ZM1405.27 113.108C1406.46 113.108 1407.59 112.801 1408.66 112.186C1409.72 111.57 1410.5 110.771 1410.98 109.786V105.233H1408C1403.35 105.233 1401.03 106.594 1401.03 109.314C1401.03 110.504 1401.43 111.434 1402.22 112.104C1403.01 112.773 1404.03 113.108 1405.27 113.108ZM1419.79 104.721C1419.79 101.316 1420.6 98.582 1422.21 96.5176C1423.83 94.4395 1425.94 93.4004 1428.55 93.4004C1431.15 93.4004 1433.21 94.2891 1434.72 96.0664V84.5H1438.52V116H1435.03L1434.85 113.621C1433.33 115.48 1431.22 116.41 1428.51 116.41C1425.94 116.41 1423.84 115.357 1422.21 113.252C1420.6 111.146 1419.79 108.398 1419.79 105.008V104.721ZM1423.59 105.151C1423.59 107.667 1424.11 109.636 1425.15 111.058C1426.19 112.479 1427.62 113.19 1429.45 113.19C1431.86 113.19 1433.62 112.11 1434.72 109.95V99.7578C1433.59 97.666 1431.85 96.6201 1429.49 96.6201C1427.63 96.6201 1426.19 97.3379 1425.15 98.7734C1424.11 100.209 1423.59 102.335 1423.59 105.151ZM1443.5 104.721C1443.5 101.316 1444.31 98.582 1445.92 96.5176C1447.53 94.4395 1449.65 93.4004 1452.26 93.4004C1454.86 93.4004 1456.91 94.2891 1458.43 96.0664V84.5H1462.22V116H1458.74L1458.55 113.621C1457.04 115.48 1454.92 116.41 1452.22 116.41C1449.65 116.41 1447.55 115.357 1445.92 113.252C1444.31 111.146 1443.5 108.398 1443.5 105.008V104.721ZM1447.29 105.151C1447.29 107.667 1447.81 109.636 1448.85 111.058C1449.89 112.479 1451.33 113.19 1453.16 113.19C1455.57 113.19 1457.32 112.11 1458.43 109.95V99.7578C1457.3 97.666 1455.55 96.6201 1453.2 96.6201C1451.34 96.6201 1449.89 97.3379 1448.85 98.7734C1447.81 100.209 1447.29 102.335 1447.29 105.151Z" fill="black"/>
<path d="M1208.79 33.1143C1208.79 32.0889 1208.4 31.2959 1207.62 30.7354C1206.86 30.1611 1205.51 29.6689 1203.58 29.2588C1201.67 28.8486 1200.14 28.3564 1199.01 27.7822C1197.89 27.208 1197.05 26.5244 1196.51 25.7314C1195.97 24.9385 1195.71 23.9951 1195.71 22.9014C1195.71 21.083 1196.47 19.5449 1198 18.2871C1199.55 17.0293 1201.52 16.4004 1203.91 16.4004C1206.43 16.4004 1208.46 17.0498 1210.02 18.3486C1211.59 19.6475 1212.38 21.3086 1212.38 23.332H1208.57C1208.57 22.293 1208.12 21.3975 1207.23 20.6455C1206.36 19.8936 1205.25 19.5176 1203.91 19.5176C1202.53 19.5176 1201.45 19.8184 1200.67 20.4199C1199.89 21.0215 1199.5 21.8076 1199.5 22.7783C1199.5 23.6943 1199.86 24.3848 1200.59 24.8496C1201.31 25.3145 1202.62 25.7588 1204.5 26.1826C1206.41 26.6064 1207.94 27.1123 1209.12 27.7002C1210.29 28.2881 1211.16 28.999 1211.72 29.833C1212.3 30.6533 1212.58 31.6582 1212.58 32.8477C1212.58 34.8301 1211.79 36.4229 1210.21 37.626C1208.62 38.8154 1206.56 39.4102 1204.03 39.4102C1202.26 39.4102 1200.68 39.0957 1199.32 38.4668C1197.95 37.8379 1196.88 36.9629 1196.1 35.8418C1195.33 34.707 1194.95 33.4834 1194.95 32.1709H1198.74C1198.81 33.4424 1199.32 34.4541 1200.26 35.2061C1201.22 35.9443 1202.47 36.3135 1204.03 36.3135C1205.47 36.3135 1206.62 36.0264 1207.48 35.4521C1208.35 34.8643 1208.79 34.085 1208.79 33.1143ZM1226.43 36.3135C1227.78 36.3135 1228.96 35.9033 1229.98 35.083C1230.99 34.2627 1231.55 33.2373 1231.66 32.0068H1235.25C1235.18 33.2783 1234.74 34.4883 1233.93 35.6367C1233.13 36.7852 1232.05 37.7012 1230.69 38.3848C1229.35 39.0684 1227.93 39.4102 1226.43 39.4102C1223.41 39.4102 1221 38.4053 1219.21 36.3955C1217.43 34.3721 1216.54 31.6104 1216.54 28.1104V27.4746C1216.54 25.3145 1216.94 23.3936 1217.73 21.7119C1218.53 20.0303 1219.66 18.7246 1221.14 17.7949C1222.63 16.8652 1224.38 16.4004 1226.41 16.4004C1228.9 16.4004 1230.96 17.1455 1232.6 18.6357C1234.25 20.126 1235.14 22.0605 1235.25 24.4395H1231.66C1231.55 23.0039 1231 21.8281 1230.02 20.9121C1229.05 19.9824 1227.84 19.5176 1226.41 19.5176C1224.48 19.5176 1222.98 20.2148 1221.92 21.6094C1220.86 22.9902 1220.34 24.9932 1220.34 27.6182V28.3359C1220.34 30.8926 1220.86 32.8613 1221.92 34.2422C1222.97 35.623 1224.47 36.3135 1226.43 36.3135ZM1253.21 39C1252.99 38.5625 1252.81 37.7832 1252.68 36.6621C1250.91 38.4941 1248.81 39.4102 1246.36 39.4102C1244.17 39.4102 1242.38 38.7949 1240.97 37.5645C1239.57 36.3203 1238.88 34.748 1238.88 32.8477C1238.88 30.5371 1239.75 28.7461 1241.5 27.4746C1243.26 26.1895 1245.74 25.5469 1248.92 25.5469H1252.62V23.8037C1252.62 22.4775 1252.22 21.4248 1251.43 20.6455C1250.63 19.8525 1249.46 19.4561 1247.92 19.4561C1246.57 19.4561 1245.43 19.7979 1244.52 20.4814C1243.6 21.165 1243.14 21.9922 1243.14 22.9629H1239.33C1239.33 21.8555 1239.72 20.7891 1240.5 19.7637C1241.29 18.7246 1242.36 17.9043 1243.7 17.3027C1245.05 16.7012 1246.53 16.4004 1248.15 16.4004C1250.7 16.4004 1252.71 17.043 1254.15 18.3281C1255.6 19.5996 1256.36 21.3564 1256.41 23.5986V33.8115C1256.41 35.8486 1256.67 37.4688 1257.19 38.6719V39H1253.21ZM1246.92 36.1084C1248.1 36.1084 1249.23 35.8008 1250.3 35.1855C1251.37 34.5703 1252.14 33.7705 1252.62 32.7861V28.2334H1249.64C1244.99 28.2334 1242.67 29.5938 1242.67 32.3145C1242.67 33.5039 1243.07 34.4336 1243.86 35.1035C1244.65 35.7734 1245.67 36.1084 1246.92 36.1084ZM1266.48 39H1262.69V7.5H1266.48V39ZM1281.78 39.4102C1278.77 39.4102 1276.32 38.4258 1274.44 36.457C1272.55 34.4746 1271.61 31.8291 1271.61 28.5205V27.8232C1271.61 25.6221 1272.02 23.6602 1272.86 21.9375C1273.71 20.2012 1274.88 18.8477 1276.38 17.877C1277.9 16.8926 1279.54 16.4004 1281.31 16.4004C1284.19 16.4004 1286.43 17.3506 1288.03 19.251C1289.63 21.1514 1290.43 23.8721 1290.43 27.4131V28.9922H1275.4C1275.46 31.1797 1276.09 32.9502 1277.31 34.3037C1278.54 35.6436 1280.1 36.3135 1281.98 36.3135C1283.32 36.3135 1284.46 36.04 1285.39 35.4932C1286.32 34.9463 1287.13 34.2217 1287.83 33.3193L1290.15 35.124C1288.29 37.9814 1285.5 39.4102 1281.78 39.4102ZM1281.31 19.5176C1279.78 19.5176 1278.49 20.0781 1277.45 21.1992C1276.41 22.3066 1275.77 23.8652 1275.52 25.875H1286.64V25.5879C1286.53 23.6602 1286.01 22.1699 1285.08 21.1172C1284.15 20.0508 1282.89 19.5176 1281.31 19.5176Z" fill="black"/>
<path d="M308.791 700.114C308.791 699.089 308.401 698.296 307.622 697.735C306.856 697.161 305.51 696.669 303.582 696.259C301.668 695.849 300.144 695.356 299.009 694.782C297.888 694.208 297.054 693.524 296.507 692.731C295.974 691.938 295.707 690.995 295.707 689.901C295.707 688.083 296.473 686.545 298.004 685.287C299.549 684.029 301.518 683.4 303.91 683.4C306.426 683.4 308.463 684.05 310.021 685.349C311.594 686.647 312.38 688.309 312.38 690.332H308.565C308.565 689.293 308.121 688.397 307.232 687.646C306.357 686.894 305.25 686.518 303.91 686.518C302.529 686.518 301.449 686.818 300.67 687.42C299.891 688.021 299.501 688.808 299.501 689.778C299.501 690.694 299.863 691.385 300.588 691.85C301.312 692.314 302.618 692.759 304.505 693.183C306.405 693.606 307.943 694.112 309.119 694.7C310.295 695.288 311.163 695.999 311.724 696.833C312.298 697.653 312.585 698.658 312.585 699.848C312.585 701.83 311.792 703.423 310.206 704.626C308.62 705.815 306.562 706.41 304.033 706.41C302.256 706.41 300.684 706.096 299.316 705.467C297.949 704.838 296.876 703.963 296.097 702.842C295.331 701.707 294.948 700.483 294.948 699.171H298.742C298.811 700.442 299.316 701.454 300.26 702.206C301.217 702.944 302.475 703.313 304.033 703.313C305.469 703.313 306.617 703.026 307.479 702.452C308.354 701.864 308.791 701.085 308.791 700.114ZM326.428 703.313C327.781 703.313 328.964 702.903 329.976 702.083C330.987 701.263 331.548 700.237 331.657 699.007H335.246C335.178 700.278 334.74 701.488 333.934 702.637C333.127 703.785 332.047 704.701 330.693 705.385C329.354 706.068 327.932 706.41 326.428 706.41C323.406 706.41 321 705.405 319.209 703.396C317.432 701.372 316.543 698.61 316.543 695.11V694.475C316.543 692.314 316.939 690.394 317.732 688.712C318.525 687.03 319.66 685.725 321.137 684.795C322.627 683.865 324.384 683.4 326.407 683.4C328.896 683.4 330.96 684.146 332.601 685.636C334.255 687.126 335.137 689.061 335.246 691.439H331.657C331.548 690.004 331.001 688.828 330.017 687.912C329.046 686.982 327.843 686.518 326.407 686.518C324.479 686.518 322.982 687.215 321.916 688.609C320.863 689.99 320.337 691.993 320.337 694.618V695.336C320.337 697.893 320.863 699.861 321.916 701.242C322.969 702.623 324.473 703.313 326.428 703.313ZM353.211 706C352.992 705.562 352.814 704.783 352.678 703.662C350.914 705.494 348.809 706.41 346.361 706.41C344.174 706.41 342.376 705.795 340.968 704.564C339.573 703.32 338.876 701.748 338.876 699.848C338.876 697.537 339.751 695.746 341.501 694.475C343.265 693.189 345.739 692.547 348.925 692.547H352.616V690.804C352.616 689.478 352.22 688.425 351.427 687.646C350.634 686.853 349.465 686.456 347.92 686.456C346.566 686.456 345.432 686.798 344.516 687.481C343.6 688.165 343.142 688.992 343.142 689.963H339.327C339.327 688.855 339.717 687.789 340.496 686.764C341.289 685.725 342.355 684.904 343.695 684.303C345.049 683.701 346.532 683.4 348.146 683.4C350.702 683.4 352.705 684.043 354.154 685.328C355.604 686.6 356.355 688.356 356.41 690.599V700.812C356.41 702.849 356.67 704.469 357.189 705.672V706H353.211ZM346.915 703.108C348.104 703.108 349.232 702.801 350.299 702.186C351.365 701.57 352.138 700.771 352.616 699.786V695.233H349.643C344.994 695.233 342.67 696.594 342.67 699.314C342.67 700.504 343.066 701.434 343.859 702.104C344.652 702.773 345.671 703.108 346.915 703.108ZM366.479 706H362.686V674.5H366.479V706ZM381.778 706.41C378.771 706.41 376.323 705.426 374.437 703.457C372.55 701.475 371.606 698.829 371.606 695.521V694.823C371.606 692.622 372.023 690.66 372.857 688.938C373.705 687.201 374.881 685.848 376.385 684.877C377.902 683.893 379.543 683.4 381.307 683.4C384.191 683.4 386.434 684.351 388.033 686.251C389.633 688.151 390.433 690.872 390.433 694.413V695.992H375.4C375.455 698.18 376.091 699.95 377.308 701.304C378.538 702.644 380.097 703.313 381.983 703.313C383.323 703.313 384.458 703.04 385.388 702.493C386.317 701.946 387.131 701.222 387.828 700.319L390.146 702.124C388.286 704.981 385.497 706.41 381.778 706.41ZM381.307 686.518C379.775 686.518 378.49 687.078 377.451 688.199C376.412 689.307 375.77 690.865 375.523 692.875H386.639V692.588C386.529 690.66 386.01 689.17 385.08 688.117C384.15 687.051 382.893 686.518 381.307 686.518Z" fill="black"/>
<path d="M1208.79 224.114C1208.79 223.089 1208.4 222.296 1207.62 221.735C1206.86 221.161 1205.51 220.669 1203.58 220.259C1201.67 219.849 1200.14 219.356 1199.01 218.782C1197.89 218.208 1197.05 217.524 1196.51 216.731C1195.97 215.938 1195.71 214.995 1195.71 213.901C1195.71 212.083 1196.47 210.545 1198 209.287C1199.55 208.029 1201.52 207.4 1203.91 207.4C1206.43 207.4 1208.46 208.05 1210.02 209.349C1211.59 210.647 1212.38 212.309 1212.38 214.332H1208.57C1208.57 213.293 1208.12 212.397 1207.23 211.646C1206.36 210.894 1205.25 210.518 1203.91 210.518C1202.53 210.518 1201.45 210.818 1200.67 211.42C1199.89 212.021 1199.5 212.808 1199.5 213.778C1199.5 214.694 1199.86 215.385 1200.59 215.85C1201.31 216.314 1202.62 216.759 1204.5 217.183C1206.41 217.606 1207.94 218.112 1209.12 218.7C1210.29 219.288 1211.16 219.999 1211.72 220.833C1212.3 221.653 1212.58 222.658 1212.58 223.848C1212.58 225.83 1211.79 227.423 1210.21 228.626C1208.62 229.815 1206.56 230.41 1204.03 230.41C1202.26 230.41 1200.68 230.096 1199.32 229.467C1197.95 228.838 1196.88 227.963 1196.1 226.842C1195.33 225.707 1194.95 224.483 1194.95 223.171H1198.74C1198.81 224.442 1199.32 225.454 1200.26 226.206C1201.22 226.944 1202.47 227.313 1204.03 227.313C1205.47 227.313 1206.62 227.026 1207.48 226.452C1208.35 225.864 1208.79 225.085 1208.79 224.114ZM1226.43 227.313C1227.78 227.313 1228.96 226.903 1229.98 226.083C1230.99 225.263 1231.55 224.237 1231.66 223.007H1235.25C1235.18 224.278 1234.74 225.488 1233.93 226.637C1233.13 227.785 1232.05 228.701 1230.69 229.385C1229.35 230.068 1227.93 230.41 1226.43 230.41C1223.41 230.41 1221 229.405 1219.21 227.396C1217.43 225.372 1216.54 222.61 1216.54 219.11V218.475C1216.54 216.314 1216.94 214.394 1217.73 212.712C1218.53 211.03 1219.66 209.725 1221.14 208.795C1222.63 207.865 1224.38 207.4 1226.41 207.4C1228.9 207.4 1230.96 208.146 1232.6 209.636C1234.25 211.126 1235.14 213.061 1235.25 215.439H1231.66C1231.55 214.004 1231 212.828 1230.02 211.912C1229.05 210.982 1227.84 210.518 1226.41 210.518C1224.48 210.518 1222.98 211.215 1221.92 212.609C1220.86 213.99 1220.34 215.993 1220.34 218.618V219.336C1220.34 221.893 1220.86 223.861 1221.92 225.242C1222.97 226.623 1224.47 227.313 1226.43 227.313ZM1253.21 230C1252.99 229.562 1252.81 228.783 1252.68 227.662C1250.91 229.494 1248.81 230.41 1246.36 230.41C1244.17 230.41 1242.38 229.795 1240.97 228.564C1239.57 227.32 1238.88 225.748 1238.88 223.848C1238.88 221.537 1239.75 219.746 1241.5 218.475C1243.26 217.189 1245.74 216.547 1248.92 216.547H1252.62V214.804C1252.62 213.478 1252.22 212.425 1251.43 211.646C1250.63 210.853 1249.46 210.456 1247.92 210.456C1246.57 210.456 1245.43 210.798 1244.52 211.481C1243.6 212.165 1243.14 212.992 1243.14 213.963H1239.33C1239.33 212.855 1239.72 211.789 1240.5 210.764C1241.29 209.725 1242.36 208.904 1243.7 208.303C1245.05 207.701 1246.53 207.4 1248.15 207.4C1250.7 207.4 1252.71 208.043 1254.15 209.328C1255.6 210.6 1256.36 212.356 1256.41 214.599V224.812C1256.41 226.849 1256.67 228.469 1257.19 229.672V230H1253.21ZM1246.92 227.108C1248.1 227.108 1249.23 226.801 1250.3 226.186C1251.37 225.57 1252.14 224.771 1252.62 223.786V219.233H1249.64C1244.99 219.233 1242.67 220.594 1242.67 223.314C1242.67 224.504 1243.07 225.434 1243.86 226.104C1244.65 226.773 1245.67 227.108 1246.92 227.108ZM1266.48 230H1262.69V198.5H1266.48V230ZM1281.78 230.41C1278.77 230.41 1276.32 229.426 1274.44 227.457C1272.55 225.475 1271.61 222.829 1271.61 219.521V218.823C1271.61 216.622 1272.02 214.66 1272.86 212.938C1273.71 211.201 1274.88 209.848 1276.38 208.877C1277.9 207.893 1279.54 207.4 1281.31 207.4C1284.19 207.4 1286.43 208.351 1288.03 210.251C1289.63 212.151 1290.43 214.872 1290.43 218.413V219.992H1275.4C1275.46 222.18 1276.09 223.95 1277.31 225.304C1278.54 226.644 1280.1 227.313 1281.98 227.313C1283.32 227.313 1284.46 227.04 1285.39 226.493C1286.32 225.946 1287.13 225.222 1287.83 224.319L1290.15 226.124C1288.29 228.981 1285.5 230.41 1281.78 230.41ZM1281.31 210.518C1279.78 210.518 1278.49 211.078 1277.45 212.199C1276.41 213.307 1275.77 214.865 1275.52 216.875H1286.64V216.588C1286.53 214.66 1286.01 213.17 1285.08 212.117C1284.15 211.051 1282.89 210.518 1281.31 210.518Z" fill="black"/>
<path d="M308.791 512.114C308.791 511.089 308.401 510.296 307.622 509.735C306.856 509.161 305.51 508.669 303.582 508.259C301.668 507.849 300.144 507.356 299.009 506.782C297.888 506.208 297.054 505.524 296.507 504.731C295.974 503.938 295.707 502.995 295.707 501.901C295.707 500.083 296.473 498.545 298.004 497.287C299.549 496.029 301.518 495.4 303.91 495.4C306.426 495.4 308.463 496.05 310.021 497.349C311.594 498.647 312.38 500.309 312.38 502.332H308.565C308.565 501.293 308.121 500.397 307.232 499.646C306.357 498.894 305.25 498.518 303.91 498.518C302.529 498.518 301.449 498.818 300.67 499.42C299.891 500.021 299.501 500.808 299.501 501.778C299.501 502.694 299.863 503.385 300.588 503.85C301.312 504.314 302.618 504.759 304.505 505.183C306.405 505.606 307.943 506.112 309.119 506.7C310.295 507.288 311.163 507.999 311.724 508.833C312.298 509.653 312.585 510.658 312.585 511.848C312.585 513.83 311.792 515.423 310.206 516.626C308.62 517.815 306.562 518.41 304.033 518.41C302.256 518.41 300.684 518.096 299.316 517.467C297.949 516.838 296.876 515.963 296.097 514.842C295.331 513.707 294.948 512.483 294.948 511.171H298.742C298.811 512.442 299.316 513.454 300.26 514.206C301.217 514.944 302.475 515.313 304.033 515.313C305.469 515.313 306.617 515.026 307.479 514.452C308.354 513.864 308.791 513.085 308.791 512.114ZM326.428 515.313C327.781 515.313 328.964 514.903 329.976 514.083C330.987 513.263 331.548 512.237 331.657 511.007H335.246C335.178 512.278 334.74 513.488 333.934 514.637C333.127 515.785 332.047 516.701 330.693 517.385C329.354 518.068 327.932 518.41 326.428 518.41C323.406 518.41 321 517.405 319.209 515.396C317.432 513.372 316.543 510.61 316.543 507.11V506.475C316.543 504.314 316.939 502.394 317.732 500.712C318.525 499.03 319.66 497.725 321.137 496.795C322.627 495.865 324.384 495.4 326.407 495.4C328.896 495.4 330.96 496.146 332.601 497.636C334.255 499.126 335.137 501.061 335.246 503.439H331.657C331.548 502.004 331.001 500.828 330.017 499.912C329.046 498.982 327.843 498.518 326.407 498.518C324.479 498.518 322.982 499.215 321.916 500.609C320.863 501.99 320.337 503.993 320.337 506.618V507.336C320.337 509.893 320.863 511.861 321.916 513.242C322.969 514.623 324.473 515.313 326.428 515.313ZM353.211 518C352.992 517.562 352.814 516.783 352.678 515.662C350.914 517.494 348.809 518.41 346.361 518.41C344.174 518.41 342.376 517.795 340.968 516.564C339.573 515.32 338.876 513.748 338.876 511.848C338.876 509.537 339.751 507.746 341.501 506.475C343.265 505.189 345.739 504.547 348.925 504.547H352.616V502.804C352.616 501.478 352.22 500.425 351.427 499.646C350.634 498.853 349.465 498.456 347.92 498.456C346.566 498.456 345.432 498.798 344.516 499.481C343.6 500.165 343.142 500.992 343.142 501.963H339.327C339.327 500.855 339.717 499.789 340.496 498.764C341.289 497.725 342.355 496.904 343.695 496.303C345.049 495.701 346.532 495.4 348.146 495.4C350.702 495.4 352.705 496.043 354.154 497.328C355.604 498.6 356.355 500.356 356.41 502.599V512.812C356.41 514.849 356.67 516.469 357.189 517.672V518H353.211ZM346.915 515.108C348.104 515.108 349.232 514.801 350.299 514.186C351.365 513.57 352.138 512.771 352.616 511.786V507.233H349.643C344.994 507.233 342.67 508.594 342.67 511.314C342.67 512.504 343.066 513.434 343.859 514.104C344.652 514.773 345.671 515.108 346.915 515.108ZM366.479 518H362.686V486.5H366.479V518ZM381.778 518.41C378.771 518.41 376.323 517.426 374.437 515.457C372.55 513.475 371.606 510.829 371.606 507.521V506.823C371.606 504.622 372.023 502.66 372.857 500.938C373.705 499.201 374.881 497.848 376.385 496.877C377.902 495.893 379.543 495.4 381.307 495.4C384.191 495.4 386.434 496.351 388.033 498.251C389.633 500.151 390.433 502.872 390.433 506.413V507.992H375.4C375.455 510.18 376.091 511.95 377.308 513.304C378.538 514.644 380.097 515.313 381.983 515.313C383.323 515.313 384.458 515.04 385.388 514.493C386.317 513.946 387.131 513.222 387.828 512.319L390.146 514.124C388.286 516.981 385.497 518.41 381.778 518.41ZM381.307 498.518C379.775 498.518 378.49 499.078 377.451 500.199C376.412 501.307 375.77 502.865 375.523 504.875H386.639V504.588C386.529 502.66 386.01 501.17 385.08 500.117C384.15 499.051 382.893 498.518 381.307 498.518Z" fill="black"/>
<path d="M263.061 764.061C263.646 763.475 263.646 762.525 263.061 761.939L253.515 752.393C252.929 751.808 251.979 751.808 251.393 752.393C250.808 752.979 250.808 753.929 251.393 754.515L259.879 763L251.393 771.485C250.808 772.071 250.808 773.021 251.393 773.607C251.979 774.192 252.929 774.192 253.515 773.607L263.061 764.061ZM137 764.5H262V761.5H137V764.5Z" fill="black"/>
<path d="M1244.06 655.061C1244.65 654.475 1244.65 653.525 1244.06 652.939L1234.51 643.393C1233.93 642.808 1232.98 642.808 1232.39 643.393C1231.81 643.979 1231.81 644.929 1232.39 645.515L1240.88 654L1232.39 662.485C1231.81 663.071 1231.81 664.021 1232.39 664.607C1232.98 665.192 1233.93 665.192 1234.51 664.607L1244.06 655.061ZM1144 655.5H1243V652.5H1144V655.5Z" fill="black"/>
<path d="M16.21 566.86L23.9443 554.131H30.9053L19.4971 571.372L31.2598 589H24.3633L16.3066 575.948L8.25 589H1.32129L13.084 571.372L1.67578 554.131H8.57227L16.21 566.86ZM56.2354 589H50.2412V549.265L38.2207 553.68V548.266L55.3008 541.853H56.2354V589ZM86.6572 540.273H80.502V594.156H86.6572V599.055H74.5078V535.375H86.6572V540.273ZM97.4854 554.131L97.6787 558.514C100.343 555.162 103.823 553.486 108.12 553.486C115.489 553.486 119.206 557.644 119.271 565.958V589H113.309V565.926C113.287 563.412 112.707 561.554 111.568 560.351C110.451 559.147 108.7 558.546 106.315 558.546C104.382 558.546 102.685 559.062 101.224 560.093C99.7627 561.124 98.624 562.478 97.8076 564.153V589H91.8457V554.131H97.4854ZM124.04 535.375H136.222V599.055H124.04V594.156H130.26V540.273H124.04V535.375Z" fill="black"/>
<path d="M877.474 643.353C880.116 640.108 883.554 638.486 887.786 638.486C895.155 638.486 898.872 642.644 898.937 650.958V674H892.975V650.926C892.953 648.412 892.373 646.554 891.234 645.351C890.117 644.147 888.366 643.546 885.981 643.546C884.048 643.546 882.351 644.062 880.89 645.093C879.429 646.124 878.29 647.478 877.474 649.153V674H871.512V624.5H877.474V643.353ZM920.206 625.273H914.051V679.156H920.206V684.055H908.057V620.375H920.206V625.273ZM931.034 639.131L931.228 643.514C933.892 640.162 937.372 638.486 941.669 638.486C949.038 638.486 952.755 642.644 952.819 650.958V674H946.857V650.926C946.836 648.412 946.256 646.554 945.117 645.351C944 644.147 942.249 643.546 939.864 643.546C937.931 643.546 936.233 644.062 934.772 645.093C933.312 646.124 932.173 647.478 931.356 649.153V674H925.395V639.131H931.034ZM957.589 620.375H969.771V684.055H957.589V679.156H963.809V625.273H957.589V620.375Z" fill="black"/>
<rect x="721.5" y="568.5" width="399" height="167" rx="29.5" stroke="black" stroke-width="5"/>
<path d="M263.061 567.061C263.646 566.475 263.646 565.525 263.061 564.939L253.515 555.393C252.929 554.808 251.979 554.808 251.393 555.393C250.808 555.979 250.808 556.929 251.393 557.515L259.879 566L251.393 574.485C250.808 575.071 250.808 576.021 251.393 576.607C251.979 577.192 252.929 577.192 253.515 576.607L263.061 567.061ZM137 567.5H262V564.5H137V567.5Z" fill="black"/>
<path d="M707.061 653.061C707.646 652.475 707.646 651.525 707.061 650.939L697.515 641.393C696.929 640.808 695.979 640.808 695.393 641.393C694.808 641.979 694.808 642.929 695.393 643.515L703.879 652L695.393 660.485C694.808 661.071 694.808 662.021 695.393 662.607C695.979 663.192 696.929 663.192 697.515 662.607L707.061 653.061ZM607 653.5H706V650.5H607V653.5Z" fill="black"/>
<path d="M479.49 617.418C480.273 617.148 480.688 616.294 480.418 615.51L476.012 602.75C475.742 601.967 474.888 601.551 474.105 601.821C473.322 602.092 472.906 602.946 473.176 603.729L477.093 615.072L465.75 618.988C464.967 619.258 464.551 620.112 464.821 620.895C465.092 621.678 465.946 622.094 466.729 621.824L479.49 617.418ZM375.344 567.218L478.344 617.349L479.656 614.651L376.656 564.521L375.344 567.218Z" fill="black"/>
<path d="M480.473 689.281C480.629 688.467 480.095 687.682 479.281 687.527L466.02 684.997C465.206 684.842 464.421 685.376 464.266 686.189C464.11 687.003 464.644 687.789 465.458 687.944L477.246 690.192L474.997 701.98C474.842 702.794 475.376 703.579 476.189 703.734C477.003 703.89 477.789 703.356 477.944 702.542L480.473 689.281ZM376.843 760.241L479.843 690.241L478.157 687.759L375.157 757.759L376.843 760.241Z" fill="black"/>
<line x1="304.475" y1="525.525" x2="378.332" y2="599.382" stroke="black" stroke-width="7"/>
<line x1="299.525" y1="599.382" x2="373.382" y2="525.525" stroke="black" stroke-width="7"/>
<line x1="304.475" y1="721.525" x2="378.332" y2="795.382" stroke="black" stroke-width="7"/>
<line x1="299.525" y1="795.382" x2="373.382" y2="721.525" stroke="black" stroke-width="7"/>
</svg>
